<svg width="125" height="125" viewBox="0 0 125 125" fill="none" xmlns="http://www.w3.org/2000/svg">
<path fill-rule="evenodd" clip-rule="evenodd" d="M62.5 125C97.0178 125 125 97.0178 125 62.5C125 27.9822 97.0178 0 62.5 0C27.9822 0 0 27.9822 0 62.5C0 97.0178 27.9822 125 62.5 125ZM25.3164 54.6836H21.6016V73H35.9688V69.7422H25.3164V54.6836ZM39.2617 59.9922C38.7539 61.1406 38.5 62.4062 38.5 63.7891C38.5 65.1797 38.7539 66.457 39.2617 67.6211C39.7695 68.7773 40.4805 69.7734 41.3945 70.6094C42.3164 71.4453 43.418 72.0977 44.6992 72.5664C45.9883 73.0273 47.4141 73.2578 48.9766 73.2578C50.5312 73.2578 51.9531 73.0273 53.2422 72.5664C54.5312 72.0977 55.6328 71.4453 56.5469 70.6094C57.4688 69.7734 58.1836 68.7773 58.6914 67.6211C59.1992 66.457 59.4531 65.1797 59.4531 63.7891C59.4531 62.4062 59.1992 61.1406 58.6914 59.9922C58.1836 58.8438 57.4688 57.8594 56.5469 57.0391C55.6328 56.2109 54.5312 55.5703 53.2422 55.1172C51.9531 54.6641 50.5312 54.4375 48.9766 54.4375C47.4141 54.4375 45.9883 54.6641 44.6992 55.1172C43.418 55.5703 42.3164 56.2109 41.3945 57.0391C40.4805 57.8594 39.7695 58.8438 39.2617 59.9922ZM42.7188 66.3438C42.3828 65.5859 42.2148 64.7344 42.2148 63.7891C42.2148 62.8438 42.3828 61.9961 42.7188 61.2461C43.0625 60.4961 43.5352 59.8633 44.1367 59.3477C44.7461 58.8242 45.4609 58.4258 46.2812 58.1523C47.1094 57.8789 48.0078 57.7422 48.9766 57.7422C49.9453 57.7422 50.8398 57.8789 51.6602 58.1523C52.4883 58.4258 53.2031 58.8242 53.8047 59.3477C54.4062 59.8633 54.8789 60.4961 55.2227 61.2461C55.5664 61.9961 55.7383 62.8438 55.7383 63.7891C55.7383 64.7344 55.5664 65.5859 55.2227 66.3438C54.8789 67.1016 54.4062 67.75 53.8047 68.2891C53.2031 68.8203 52.4883 69.2305 51.6602 69.5195C50.8398 69.8086 49.9453 69.9531 48.9766 69.9531C48.0078 69.9531 47.1094 69.8086 46.2812 69.5195C45.4609 69.2305 44.7461 68.8203 44.1367 68.2891C43.5352 67.75 43.0625 67.1016 42.7188 66.3438ZM63.0508 60.0625C62.5664 61.1797 62.3242 62.3828 62.3242 63.6719C62.3242 64.9922 62.5703 66.2344 63.0625 67.3984C63.5625 68.5625 64.2812 69.5781 65.2188 70.4453C66.1562 71.3125 67.2969 71.9961 68.6406 72.4961C69.9922 72.9961 71.5195 73.2461 73.2227 73.2461C74.4414 73.2461 75.5625 73.1172 76.5859 72.8594C77.6094 72.5938 78.5234 72.2266 79.3281 71.7578C80.1328 71.2812 80.8242 70.7148 81.4023 70.0586C81.9805 69.4023 82.4336 68.6836 82.7617 67.9023C83.0977 67.1133 83.3008 66.2773 83.3711 65.3945C83.4492 64.5039 83.3906 63.5898 83.1953 62.6523L83.1836 62.6641V62.6523H73.4453V65.7109H79.8438C79.7344 66.3594 79.5078 66.9453 79.1641 67.4688C78.8203 67.9844 78.375 68.4258 77.8281 68.793C77.2812 69.1602 76.6406 69.4453 75.9062 69.6484C75.1719 69.8438 74.3633 69.9414 73.4805 69.9414C72.3711 69.9414 71.3672 69.7891 70.4688 69.4844C69.5703 69.1719 68.8047 68.7422 68.1719 68.1953C67.5391 67.6484 67.0508 66.9961 66.707 66.2383C66.3633 65.4805 66.1914 64.6484 66.1914 63.7422C66.1914 62.8672 66.3555 62.0625 66.6836 61.3281C67.0117 60.5938 67.4883 59.9648 68.1133 59.4414C68.7383 58.9102 69.5039 58.5 70.4102 58.2109C71.3164 57.9141 72.3477 57.7656 73.5039 57.7656C74.0039 57.7656 74.5 57.793 74.9922 57.8477C75.4922 57.9023 75.9727 57.9844 76.4336 58.0938C76.9023 58.1953 77.3398 58.3242 77.7461 58.4805C78.1523 58.6289 78.5156 58.7969 78.8359 58.9844L80.5469 56.1719C80.0156 55.875 79.4531 55.6211 78.8594 55.4102C78.2734 55.1914 77.668 55.0117 77.043 54.8711C76.4258 54.7305 75.7969 54.6289 75.1562 54.5664C74.5234 54.4961 73.8906 54.4609 73.2578 54.4609C71.5078 54.4609 69.9531 54.6992 68.5938 55.1758C67.2422 55.6523 66.1016 56.3047 65.1719 57.1328C64.2422 57.9609 63.5352 58.9375 63.0508 60.0625ZM87.2617 59.9922C86.7539 61.1406 86.5 62.4062 86.5 63.7891C86.5 65.1797 86.7539 66.457 87.2617 67.6211C87.7695 68.7773 88.4805 69.7734 89.3945 70.6094C90.3164 71.4453 91.418 72.0977 92.6992 72.5664C93.9883 73.0273 95.4141 73.2578 96.9766 73.2578C98.5312 73.2578 99.9531 73.0273 101.242 72.5664C102.531 72.0977 103.633 71.4453 104.547 70.6094C105.469 69.7734 106.184 68.7773 106.691 67.6211C107.199 66.457 107.453 65.1797 107.453 63.7891C107.453 62.4062 107.199 61.1406 106.691 59.9922C106.184 58.8438 105.469 57.8594 104.547 57.0391C103.633 56.2109 102.531 55.5703 101.242 55.1172C99.9531 54.6641 98.5312 54.4375 96.9766 54.4375C95.4141 54.4375 93.9883 54.6641 92.6992 55.1172C91.418 55.5703 90.3164 56.2109 89.3945 57.0391C88.4805 57.8594 87.7695 58.8438 87.2617 59.9922ZM90.7188 66.3438C90.3828 65.5859 90.2148 64.7344 90.2148 63.7891C90.2148 62.8438 90.3828 61.9961 90.7188 61.2461C91.0625 60.4961 91.5352 59.8633 92.1367 59.3477C92.7461 58.8242 93.4609 58.4258 94.2812 58.1523C95.1094 57.8789 96.0078 57.7422 96.9766 57.7422C97.9453 57.7422 98.8398 57.8789 99.6602 58.1523C100.488 58.4258 101.203 58.8242 101.805 59.3477C102.406 59.8633 102.879 60.4961 103.223 61.2461C103.566 61.9961 103.738 62.8438 103.738 63.7891C103.738 64.7344 103.566 65.5859 103.223 66.3438C102.879 67.1016 102.406 67.75 101.805 68.2891C101.203 68.8203 100.488 69.2305 99.6602 69.5195C98.8398 69.8086 97.9453 69.9531 96.9766 69.9531C96.0078 69.9531 95.1094 69.8086 94.2812 69.5195C93.4609 69.2305 92.7461 68.8203 92.1367 68.2891C91.5352 67.75 91.0625 67.1016 90.7188 66.3438Z" fill="#1A1A1A"/>
</svg>
