<?xml version="1.0" encoding="utf-8"?>
<!-- Generator: Adobe Adobe Illustrator 29.2.0, SVG Export Plug-In . SVG Version: 6.00 Build 0)  -->
<svg version="1.1" id="Layer_1" xmlns="http://www.w3.org/2000/svg" xmlns:xlink="http://www.w3.org/1999/xlink" x="0px" y="0px"
	 width="1441px" height="715px" viewBox="0 0 1441 715" style="enable-background:new 0 0 1441 715;" xml:space="preserve">
<style type="text/css">
	.st0{fill:#3B4A4A;stroke:#111818;stroke-width:2;stroke-linecap:round;stroke-linejoin:round;}
	.st1{fill:#72D5FF;stroke:#111818;stroke-width:2;stroke-linecap:round;stroke-linejoin:round;}
	.st2{fill:#3B4A4A;}
	.st3{fill:none;stroke:#111818;stroke-width:2;stroke-linecap:round;stroke-linejoin:round;}
</style>
<path class="st0" d="M984.1,218.1l1.2,1.5l-2.4,0.7l-2,0.9l-4.9,0.7l-4.4,1.1l-2,2.3l1.6,2.2l1.2,2.7l-1.7,2.2l0.7,2.1l-0.8,1.9
	l-4.3-0.2l2.6,3.5l-2.6,1.4l-1.2,3.2l0.9,3.2l-1.5,1.5l-1.7-0.5l-3.3,0.8l-0.2,1.4h-3.4l-1.9,3.1l0.7,4.5l-5.5,2.2l-3.2-0.5
	l-0.8,1.2l-2.8-0.7l-4.4,0.8l-8-2.7l3.2-4.8l-0.9-3.4l-3.6-0.9l-1-3.4l-2.2-4.2l1.3-2.9l-2.1-0.8l0.4-3.9l0.5-6.7l4.9,2.1l3.2-0.8
	l0.3-2.4l3.3-0.8l2.2-1.7l-0.2-4.2l3.5-1.1l0.2-1.8l2.4,1.4l1.3,0.2h2.5l3.6,1.2l1.5,0.6l2.8-1.7l1.7,1l0.7-2.4l2.7,0.1l0.5-0.7
	l-0.2-2.2l1.4-1.8l2.7,1.2l-0.1,1.7l1.4,0.2l0.7,4.5l2.2,1.8l1.2-1.2l1.8-0.5l2.1-2.4l3.2,0.4H984.1z"/>
<path class="st0" d="M766.1,476.6l0.5,1.7l-0.6,2.6l0.8,2.5l-0.8,2l0.3,1.8l-9.7-0.1l-0.7,17.1l3,4.3l3,3.3l-8.7,2.2l-11.2-0.8
	l-3.2-2.5l-18.9,0.2l-0.7,0.4l-2.7-2.4l-3-0.2l-2.8,0.9l-2.2,1l-0.4-3.3l0.7-4.7l1.7-4.9l0.2-2.2l1.6-4.8l1.2-2.2l2.7-3.5l1.6-2.4
	l0.5-3.9l-0.2-3.1l-1.3-1.9l-1.2-3.2l-1.1-3.2l0.2-1.2l1.4-2.1l-1.3-5.2l-1-3.6l-2.3-3.4l0.5-1l1.9-0.8l1.4,0.1l1.7-0.6l13.9,0.1
	l1.1,3.9l1.3,3.2l1.1,1.7l1.7,2.7l3.2-0.4l1.5-0.8l2.6,0.8l0.7-1.3l1.2-3.1l2.9-0.2l0.2-0.9h2.4l-0.4,1.9l5.7-0.1l0.1,3.4l0.9,2
	l-0.7,3.2l0.3,3.3l1.5,2l-0.3,6.3l1.2-0.5l2,0.2l2.9-0.8L766.1,476.6z"/>
<path class="st0" d="M711.3,449.1l-1.2-4l1.9-2.3l1.4-0.9l1.7,1.8l-1.7,1.2l-0.8,1.3l-0.2,2.3L711.3,449.1z"/>
<path class="st0" d="M738.5,190.1l0.3,1l1.2-0.5l1,1.4l1.1,0.6l0.5,1.9l-0.4,1.8l0.8,2.2l1.9,1.2l0.1,1.4l-1.4,0.7l-0.1,1.7
	l-1.8,2.6l-0.8-0.3l-0.2-1.2l-2.6-1.8l-0.6-2.5l0.1-3.7l0.4-1.6l-0.7-0.8l-0.4-1.8L738.5,190.1z"/>
<path class="st0" d="M911.8,280.6l1.1,4.2h-2.3v3.5l0.9,0.8l-2,1.1l0.2,2.2l-1.1,2.2v2.2l-0.8,1.2l-14.1-2.7l-2.2-5.5l-0.2-1.2
	l0.7-0.3l0.3,1.5l3.5-0.8l3.8,0.2l2.8,0.2l2.7-3.7l3.1-3.4l2.5-3.3L911.8,280.6z"/>
<path class="st0" d="M389.7,709.6l-2.5-0.2H383l-5-11.3l2.6,2.3l3.6,3.8l6.5,3.1l6.1,1.2l-0.7,2.5l-3.7,0.2L389.7,709.6z"/>
<path class="st0" d="M364.3,537.2l9.4,8.7l3.8,0.8l6.1,4l4.9,2.1l0.9,2.3l-3.5,8.2l4.8,1.4l5.2,0.8l3.5-0.8l3.6-4.2l0.2-4.7l2.2-1.1
	l2.7,3.2l0.3,4.2l-3.5,2.9l-2.7,2.2l-4.4,5.2l-5,7.2l-0.4,4.3l-0.3,5.5l1,5.3l-0.7,1.2l0.3,3.4l0.2,2.8l6.5,4.6l0.2,3.7l3.2,2.3
	l0.2,2.6l-2.7,6.8l-5.8,2.9l-8.5,1.1l-5-0.6l1.7,3.2l0.1,3.9l1.5,2.7l-2.1,1.9l-4.2,0.8l-4.7-2l-1.2,1.4l2.1,5.2l3.3,1.6l1.9-1.7
	l2.1,2.7l-3.5,1.7l-2.4,3.3l1,5.2l-0.1,2.8h-4l-2.5,2.7l0.1,4l5.4,3.8l4.3,1l0.2,4.7l-3.8,2.9l-0.5,6.1l-2.9,2l-0.7,2.4l3.5,5.4
	l3.8,2.9l-1.7-0.2l-4.1-0.8l-10.1-0.7l-2.9-3L359,688l-2.6,0.3l-2.2-1.9l-2.6-5.4l2.2-2.3l0.1-3.2l-1.5-2.7l0.6-4.5l-0.9-6.9
	l-1.5-3.1l1.5-1l-1.2-2l-2.3-1l0.7-2.2l-2.6-2l-3.1-6.1l1.4-1.1l-2.7-6.5l-0.7-5.4l-0.2-4.7l2.1-1.9l-2.7-5.2l-1.3-4.8l2.5-3.5
	l-1.2-4.5l1.3-5.2l-1.2-4.9l-1.3-1l-4.1-9.2l1.7-5.5l-1.4-5.2l0.7-4.9l2.2-5l2.7-3.3l-1.7-2.1l0.7-1.7l-1.3-8.9l4.7-2.6l1-5.6
	l-0.8-1.3l3.3-4.8l6.2,1.3l3.1,3.8l1.3-4.3l5.3,0.2L364.3,537.2z"/>
<path class="st0" d="M857.4,210.9l-1.5,0.2l-2.3-3.1l-0.2-0.8h-1.9l-1.6-1.4l-0.8,0.1l-2-1.5l-3.5-1.3l-0.1-2.6l-1.1-1.8l5.8-0.8
	l1.2,1.3l1.8,0.9l-0.6,1.3l2.7,1.8l-0.9,1.7l2.2,1.4l2.1,0.8L857.4,210.9z"/>
<path class="st0" d="M1283.9,636.2l3.1,1.8l2.7-0.7l4.1-1l2.3,0.3l-3.7,6.3l-2.8,1.7l-3.3,4.3l-0.5-1.5l-5.5,3.7l-0.7-0.2l-2.5-0.2
	l0.4-4.5l1.7-3.5l0.5-4.7l1.7-2.4L1283.9,636.2z"/>
<path class="st0" d="M1325.9,491.8l1,4.2l3.3-2l1.2,2.2l1.9,2.1l-0.9,2.4l0.2,4.6l0.2,2.7l1.1,0.7l0.3,4.6l-1,2.7l0.7,3.6l4.5,2.8
	l2.7,2.5l2.7,2.3l-0.9,1.3l1.9,3.3l0.4,5.8l2.2-1.2l1.2,2.2l1.3-0.8l-0.6,5.7l2.4,3.2l1.6,2l2.3,4.3v4.3l-0.8,3.1l-1.5,3.2l0.6,4.6
	l-2.1,4.7l-1.8,2.5l-3.2,4.7l-1.2,3.1l-2.6,3.8l-4.2,4.8l-4.6,2.7l-3.7,4.1l-2.8,2.7l-3.7,4.6l-3.1,2.7l-3.2,4l-2.6,3.7l-0.7,1.7
	l-3.6,1.8l-5.1,0.2l-5.2,2.2l-3.2,2l-4,2.3l-2.2-2.4l-2.2-0.9l2.2-2.7l-2.9,1l-6,3.8l-3-1.4l-2-0.8l-2.3-0.4l-3.4-1.5l-1.1-3.3
	l1.2-4l0.3-2.7l-1.2-2.2l-3.9-0.6l2.7-2.7l0.8-3.9l-3.9,3.7l-4.4,1l3.8-2.9l2.1-3.1l2.9-2.7l1.3-3.9l-5.7,4.5l-3.6,1.8l-3.6,4.2
	l-2.5-2.2l1.4-2.8l-1.2-3.9l-1.5-2l1.3-1.2l-4.4-3.2l-3.2-0.1l-3.3-2.7l-8.2,0.5l-6.6,1.9l-5.7,1.8l-4.2-0.3l-5.8,2.7l-4.4,1.2
	l-1.9,2.8l-2.5,2.2l-3.9,0.2l-3,0.4l-3.5-0.9l-3.5,0.6l-3.2,0.2l-3.8,2.8l-1.2-0.2l-2.8,1.5l-2.8,1.7l-3.2-0.2h-2.9l-3.4-3.4l-2-1
	l1.2-3.1l2.4-0.8l1.2-1.2l0.5-1.9l1.9-3.7l0.6-3.2l-0.6-5.4l0.2-3.1l1.2-3l-0.8-3.5l0.2-1.6l-1.4-2.2l0.6-4.2l-1.6-4.2l-0.1-2.2
	l1.5,2.3l-0.4-5l1.9,1.6l0.9,2.1l0.5-2.7l-1.3-4.2l-0.1-1.7l-0.7-1.6l1.1-3.1l1.2-1.3l1.1-2.7l0.1-3.2l2.6-3.8l-0.3,4.1l2.6-3.7
	l4.1-1.8l2.7-2.2l3.9-2l2.2-0.4l1.2,0.7l4-2l2.9-0.6l0.9-1.2l1.2-0.5l2.6,0.2l5.2-1.6l2.9-2.4l1.7-2.8l3.2-2.7l0.6-2.2l0.6-2.9
	l4.1-4.6l1.2,4.7l2.2-1.1l-1.2-2.5l1.9-2.6l1.8,1.2l1.2-4.1l2.9-2.7l1.5-2.1l2.4-0.9l0.3-1.5l1.9,0.6l0.3-1.3l2.2-0.8l2.3-0.8
	l3.1,2.5l2.2,3.2h2.9l2.9,0.5l-0.6-2.9l2.9-4.2l2.2-1.4l-0.5-1.3l2.4-3.1l3.1-1.9l2.2,0.7l4.1-1l0.2-2.7l-3.2-1.7l2.6-0.8l3,1.3
	l2.2,2.2l3.8,1.3l1.4-0.5l2.8,1.7l2.9-1.6l1.7,0.5l1.2-1.1l1.8,2.7l-1.7,2.9l-2.1,2.2l-1.6,0.2l0.2,2.1l-1.8,2.7l-2.1,2.7l0.2,1.5
	l3.2,3l3.3,1.7l2.1,1.8l2.8,3.2h1.3l2.2,1.4l0.4,1.7l4.1,1.7l3.4-1.8l1.5-2.8l1.4-2.4l1.1-2.9l2.2-4.2l-0.2-2.6l0.6-1.6l-0.1-3
	l1.2-4.1l1.1-1.1l-0.5-1.7l1.5-2.8l1.2-2.9l0.3-1.6l1.9-2l1.1,2.7l-0.1,3.3l1.1,0.7l-0.1,2.2l1.3,2.7l-0.1,3.1L1325.9,491.8z"/>
<path class="st0" d="M724,159.1l-0.2,0.7l0.6,1.7l-0.2,2.2h-2.3l0.9,1.2l-1.1,3.3l-0.7,0.9l-3.7,0.1l-2,1.2l-3.5-0.4l-6.1-1.4
	l-1.1-1.7l-4.1,0.9l-0.4,1l-2.6-0.8l-2.2-0.2l-1.9-1l0.6-1.2l-0.2-0.9l1.2-0.2l2.2,1.4l0.5-1.4l3.7,0.2l2.9-0.9l2,0.2l1.4,1.1
	l0.3-0.9l-0.8-3.4l1.4-0.7l1.3-2.4l3.2,1.8l2.2-2.2l1.4-0.4l3.3,1.6l1.9-0.2L724,159.1z"/>
<path class="st0" d="M855.9,211.1l-3.2-0.8l-2.7-2.4l-1-2.1l0.8-0.1l1.6,1.4h1.9l0.2,0.8L855.9,211.1z"/>
<path class="st0" d="M861.1,196.9l2.1-2.2l2.9,2.7l3,3.8l2.1,0.2l1.6,1.4l-3.5,0.4l0.1,4.2l-0.3,1.8l-1.4,1.2l0.7,2.6l-1.1,0.3
	l-3.2-2.8l1-2.6l-1.6-1.6l-1.6,0.4l-4.4,3.9l-0.7-3.7l-2.1-0.8l-2.2-1.4l0.9-1.7l-2.7-1.8l0.6-1.3l-1.8-0.9l-1.2-1.3l0.9-0.9
	l3.5,1.6l2.4,0.2l0.5-0.6l-2.7-2.9l1-0.7l1.2,0.2l3.6,3.2l2,0.4L861.1,196.9z"/>
<path class="st0" d="M794.2,442l-0.5,0.1v-0.2l-1.7-5.1l0-0.1l-0.1-0.9l-1.2-2.4l2.9,0.4l1.4-3.1l2.6,0.3l0.2,2.1l1,1.2v1.7
	l-1.2,1.1l-1.9,2.8L794.2,442z"/>
<path class="st0" d="M678.9,147.7l-0.3,3.5l-1.1,0.2l-0.3,2.9l-3.7-2.4l-2.1,0.4l-2.9-2.4l-2-2.1l-1.8-0.1l-0.7-1.8l3.2-1l3,0.4
	l3.7-1.1l2.6,2.2L678.9,147.7z"/>
<path class="st0" d="M670.8,355.8l-0.2,1.7l1.1,3.2l-0.9,2.2l0.5,1.4l-2.3,3.3l-1.4,1.7l-0.9,3.3l0.2,3.4l-0.2,8.6l-3.9,0.7
	l-1.2-3.7l0.2-12.3l-1-1.1l-0.2-2.7l-1.7-1.8l-1.4-1.6l0.6-2.8l1.7-0.6l0.9-2.3l2.3-0.5l1-1.6l1.6-1.6h1.7L670.8,355.8z"/>
<path class="st0" d="M655.6,338.3l-0.4,2.6l0.7,2.4l2.6,3.5l0.2,2.6l5.4,1.2l-0.1,3.7l-1,1.6l-2.3,0.5l-0.9,2.3l-1.7,0.6l-4.1-0.1
	l-2.2-0.4l-1.5,0.8l-2.1-0.4l-8.2,0.2l-0.2,3.1l0.7,4l-3.2-1.3l-2.2,0.2l-1.7,1.3l-2.1-1.1l-0.8-1.8l-2.1-1.2l-0.3-3.1l1.3-2.2
	l-0.2-1.8l3.7-4.4l0.7-3.7l1.2-1.3l2.2,0.8l2-1.1l0.7-1.4l3.6-2.3l0.9-1.7l4.4-2.2l2.6-0.7l1.2,1H655.6z"/>
<path class="st0" d="M1082,300.3l0.5,3.8l-1.8-0.8l0.9,4.3l-1.8-2.7l-0.7-2.7l-1.2-2.6l-2.3-3.1l-4.3-0.2l0.8,2.2l-1,2.9l-2.2-1.1
	l-0.5,1l-1.4-0.6l-1.8-0.5l-1.3-4.4l-2.2-4l0.2-3.2l-3.1-1.4l0.8-1.9l2.5-2l-3.8-2.8l1-3.7l4.1,2.3l2.2,0.2l1,3.7l4.5,0.8l4.2-0.1
	l2.8,0.9l-1.3,4.5l-2,0.3l-1,3l3,2.8l0.2-3.5h1.2L1082,300.3z"/>
<path class="st0" d="M775.6,184.7l-1.9,2.2l-1.1,3.7l1.7,3l-3.8-0.7l-4.2,1.7l0.2,2.7l-3.8,0.5l-3.2-1.9l-3.3,1.5l-3.2-0.2l-0.7-3.5
	l-2.3-1.7l0.6-0.7l-0.5-0.7l0.5-1.7l1.5-1.7l-2.3-2.2l-0.6-2l0.9-1.2l1.5,2.2l1.6-0.3l3.3,0.7l6.3,0.3l1.9-1.3l4.9-1.2l3.3,1.9
	L775.6,184.7z"/>
<path class="st0" d="M734.3,178.7l1.6-0.1l-0.9,2.3l2.2,2.1l-0.4,2.4l-0.9,0.2l-0.7,0.5l-1.3,1.2l-0.3,2.9l-4-2l-1.7-2.2l-1.7-1.2
	l-2.1-2l-1.1-1.6l-2.2-2.5l0.7-2.2l1.7,1.2l0.8-1.2l1.9-0.1l3.7,0.9l2.9-0.1L734.3,178.7z"/>
<path class="st0" d="M783.1,135.7l-3.2-0.2l-0.7,0.5l1.2,1.7l1.7,3.3l-3.4,0.2l-1.1,1.2l0.2,2.6l-1.7-0.5l-3.6,0.2l-1.2-1.2
	l-1.4,0.9l-1.6-0.7l-3.2-0.1l-4.7-1.2l-4.1-0.4l-3.2,0.2l-2,1.3l-1.9,0.2l-0.4-2.3l-1.6-2.3l2.3-1.1l-0.3-2l-1.4-1.9l-0.5-2.2h3.9
	l4-1.9l0.4-2.8l3-1.7l-0.8-2.2l2.2-0.8l3.8-1.9l4.4,1.2l0.7,1.2l2-0.6l4,1.2l0.9,2.4l-0.6,1.3l3.2,3.3l1.7,0.9v0.9l2.8,0.9l1.4,1.3
	L783.1,135.7z"/>
<path class="st0" d="M238.7,333.2h-1.4l1.1-6l0.6-4.2l0.1-0.8l0.6-0.2l0.7,0.7l2.1-3.2l0.9-0.1l-0.1,0.8h0.8l-0.2,1.5l-1.1,2.2
	l0.3,0.8l-0.8,1.9l0.2,0.5l-0.8,2.7l-1.1,1.4l-0.9,0.2L238.7,333.2z"/>
<path class="st0" d="M384.2,526.1l-0.2-1.7l-4.5-2.7l-4.3-0.1l-8,1.6l-1.7,4.7l0.2,2.9l-1.2,6.4l-0.8-1.2l-5.3-0.2l-1.3,4.3
	l-3.1-3.8l-6.2-1.3l-3.3,4.8l-3.2,0.7l-2.6-7.4l-3.1-6l0.9-5.2l-2.7-2.2l-1-3.8l-2.7-3.7l2.4-5.7l-2.4-4.5l0.9-1.8l-1-2l1.6-2.7
	l-0.2-4.5v-3.8l0.9-1.7l-4.6-8.7l3.5,0.5l2.4-0.2l0.9-1.6l4-2.2l2.4-2l6.1-0.9l-0.3,4l0.8,2.1l-0.2,3.6l5.4,4.7l5.3,0.9l1.9,2
	l3.2,1.1l2.1,1.5h2.9l2.8,1.6l0.4,3.1l1,1.6l0.2,2.2l-1.4,0.1l2.3,6.2l8.9,0.2l-0.4,3.1l0.7,2.1l2.7,1.5l1.4,3.3l-0.5,4.2l-1.1,2.3
	l0.7,3L384.2,526.1z"/>
<path class="st1" d="M386.9,408l2.6,0.5l0.5-1.2l-0.8-1l0.5-1.6l1.9,0.5l2.2-0.6l2.7,1.2l2.1,1.1l1.4-1.4l1.1,0.2l0.7,1.5l2.2-0.3
	l1.8-2.1l1.5-3.9l2.8-4.9l1.7-0.2l1.1,3l2.5,9.3l2.6,0.9l0.1,3.7l-3.6,4.4l1.4,1.6l8.4,0.8l0.2,5.4l3.6-3.5l5.9,1.9l7.9,3.2l2.3,3.1
	l-0.7,3l5.5-1.7l9.2,2.8l7.1-0.2l7,4.4l6.2,6l3.7,1.5l4,0.2l1.7,1.7l1.7,6.8l0.9,3.2l-1.7,8.8l-2.2,3.5l-6.4,7.4l-2.8,6.1l-3.3,4.6
	l-1.2,0.2l-1.1,3.9l0.7,10l-0.9,8.2l-0.2,3.5l-1.3,2.2l-0.4,7.2l-4.3,6.9l-0.4,5.6l-3.6,2.2l-0.9,3.2h-5l-7.1,2l-3.1,2.4l-5,1.6
	l-5.1,4.2l-3.4,5.3l-0.2,4l1.1,2.9l-0.2,5.4l-0.7,2.6l-2.8,3l-3.7,9.4l-3.3,4.2l-2.7,2.6l-1.2,5.1l-2.4,3l-1.7-3l1.5-2.6l-3.2-3.6
	l-4-3l-5.2-3.4l-1.6,0.2l-5.2-4.2l-2.8,0.6l5-7.2l4.4-5.2l2.7-2.2l3.5-2.9l-0.3-4.2l-2.7-3.2l-2.2,1.1l0.6-3.1l0.2-3.2l-0.2-3
	l-1.7-0.9l-1.7,0.8l-1.7-0.2l-0.7-2l-0.9-4.9l-1-1.6l-3.2-1.5l-1.8,1.1l-4.9-1.1l-0.3-7.2l-1.7-2.9l1.3-1.2l-0.7-3l1.1-2.3l0.5-4.2
	L385,512l-2.7-1.5l-0.7-2.1l0.4-3.1l-8.9-0.2l-2.3-6.2l1.4-0.1l-0.2-2.2l-1-1.6l-0.4-3.1l-2.8-1.6h-2.9l-2.1-1.5l-3.2-1.1l-1.9-2
	l-5.3-0.9l-5.4-4.7l0.2-3.6l-0.8-2.1l0.3-4l-6.1,0.9l-2.4,2l-4,2.2l-0.9,1.6l-2.4,0.2l-3.5-0.5l-2.7,0.9l-2.2-0.6l-0.1-8.1l-3.7,3.1
	l-4.2-0.1l-1.9-2.9l-3.2-0.2l0.8-2.3l-2.7-3.2l-2.2-4.8l1.2-0.9l-0.2-2.3l2.8-1.5l-0.6-2.9l1.2-1.8l0.2-2.5l5.2-3.7l3.8-1l0.7-0.8
	l4.2,0.2l1.8-14.7l0.1-2.3l-0.7-3l-2.2-2l0.1-3.9l2.7-0.8l0.9,0.6l0.2-2.1l-2.7-0.6V409l9.2,0.2l1.6-1.9l1.3,1.7l0.8,3.2l0.9-0.7
	l2.6,2.8l3.7-0.3l0.9-1.7l3.5-1.2l2-0.9l0.6-2.2l3.4-1.5l-0.2-1.2l-4-0.4l-0.6-3.4l0.2-3.6l-2.1-1.3l0.9-0.5l3.4,0.7l3.7,1.3
	l1.4-1.2l3.4-0.8l5.3-2l1.7-2.1l-0.6-1.5l2.5-0.2l1,1.2l-0.7,2.4l1.7,0.8l1,2.5l-1.3,1.9l-0.8,4.5l1.2,2.7l0.2,2.5l2.9,2.5l2.3,0.2
	l0.5-1.1l1.5-0.2l2.2-0.9l1.5-1.4l2.7,0.5L386.9,408z"/>
<path class="st0" d="M1192.4,394l1.8-2l3.8-3l-0.1,2.7l-0.1,3.4l-2.2-0.2l-0.9,1.8L1192.4,394z"/>
<path class="st0" d="M1072.2,269.6l2.2,1.7l0.4,3.2l-3.8,0.2l-3.9-0.3l-2.7,0.8l-4.6-2.1l-0.3-1l2.2-4l2.2-1.3l3.6,1.2l2.4,0.2
	L1072.2,269.6z"/>
<path class="st0" d="M771.5,513l1.6,4.2l0.9,1l1.3,3.1l5.1,5.8l1.9,0.6l-0.1,1.9l1.2,3.4l3.6,0.8l2.8,2.4l-6.7,3.9l-4.3,4l-1.7,3.6
	l-1.5,2l-2.5,0.4l-1,2.6l-0.5,1.7l-3,1.2l-3.7-0.2l-2.1-1.5l-1.9-0.6l-2.3,1.2l-1.2,2.6l-2.2,1.6l-2.3,2.4l-3.3,0.6l-0.9-1.9
	l0.5-3.2l-2.5-5.1l-1.2-0.8l0.5-15.6l4.6-0.2l0.7-19.1l3.5-0.2l7.2-1.9l1.7,2.2l3.1-2.1h1.4l2.7-1.2L771.5,513z"/>
<path class="st0" d="M766.2,372.1l3.2,2.1l2.6,2.2l0.1,1.7l3.2,2.7l2,2.3l1.2,3.2l3.6,2.2l0.8,1.7l-1.5,0.6l-3.1-0.1l-3.5-0.6
	l-1.7,0.4l-0.8,1.3l-1.5,0.2l-1.8-1.2l-5.2,2.7l-2.2-0.5l-0.7,0.4l-1.3,3.2l-3.6-1.1l-3.4-0.5l-3-2l-3.9-1.8l-2.5,1.7l-1.8,2.7
	l-0.4,3.7l-3-0.2l-3.2-0.9l-2.7,2.8l-2.5,5l-0.5-1.6l-0.2-2.4l-2.2-1.7l-1.7-2.7l-0.4-1.9l-2.2-2.8l0.4-1.6L722,389l0.3-4.2l1.2-0.9
	l2.3-5.4l3.8-0.4l0.8-1.4l0.8,0.2l1.2,1.2l5.9-2l2-2.1l2.4-1.9l-0.5-1.8l1.3-0.5l4.6,0.3l4.3-2.5l3.3-5.8l2.3-2.2l3-0.9l0.6,2.2
	l2.7,3.3v2.2l-0.7,2.2l0.3,1.7l1.6,1.6L766.2,372.1z"/>
<path class="st0" d="M387,169.8l2.8,0.8l3.9-0.2l-2.7,2.2l-1.7,0.3l-4.6-2.2l-0.5-1.7l2.1-1.6L387,169.8z"/>
<path class="st0" d="M399,156.4l-2,0.1l-4.8-1.6l-2.9-2.5l1.6-0.4l4.9,1.3l3.5,2.2L399,156.4z"/>
<path class="st0" d="M142.6,159.5l-2.6,0.8l-5.2-2.3v-1.8l-2.4-1.8l0.2-1.5l-3.6-0.9l0.5-2.8l1.2-1.2l3.4,1.1l2,0.8l3.4,0.5l0.2,1.8
	l0.3,2.4l2.7,2.2L142.6,159.5z"/>
<path class="st0" d="M425,148.3l-4.2,4.5l3.2-1.7l2.4,1.2l-2,1.8l3.2,1.4l2.3-1.2l3.6,1.6l-2.3,3.8l3.2-0.9l-0.2,2.7l0.4,3.2l-3,4.7
	l-2,0.2l-2.4-1l2.1-4.2l-1-0.7l-6.1,4.5l-2.5-0.2l3.7-2.5l-3.7-1.2l-4.6,0.3l-8-0.2l-0.2-1.5l3.2-1.9l-1.4-1.3l4.5-3.2l6.8-8.2
	l3.5-2.9l4.2-1.7l1.7,0.2l-1.2,1.4L425,148.3z"/>
<path class="st0" d="M125.2,130.4l1.2,0.7l4.2-0.4l-6,5.7l0.2,4.2h-1.6l-0.6-2.3l0.4-2.4l-0.7-1.6l1.1-2.2L125.2,130.4z"/>
<path class="st0" d="M361.2,90.9l-3,2.5l-1.4-0.4l-0.1-1.4l0.3-0.3l2.3-1.4l1.4,0.1L361.2,90.9z"/>
<path class="st0" d="M353.1,88.2l-6,2.7l-2.5-0.2v-1.2l4.2-2.2l5,0.1L353.1,88.2z"/>
<path class="st0" d="M350.5,74.2l-0.8,2.1l2.2-0.7l1.2,1.2l2.9,1.7l3.2,1.4l-1.2,2.2l2.9-0.3l1.6,1.6l-4.2,1.5l-4.9-1.2l-0.7-2.2
	l-5.2,2.6l-6.8,2.4l0.6-2.7l-5.2,0.4l4.7-2.3l3-3.7l4.2-4.2L350.5,74.2z"/>
<path class="st0" d="M387.9,67.3l-4.1,0.2l0.6-2.2l3.2-2.6l3.6-0.6l1.9,1.2l-1.2,1.9l-0.7,0.7L387.9,67.3z"/>
<path class="st0" d="M325.9,58.4l-3.4,1.6l-3.5-1.3l-3.2,0.4l-2.8-2l4.2-1.4l4.1-1.9l2.5,1.2l1.3,0.8l0.3,0.8L325.9,58.4z"/>
<path class="st0" d="M370,177.2l-1.8-3l2.4-7.1l-1.3-1.5l-3.1,0.8l-0.9-1.3l-4.6,3.9l-2.7,4.1l-2.3,2.4l-2.1,0.8l-1.4,0.2l-0.9,1.2
	h-7.7l-6.5,0.1l-2.2,0.9l-5.7,3.7v-0.1l-0.8-0.3l-1.7,0.7l-1.6,1.1l-1.5-0.9l-3.9,0.7l-3.2,0.8l-1.6,0.7l-1.9,1.8l1.5,0.6l1.4-0.3
	h0.2l-0.2,1.6l-4,0.6l-2.3,0.7l-1.4,0.8l-2.2-0.5l-1.3,0.2l-2.4,1.5l-3.8,1.7l-2.2-0.3l1.7-1.8l3.1-2.9l3.4-1.7l0.9-1.5l0.8-2.5
	l3.2-2.9l0.7-3.3l0.9,3.2l3.2,0.8l2-1.8l-1.2-4l-0.7-1.7l-3.3-1l-3.2-0.6h-3.2l-2.8-0.7l-0.3-1.2l-1.2,0.8l-1-0.2l1.6-1.7l-1.5-0.7
	l1.6-2l-1-1.5l1.4-1.5l-4.3-0.7l-0.1-3l-0.7-0.7l-2.7-0.2l-3.4-1l-1.2,0.7l-1.5,1.2l-2.7,0.8l-2.6,2.1l-4.5-1.4l-3.7,0.7l-3.2-1.6
	l-3.8-0.8l-2.7-0.3l-0.8-0.8l0.7-2.8h-1.4l-1.1,2h-8.5h-14.2h-14h-12.4h-12.3h-12.2H175h-4h-12.2H147h-0.6l-4.5-5.1l-1.3-2.2
	l-5.8-2.2l1.1-4.6l3-3.1l-3.4-2.2l2.6-4.1l-1.7-3.7l2.1-2.7l4.2-2.4l2.7-3.2l-3.8-3.2l1.2-5.7l0.9-3.5l-1.3-2.2l-0.7-2l0.5-2.6
	l-5.4,1.6l-6.3,2.7l-0.2-3.2l-0.4-2.2l-2.3-1.3l-3.5-0.2l29.6-27.2l20.5-17l5,1.1l2.7,2.2l3.1,0.4l5.2-1.8l5.8-1.4l4.4,0.5l7.4-1.9
	l6.8-1.1l0.2,1.8l3.7-1.1l3.2-2.1l1.7,0.5l1.2,4l7.9-3.1l-3.2,3.4l5-0.7l2.7-1.2l3.8,0.2l3.2,1.8l6.2,1.7l3.9,0.7l3.7-0.2l2.4,2.3
	l-7.1,2.2l5.3,0.9l9.9-0.5l3.7-0.8l1.2,2.7l5.9-2.2l-1.7-2l3.7-1.5l4.3-0.2l3.2-0.4l1.7,1.1l1.2,2.4l4.2-0.3l4.4,2.1l6-0.7l5,0.1
	l2-2.8l3.7-0.7l4.1,1.5l-3.6,4.3l5.2-3.7l2.7,0.2l5.3-4.6l-1.3-2.7l-2.4-1.8l4.6-4.9l6.8-3.2l3.7,0.7l1.7,1.9l0.3,5l-4.8,2.2
	l5.6,0.9l-3.7,4.6l7.4-3.5l1.8,2.9l-3.6,3.3l1.1,3.1l6.1-3.2l5.4-4l3.9-4.9l4.6,0.3l4.5,0.7l3,2.2l-1.4,2.2l-4.2,2.4l0.7,2.4l-2,2.2
	l-9.1,3.2l-5.4,0.7l-2.7-1.4l-2.7,2.3l-6.2,3.9l-2.5,2.1l-6.4,3.2l-5.4,0.3l-4.2,2l-2.4,3.2l-4.7,0.6l-7.2,3.9l-7.8,5.4l-4.2,3.8
	l-4.1,5.7l5,0.8l-1.2,4.6l-0.7,3.8l6.1-1l5.8,2.2l2.7,1.9l1.4,2.3l4.1,1.4l3,2.1l6.3,0.3l4,0.5l-3,4.3l-1.4,5.1l0.1,5.7l3.7,4.9
	l3.9-1.7l4.7-5.3l1.9-8l-1.4-2.7l7.5-2.4l6.2-3.5l4-3.5l1.4-3.3l-0.3-4.2l-2.7-3.7l7.4-5.2l0.8-4.4l3.2-7.5l3.2-1.2l5.6,1.3l3.5,0.5
	l3.7-1.3l2.6,1.7l3,2.8l0.2,1.8l6.4,0.4l-2.2,4.1l-1.9,6.2l3.2,0.8l1.3,2.9l6.8-2.7l6.2-5.5l3.5-2.2l0.9,4.4l2.2,6.2l1.7,6l-2.8,3.2
	l4,2.8l2.4,2.8l5.7,1.3l2,1.6v4.3l2.8,0.7l0.9,1.9l-1.7,5.7l-3.6,1.9l-3.5,1.8l-7.3,1.8l-6.6,4.2l-7.2,0.9l-8.4-1.2h-6.1l-4.4,0.3
	l-4.7,3.7l-6.2,2.3l-8.4,6.8l-6.6,4.8l3.9-0.8l9.1-6.9l10.2-4.3l6.3-0.5l2.7,2.6l-5.1,3.5l-0.5,5.6l0.1,4l4.7,2.6l7.2-0.7l6-5.9
	l-0.8,3.8l2.1,1.9l-6.2,3.4l-10.3,3.2l-4.8,2.1l-6,3.8l-3.1-0.4l1.2-4.4l8.7-4.4l-6.7,0.2L370,177.2z"/>
<path class="st0" d="M281.4,40.7l-3.9,2l8.7-1.2l2.2,2.2l6.1-2.2l1.5,1.4l-1.8,4.2l3.6-1.7l2.3-4.4l3.6-0.7l2.5,0.7l1.8,1.7
	l-2.2,4.2l-2,3.1l3.5,2.2l4.2,2.2l-2.2,1.9l-5.9,0.4l0.7,1.7l-2.7,1.7l-5.6-0.7l-4.7-1.2l-4.2,0.2l-7.9,1.6l-9.4,0.7l-6.6,0.4
	l0.2-2.2l-3.4-1.2l-3.6,0.5l-0.5-3.6l2.7-0.5l6.1-0.7l4.6,0.2l5.2-0.8l-5.4-1l-7.6,0.3l-4.7-0.1v-1.6l9.7-1.8l-5.2,0.1l-4.5-1.2
	l6.5-3.2l4.3-1.7l11.8-2.6L281.4,40.7z"/>
<path class="st0" d="M314.2,39.5l-5.8,2.8l-1.9-3l1.7-0.7l4.6-0.2L314.2,39.5z"/>
<path class="st0" d="M404.7,40.8l-0.6,1.2l-3.4-0.1l-3.4-0.1l-4.1,0.6l-0.7-0.3l-1.7-2.2l1.4-1.5l1.8-0.3l7,0.5L404.7,40.8z"/>
<path class="st0" d="M371.5,40.6l0.2,2.7l6-3.4l9.7-1.7l1.9,4.4l-2.7,2.8l7.5-1.2l4.4-1.7l5.7,2.2l3.1,2.1l-0.9,1.9l6.8-1l1.6,2.8
	l7,1.7l1.8,1.7l0.7,4.2l-7.6,2.1l6.4,3l4.9,1l2.7,4.2l5.4,0.3l-2.7,3.2l-9.1,5.4l-3.3-2l-3.2-4.5l-4.9,0.6l-1.9,2.7l2.2,2.7l3.7,2.2
	l0.8,1.2L418,85l-3,3.4l-3.9-1.3l-7.2-3.7l3,4.1l2.3,2.9L409,92l-9.1-1.9l-6.3-2.8l-3.2-2.2l2-1.4l-4-2.4l-3.9-2.2l-0.8,1.3
	L372.9,81l-2-1.6l4.5-3.5l6.7-0.1l7.7-0.6l-0.2-1.7l2.6-2.3l7.3-4.5l0.3-2.1l-0.4-1.5l-3.9-2.2l-5.9-1.5l2.9-1.2l-1.7-2.8l-2.8-0.2
	l-1.6-1.5l-2.7,1.3l-6.6,0.6l-11.7-1l-6.2-1.3l-4.9-0.7l-1.6-1.6l5.2-2h-4.7l2.7-4.4l5.9-3.8l5-1.7l9.3-1.2L371.5,40.6z"/>
<path class="st0" d="M329.6,37.6l3,0.9l6.3-0.6l-0.4,1.2l-5.1,2.1l3.2,1.8l-4.3,3.9l-7,1.7l-2.8-0.3l-0.7-1.7l-4.9-3.3l1.4-1.4
	l6.2,0.5l-0.7-2.7L329.6,37.6z"/>
<path class="st0" d="M348.4,42.2l-6.5,3.2l-3.7-0.2l1.5-3.8l2.2-2.1l3.5-1.8l4.3-1.2l6.6,0.2l5.2,1l-8.4,3.8L348.4,42.2z"/>
<path class="st0" d="M252,48.2l-11.2,2.2l0.5-1.9l-5-2.3l3.7-1.8l6.2-3.2l6.3-2.8l0.3-2.6l11.7-0.7l3.5,0.9l7.9,0.2l1.6,1.2l1.3,1.8
	l-5.4,1.1l-11.6,3l-7.7,3.1L252,48.2z"/>
<path class="st0" d="M356.2,32.9l-3.4,1.6l-4.3-0.3l-2.7-1.1l3.7-1.8l5.7-1.2l1.2,1.5L356.2,32.9z"/>
<path class="st0" d="M348.9,25.7l0.2,1.9l-2.3,2.1l-4.8,3.2l-5.7,0.4l-2.7-0.7l2.8-2.4l-5.5,0.2l3.6-3.2l3.2,0.2L344,26l4.1,0.2
	L348.9,25.7z"/>
<path class="st0" d="M316.1,27.8l-0.6,1.4l3.7-0.7l3,0.2l-1.9,2.1l-4.2,1.9l-11.6,0.7l-10.2,1.8l-5,0.1l1.2-1.3l8.9-1.9l-14.9,0.5
	l-3.5-0.7l9.7-4l4.5-1.2l6.9,1.4l2.4,2.4l5.1,0.3l0.6-3.9l4.8-1.5l2.6,0.4L316.1,27.8z"/>
<path class="st0" d="M362.5,24.2l1.9,1.3h6.2l1.2,1.3l-2.3,1.5l2.6,0.9l1,1l4.1,0.2l4.2,0.3l5.9-0.8l6.7-0.4l4.8,0.3l1.9,1.6
	l-0.8,1.7l-3,1.2l-5.6,0.9l-3.6-0.6l-9.8,0.7l-6.7,0.1l-4.7-0.5l-7.2-1.3l1.3-2.3l1.7-2l-1.2-1.8l-5.8-0.5l-2.2-1.2l3.2-1.7
	L362.5,24.2z"/>
<path class="st0" d="M299.4,22l-4.8,3.1l-4.4,1.4l-3.2,0.2l-8.2,1.7l-5.9,0.7l-3-0.9l9.7-3.1l10.2-2.6l4.6,0.1L299.4,22z"/>
<path class="st0" d="M367,22.5l-1.5,0.1l-5.5-0.2l0.6-1.1l6,0.1l1.3,0.7L367,22.5z"/>
<path class="st0" d="M318.1,21.7l-7.3,1.2l-2.7-1.2l4.2-1.2l5-0.4l3.4,0.6L318.1,21.7z"/>
<path class="st0" d="M324.6,18.2l-4.7,0.7h-5l0.8-0.6l4.7-1.1l1.4,0.2L324.6,18.2z"/>
<path class="st0" d="M363.5,20.3l-5.5,0.8l-1.3-0.9l0.5-1.4l1.8-1.6l3.7,0.2l1.4,0.2L366,19L363.5,20.3z"/>
<path class="st0" d="M352,19.3l-0.9,1.6l-4.4-0.4l-3.3-1.2l-6.5-0.2l4.4-1.1l-2.3-0.9l1.8-1.5l5.1,0.5l6.2,1.4L352,19.3z"/>
<path class="st0" d="M397.1,14.2l2.2,1.2l-5.4,1.1l-8.8,2.9l-5.7,0.2l-5.7-0.5l-1.3-1.6l1.7-1.3l3.6-1h-5.5l-1.7-1.2l0.3-1.6
	l4.1-1.6l3.4-1.1l3.3-0.2l-0.2-0.8l6.9-0.2l1.3,1.8l3.9,0.7l4,0.7L397.1,14.2z"/>
<path class="st0" d="M463,2.6l7.2,0.2l5.6,0.4l4.3,0.8l-0.9,0.8l-8.2,1.4L463.6,7l-3.3,0.7h6.2l-8.7,2.1l-5.7,1l-7.7,2.9l-6.7,0.6
	l-2.6,0.8l-9.4,0.3l3.7,0.5l-2.7,0.7l0.6,1.9l-4.2,1.3l-5.7,1.1l-2.9,1.5l-5.5,1.2l-0.4,0.9l5.4-0.2l-0.9,1l-10.6,2.4l-7.1-1.2
	l-9.7,0.7l-4.2-0.5l-5.7-0.2l1.7-1.9l6.7-0.9l1.7-2.8l2.2-0.2l6.2,1.7l-1.4-2.5l-4.1-0.7l4.2-1.5l6.3-0.9l2.3-1.3L399,14l0.9-1.8
	l7.8,0.1l1.8,0.4l6.1-1.3l-6.1-0.4l-10.5,0.2l-3.7-1.2l-0.7-1.4l-2.1-1l0.9-1.1l5-0.7l3.5-0.1l6.2-0.5l5.7-1.2l3.2,0.2l2,0.9
	l4.2-1.7l4.3-0.5l5.4-0.3l8.7-0.2l1.1,0.3l8.6-0.5l5.8,0.2L463,2.6z"/>
<path class="st0" d="M693.8,164.7l0.2,0.9l-0.6,1.2l1.9,1l2.2,0.2l-0.2,2.1l-1.7,0.9l-3.2-0.7l-0.8,2.1l-2,0.2l-0.7-0.8l-2.2,1.8
	l-2.1,0.2l-1.8-1.2l-1.5-2.2l-2,0.8v-2.4l3-2.9l-0.2-1.3l1.9,0.5l1.1-0.9h3.5l0.8-1.1L693.8,164.7z"/>
<path class="st0" d="M1166.6,318.3l-3.6,2.6l-4.1-1.7l-0.8-4.6l1.8-2.4l4.8-1.5l2.7,0.1l1.3,2.1l-1.7,2.3L1166.6,318.3z"/>
<path class="st0" d="M1186.1,154.7l7.5,3.7l5,4.8h6.3l2.2-2l5.8-1.6l1.1,4.7l-0.2,1.9l2.3,5.7l0.5,5.2l-5.7-0.9l-2.4,1.8l3.9,4.5
	l3.2,6.2l-2.1,0.1l1.6,2.7l-4.6-3.2v3l-5.3,2.2l2.3,2.8l-3.8-0.2l-3-1.7l-0.9,3.8l-3.2,2.8l-1.8,3.4l-5.2,1.5l-2,2.5l-4,1.5l1.1-2.5
	l-1.9-2.1l1.7-3.6l-3.8-2.7l-2.8,1.8l-3,3.7l-1.1,3.4l-4.2,0.2l-1.1,2.5l4,3.6l4,0.9l1.2,2.3l4.2,1.6l3.2-3.8l4.9,2.1l2.9,0.2
	l1.9,2.7l-5.6,1.5l-0.8,2.9l-3.2,2.7l-0.8,3.7l5.9,2.9l3.8,5.2l4.6,4.9l4.6,4.1l1.3,4l-2.3,1.5l2,2.8l3.2,1.7l0.7,4.3l0.1,4.2
	l-2.3,0.5l-1.8,5.7l-1.9,7.1l-2.8,6.3l-5.3,4.9l-5.5,4.6l-5.1,0.6l-2.4,2.3l-1.9-1.7l-2.1,2.6l-6,2.7l-4.8,0.8l-0.6,5.7l-2.6,0.3
	l-1.8-3.9l0.8-2l-6.5-1.7l-2,0.9l-4.9-1.4l-2.6-2.2l0.2-3.1l-4.4-1l-2.6-2l-3.4,2.8l-4.4,0.7l-3.7-0.1l-2.2,1.3l-2.2,0.8l1.7,6.2
	l-2.5-0.2l-0.7-1.2l-0.4-2.2l-3.2,1.6l-2.2-1l-3.8-2l0.7-4.4l-3.1-1.1l-2-4.9l-4.7,0.9l-0.6-6.3l3.5-4.5l-0.8-4.4l-1.1-4.1l-2.2-1.2
	l-2.2-3.2l-2.6,0.4l-5.1-0.8l1-2.2l-3-3.3l-2.7,2.2l-4.1-1.2l-4.5,3.3l-3.2,4l-3.5,0.7l-2.3-1.4l-2.4-0.2l-3.6-1.2l-2.2,1.3l-2.2,4
	l-1.2-4.2l-2.6,1.2l-5.4-0.6l-5.4-1.2l-4.2-2.4l-3.8-1l-2.1-2.6l-2.8-0.8l-5.3-3.5l-4-1.7l-1.6,1.2l-7.2-3.7l-5.2-3.3l-2.7-5.9
	l3.4,0.7l-0.5-2.7l-2.5-2.7l-0.7-4.3l-6.4-6.3l-7.9-2.1l-2.4-4.2l-3.9-2.5l-1.2-1.5l-1.5-3l-0.4-2.1l-3.1-1.2l-1.2,0.6l-2.6-5
	l0.9-1.2l-1-1.2l3.4-2.5l2.7-1.1l4.8,0.8l0.5-3.4l5.3-0.6l0.8-2.2l5.7-2.8l0.2-1.2l-1.4-3.1l2.4-1.3l-7.3-9.2l7.6-2.1l1.7-1.2
	l-0.8-9.4l9,1.7l1.3-2.4l-2.1-5.2l3.2-0.5l1.6-3.5l1.4-0.4l2.8,3.7l4.7,2.7l6.8,1.9l4.8,4.2l1.2,6.1l2.5,2.3l5.4,0.9l6,0.7l6.7,3.3
	l2.8,0.6l4.2,4.8l3.9,3.2l4.7-0.2l9.4,1.2l5.3-0.8l4.7,0.8l7.8,3.2h5.2l2.8,1.6l3.7-2.8l6-1.8l6.3-0.2l4.1-1.8l1.7-2.8l2-1.8
	l-1.6-1.7l-2.4-2l0.4-3.4l2.7,0.5l4.9,1.1l2.7-2.8l5.3-2l1.1-3.5l2.1-1.5l5.7-0.7l3.7,0.6l-0.7-1.8l-6-3.7l-4.3-1.7l-2.1,1.9
	l-4.6-0.8l-1.9,0.7l-2.3-2.1l-0.2-5.2l-0.5-3.9l6.2,2l3.7-3.2l-1.6-2.3l-0.2-5.4l1.1-1.7l-2.1-2.8l-3.1-1.2l1.4-2.6l4.2-0.9l5.2-0.2
	l7.2,1.6l5,1.8l6.4,5.2l3.2,2.2l3.7,3.2l5.2,5L1186.1,154.7z"/>
<path class="st0" d="M628.5,362.7l2.1,1.2l0.8,1.8l2.1,1.1l1.7-1.3l2.2-0.2l3.2,1.3l1.2,7.7l-2,4.4l-1.2,6.1l2,4.6l-0.2,2.2h-2.2
	l-3.2-1h-3.1l-5.6,1l-3.2,1.5l-4.7,2l-0.9-0.2l0.3-4.4l0.5-0.7l-0.2-2.1l-2-2.2l-1.5-0.3l-1.3-1.5l1-2.4l-0.4-2.6l0.2-1.5h0.8
	l0.3-2.3l-0.3-1.1l0.4-0.7l1.7-0.6l-1.2-4.3l-1.1-2.2l0.4-1.8l0.9-0.4l0.7-0.5l1.2,0.8h3.7l0.8-1.5l0.8,0.1l1.3-0.6l0.7,2.2l1.1-0.7
	L628.5,362.7z"/>
<path class="st0" d="M725.8,378.5l-2.3,5.4l-1.2,0.9L722,389l0.5,2.2l-0.4,1.6l2.2,2.8l0.4,1.9l1.7,2.7l2.2,1.7l0.2,2.4l0.5,1.6
	l-0.3,2.8l-3.7-1.2l-3.8-1.4l-5.9-0.2l-0.6-0.3l-2.8,0.7l-2.8-0.7l-2.2,0.3l-7.7-0.1l0.7-4.2l-1.9-3.6l-2.2-0.8l-0.9-2.4l-1.2-0.7
	l0.1-1.5l1.2-3.8l2.2-5.2h1.3l2.8-3.2l1.7-0.1l2.7,2.2l3.2-1.8l0.4-2.2l1.1-2.2l0.7-2.7l2.5-2.2l0.9-3.7l1-1.2l0.7-2.7l1.2-3.4
	l3.9-4.2l0.2-1.7l0.5-1l-1.9-2.1l0.2-1.7l1.2-0.2l1.9,3.4l0.4,3.5l-0.2,3.6l2.7,4.8h-2.7l-1.3,0.3l-2.2-0.5l-1,2.5l2.8,3.2l2.1,0.9
	l0.7,2.2l1.5,3.7L725.8,378.5z"/>
<path class="st0" d="M782.9,390.1l2.9,4.4l2.2,0.7l1.2-0.9l2.2,0.3l2.6-1.1l1.2,2.2l4.2,3.6l-0.2,6.2l1.9,0.8l-1.6,1.8l-1.7,1.5
	l-1.8,2.7l-1,2.5l-0.2,4.2l-1.1,2.1l-0.1,4l-1.3,1.5l-0.2,3.2l-0.7,0.4l-0.5,3l1.2,2.4l0.1,0.8l-1,8.6l1.2,3l-0.8,2.2l1.5,3.8
	l2.8,2.9l0.6,2.9l1.3,1.4l-0.2,0.9l-0.7-0.2l-6.4,0.9l-1.2,0.7l-1.4,3.4l1,2.3l-0.9,6.3l-0.7,5.3l1.2,1l3.2,2.1l1.3-1l0.2,5.7h-3.6
	l-1.8-2.9l-1.7-2.3l-3.6-0.8l-1-2.7l-2.9,1.7l-3.7-0.8l-1.6-2.4l-2.9-0.5l-2.2,0.1l-0.2-1.7l-1.6-0.1l-2.2-0.3l-2.9,0.8l-2-0.2
	l-1.2,0.5l0.3-6.3l-1.5-2l-0.3-3.3l0.7-3.2l-0.9-2l-0.1-3.4l-5.7,0.1l0.4-1.9h-2.4l-0.2,0.9l-2.9,0.2l-1.2,3.1l-0.7,1.3l-2.6-0.8
	l-1.5,0.8l-3.2,0.4l-1.7-2.7l-1.1-1.8l-1.3-3.2l-1.1-3.9l-13.9-0.1l-1.7,0.6l-1.4-0.1l-1.9,0.7l-0.7-1.7l1.2-0.6l0.2-2.3l0.8-1.3
	l1.7-1.2l1.2,0.6l1.7-2.1l2.6,0.1l0.2,1.5l1.7,0.9l2.8-3.3l2.7-2.6l1.2-1.7l-0.1-4.4l2.1-5.2l2.2-2.7l3.1-2.6l0.6-1.7l0.1-2l0.7-1.8
	l-0.2-3.1l0.6-4.7l0.9-3.3l1.4-2.8l0.2-3.2l0.4-3.7l1.8-2.7l2.5-1.7l3.9,1.8l3,2l3.4,0.5l3.6,1.1l1.3-3.2l0.7-0.4l2.2,0.5l5.2-2.7
	l1.8,1.2l1.5-0.2l0.8-1.3l1.7-0.4l3.5,0.6l3.1,0.1L782.9,390.1z"/>
<path class="st0" d="M740.9,399.4l-0.2,3.2l-1.4,2.8l-0.9,3.3l-0.6,4.7l0.2,3.1l-0.7,1.8l-0.1,2l-0.6,1.7l-3.1,2.6l-2.2,2.7
	l-2.1,5.2l0.1,4.4l-1.2,1.7l-2.7,2.6l-2.8,3.3l-1.7-0.9l-0.2-1.5l-2.6-0.1l-1.7,2.1l-1.2-0.6l-1.7-1.8l-1.4,0.9l-1.9,2.3l-3.8-5.7
	l3.6-3L708,433l1.7-1.3l3.2-0.7l0.3-2.4l2.6,2.6l4.2,0.2l1.4-2.5l0.6-3.6l-0.5-4.2l-2.2-3.2l2.1-6.2l-1.2-1l-3.5,0.4l-1.3-2.7
	l0.3-2.3l5.9,0.2l3.8,1.4l3.7,1.2l0.3-2.8l2.5-5l2.7-2.8l3.2,0.9L740.9,399.4z"/>
<path class="st0" d="M319.2,355.2l-3.1,0.9l-1.3,2.7l-1.9,1.5l-1.5,2l-0.8,3.8l-1.5,3.2l2.4,0.3l0.5,2.4l1,1.2l0.2,2.1l-0.6,2
	l0.1,1.2l1.2,0.4l1,1.8l6.1-0.5l2.7,0.7l3.2,4.7l1.9-0.6l3.4,0.2l2.7-0.6l1.7,0.9l-1,2.8l-1.1,1.8l-0.5,3.8l0.9,3.6l1.2,1.6l0.2,1.2
	l-2.4,2.7l1.7,1.2l1.2,1.9l1.3,5.3l-0.9,0.7l-0.8-3.2l-1.3-1.7l-1.6,1.9l-9.2-0.2v3.3l2.7,0.6l-0.2,2.1l-0.9-0.6l-2.7,0.8l-0.1,3.9
	l2.2,2l0.7,3l-0.1,2.3l-1.8,14.7l-2.4-2.8l-1.4-0.1l2.9-5.5l-3.7-2.5l-2.8,0.5l-1.7-0.9l-2.6,1.4l-3.5-0.8l-2.9-5.6l-2.2-1.3
	l-1.5-2.6l-3.2-2.5L298,419l-2-1.2l-2.3-1.7l-1.3,0.8l-4-0.7l-1.2-2.3l-0.9,0.1l-4.7-3l-0.6-1.7l1.7-0.4l-0.2-2.7l1.2-2l2.3-0.3
	l2.1-3.3l1.8-2.8l-1.7-1.2l1-3.1l-0.9-4.9l1.1-1.4l-0.6-4.5l-1.8-2.9l0.7-2.6l1.5,0.4l0.9-1.6l-0.9-3.2l0.6-0.7l2.4,0.2l3.7-3.7
	l2-0.6l0.1-1.7l1.2-4.6l2.8-2.4l2.9-0.2l0.5-1.1l3.7,0.4l3.8-2.7l1.9-1.2l2.4-2.6l1.7,0.3l1.1,1.4L319.2,355.2z"/>
<path class="st0" d="M261,359.7l1,2.9l1.7,2.2l2.1,2.2l-1.8,0.5l-0.1,2.2l0.9,0.8l-0.8,0.7l0.2,0.9l-0.5,1.1l-0.2,1.1L261,373
	l-0.9-1.2l0.6-0.9l-0.1-1.2l-1.2-1.2l-1.8-1.1l-1.5-0.7l-0.2-1.6l-1.2-0.9l0.2,1.5l-1,1.3l-1-1.5l-1.4-0.6l-0.6-1l0.1-1.7l0.7-1.7
	l-1.2-0.8l1.2-1.1l0.8-0.7l3,1.4l1.1-0.7l1.5,0.4l0.7,1.1l1.4,0.4L261,359.7z"/>
<path class="st0" d="M286.2,296.4l1.6,1.9l4.3-0.6l1.5,1.2l3.5,3.3l2.7,2.4l1.5-0.1l2.7,1.1l-0.5,1.5l3.3,0.2l3.2,2.2l-0.7,1.2
	l-3.2,0.7l-3.2,0.2l-3.1-0.4l-6.7,0.5l3.5-2.9l-1.7-1.4l-3-0.3l-1.4-1.6l-0.7-3l-2.7,0.2l-4.2-1.4l-1.2-1.2l-5.9-0.8l-1.5-1l1.9-1.3
	l-4.5-0.2l-3.7,2.7l-1.9,0.1l-0.8,1.3l-2.3,0.6l-1.9-0.6l2.7-1.6l1.2-2l2.2-1.2l2.5-1l3.6-0.5l1.2-0.7l3.9,0.4l3.7,0.1L286.2,296.4z
	"/>
<path class="st0" d="M714.9,146.1l2.1,1.7l3.1,0.4l-0.2,1.4l2.3,1.1l0.5-1.3l2.8,0.6l0.6,1.7l3.1,0.2l2.2,2.6h-1.2l-0.6,0.9
	l-0.9,0.2l-0.2,1.2l-0.8,0.2l-0.1,0.5l-1.3,0.5l-1.8-0.1l-0.5,1.2l-2-1l-1.9,0.2l-3.3-1.6l-1.4,0.4l-2.2,2.2l-3.2-1.7l-2.5-2.2
	l-2.2-1.2l-0.6-2.2l-0.8-1.5l2.8-1.1l1.4-1.3l2.9-1l0.9-1l1.1,0.6L714.9,146.1z"/>
<path class="st0" d="M710.1,132.5l1.2,2.6l-1,1.4l1.6,1.7l1.2,2.7l-0.2,1.8l2,3.2l-1.8,0.5L712,146l-0.9,1l-2.9,1l-1.4,1.3l-2.8,1.1
	l0.8,1.5l0.6,2.2l2.2,1.2l2.5,2.2l-1.3,2.4l-1.4,0.7l0.8,3.4l-0.3,0.9l-1.4-1.1l-2-0.2l-2.9,0.9l-3.7-0.2l-0.5,1.4l-2.2-1.4
	l-1.2,0.2l-4.6-1.6l-0.8,1.1h-3.5l0.3-3.7l2-3.5l-6-1l-2-1.3l0.2-2.2l-0.8-1.2l0.3-3.5l-0.9-5.4h2.4l1-1.9l0.7-4.7l-0.7-1.7l0.7-1.1
	l3.3-0.2l0.8,1.1l2.6-2.5l-1.1-1.9l-0.3-2.8l3.1,0.7l2.4-0.8l0.2,1.9l4.1,1.2l0.1,1.8l3.9-1l2.2-1.3l4.7,2L710.1,132.5z"/>
<path class="st0" d="M856.3,356.8l-1.6,2.9l-1.1-1l-1.1,0.4l-2.7-0.1l-0.2-1.7l-0.4-1.5l1.5-2.5l1.6-2.3l2,0.5l1.4-1.3l1.2,1.7
	l-0.1,2.2l-2.6,1.3L856.3,356.8z"/>
<path class="st0" d="M703.6,123.2l-2,4.1l-4.3-2.9l-0.7-2.1l5.7-1.7L703.6,123.2z"/>
<path class="st0" d="M692.9,126.4l-2.4,0.8l-3.1-0.7l-1.7-2.8l-0.3-5.1l0.5-1.4l1.1-1.5l3.3-0.2l1.3-1.4l3-1.4v2.6l-1,1.7l0.6,1.3
	l2.2,0.8l-0.8,1.9l-1.2-0.5l-2.6,3.6L692.9,126.4z"/>
<path class="st0" d="M320.2,321.7l0.2-1.5l-1.1-1.6l1.2-0.9l0.6-2.1l-0.1-2.8l0.7-0.9h3.6l2.7,1.3l1.2-0.1l0.6,1.9l2.6-0.2l-0.3,1.6
	l2.1,0.2l2.1,1.9l-1.9,2.2l-2.2-1.2l-2.2,0.2l-1.5-0.2l-0.9,1l-1.8,0.3l-0.6-1.3l-1.6,0.7l-2.2,3.7l-1.1-0.8L320.2,321.7z"/>
<path class="st0" d="M691,220.6l-0.8,2.7l0.8,5.1l-0.9,4.4l-2.7,3l0.5,4l3.7,3.2l0.1,1.2l2.8,2.2l2.2,9.6l1.6,4.7l0.3,2.5l-0.7,4.3
	l0.3,2.5l-0.5,2.9l0.5,3.3l-1.8,2.2l2.8,3.9l0.2,2.2l1.7,3l2.1-1l3.7,2.5l2.1,3.3l-15.7,10.2l-13.3,10.5l-6.5,2.3l-5.2,0.6l-0.1-3.4
	l-2.2-0.9l-2.9-1.5l-1.1-2.5l-15.6-11.7l-15.5-11.7l-17.1-13l0.1-1l0.1-0.3l0.1-6.3l7.4-4l4.5-0.8l3.7-1.4l1.7-2.7l5.3-2.1l0.2-4
	l2.6-0.5l2.1-1.9l5.9-0.9l0.8-2.1l-1.2-1.2l-1.6-5.7l-0.2-3.2l-1.6-3.4l4.2-2.9l4.8-0.9l2.7-2.2l4.2-1.7l7.5-0.9l7.3-0.4l2.2,0.8
	l4.1-2.1l4.7-0.1l1.8,1.2L691,220.6z"/>
<path class="st0" d="M298,419l0.7,4.1l-1.4,3.4l-5.1,5.7l-5.6,2.1l-2.8,4.7l-0.7,3.6l-2.6,2.2l-2.1-2.7l-1.9-0.6l-1.9,0.4l-0.2-1.9
	l1.3-1.2l-0.6-2.2l2.4-4l-1.1-2.3l-1.7,2.5l-2.9-2.4l0.9-1.5l-0.8-4.8l1.7-0.8l0.8-3.3l1.7-3.4l-0.2-2.2l2.6-1.2l3.2-2.1l4.7,3
	l0.9-0.1l1.2,2.3l4,0.8l1.3-0.8l2.3,1.7L298,419z"/>
<path class="st0" d="M808.5,251.2l3.2,7.8l0.6,1.3l-1.1,2.2l-0.6,4l-1,2.8l-1,0.9l-1.7-1.7l-2.2-2.3l-3.9-7.7l-0.4,0.5l2.3,5.6
	l3.2,5.4l4.1,8.3l1.9,2.9l1.7,3l4.5,5.9l-0.8,0.9l0.3,3.5l5.7,4.8l0.9,1.1h-18.4h-17.9h-18.6l-0.8-19.7l-1.1-19l-1.7-4.3l0.9-3.2
	l-0.8-2.3l1.4-2.6l6-0.1l4.5,1.4l4.6,1.6l2.2,0.8l3.3-1.7l1.7-1.5l3.9-0.5l3.2,0.7l1.5,2.7l0.9-1.7l3.7,1.2l3.6,0.3L808.5,251.2z"/>
<path class="st0" d="M855.8,350.2l-1.4,1.3l-2-0.5l-1.7-1.7l-2.1-3.1l-2.2-1.7l-1.2-1.8l-4.2-2.2l-3.2-0.1l-1.2-1.1l-2.7,1.2l-3-2.4
	l-1.2,4l-5.5-1.2l-0.6-2.1l1.7-7.9l0.2-3.5l1.4-1.7l3.3-0.9l2.2-3l3,6.2l1.6,4.9l2.7,2.6l6.7,5.1l2.7,3l2.7,3.2l1.5,1.8L855.8,350.2
	z"/>
<path class="st0" d="M759.9,104l0.7,0.8l-2.2,2.8l2,4.7l-1.3,1.6l-3.2-0.1l-3.7-1.8l-1.7-0.6l-3.2,0.8l-0.1-2.9l-1.2,0.7l-2.7-1.8
	l-0.8-2.8l4.6-1.4l4.7-0.7l4.2,0.8L759.9,104z"/>
<path class="st0" d="M837.8,340.4l3.2,0.1l4.2,2.2l1.2,1.8l2.2,1.7l2.1,3.1l1.7,1.7l-1.6,2.3l-1.5,2.5l0.4,1.5l0.2,1.7l2.7,0.1
	l1.1-0.4l1.1,1l-1,1.8l1.8,3l1.8,2.6l1.8,1.9l15.6,6.3l4-0.1l-13,16.1l-6.1,0.2l-4.2,3.7l-3,0.1l-1.2,1.7h-3.2l-1.9-1.8l-4.3,2.2
	l-1.3,2.2l-3.2-0.5l-1.1-0.6l-1.1,0.2l-1.5-0.1l-6-4.5h-3.3l-1.6-1.7l-0.1-3l-2.4-0.9l-2.9-5.8l-2.2-1.2l-0.8-2.2l-2.5-2.6l-2.9-0.4
	l1.6-3l2.5-0.2l0.7-1.6l-0.2-4.2v-0.7l1.2-5.6l2.2-1.5l0.4-2.2l1.9-4.2l2.7-2.6l1.7-5.3l0.6-4.6l5.5,1.2l1.2-4l3,2.4l2.7-1.2
	L837.8,340.4z"/>
<path class="st0" d="M751.9,58.6l0.3,3.2l6.1,3.1l-2.4,3.5l5.4,5.2l-1.4,4L764,81l-0.8,3.2l6.2,3.2l-0.7,2.4l-2.8,2.8l-6.7,6.2
	l-6.7,0.4l-6.3,1.7l-5.9,1.1l-2.7-2.7l-3.9-1.6l0.1-4.8l-2.5-4.3l1.3-2.8l2.7-2.9l7.3-5.2l2.2-1l-0.8-2l-5.4-2.2l-1.5-1.8l-1.5-7.1
	l-6-3.1l-5-2.2l1.8-1.2l4.2,2.3l4.4-0.2l3.9,1.1l2.8-2l0.9-3.3l4.9-1.5l4.8,1.7L751.9,58.6z"/>
<path class="st0" d="M715.6,406.1l-0.3,2.3l1.3,2.7l3.5-0.4l1.2,1l-2.1,6.2l2.2,3.2l0.5,4.2l-0.6,3.6l-1.4,2.5l-4.2-0.2l-2.6-2.6
	l-0.3,2.4l-3.2,0.7L708,433l1.7,3.5l-3.6,3l-4.8-5.4l-3.1-4.4l-2.9-5.5l0.2-1.8l1.1-1.7l1.1-3.9l1-4l1.6-0.2h6.8v-6.4l2.2-0.3
	l2.8,0.7l2.8-0.7L715.6,406.1z"/>
<path class="st0" d="M629.2,131.9l-2.9-1l-2.5,0.1l1-2.7l-0.8-2.7l3.3-0.2l4.1,3.2L629.2,131.9z"/>
<path class="st0" d="M642.4,108l-4.2,5.4l3.9-0.7h4.2l-1.1,4.1l-3.6,4.5l4.1,0.2l0.2,0.6l3.5,5.9l2.7,0.8l2.4,5.8l1.2,2l4.9,0.9
	l-0.5,3.3l-2,1.5l1.6,2.7l-3.7,2.7l-5.4-0.1l-7,1.5l-1.8-1.1l-2.7,2.4l-3.7-0.6l-3,2l-2.1-1l6.1-5.4l3.7-1.2l-6.3-0.8l-1.1-2.1
	l4.2-1.6l-2.1-2.7l0.8-3.3l5.9,0.5l0.7-3l-2.6-3.1l-0.1-0.1l-4.7-0.9l-0.9-1.3l1.5-2.2l-1.2-1.4l-2.2,2.4l-0.1-4.9l-1.8-2.5l1.6-5.2
	l3.2-4l3,0.3L642.4,108z"/>
<path class="st0" d="M844.8,190l4.2,1.1l1.7,2.2l3,1.2l-1,0.7l2.7,2.9l-0.5,0.6l-2.4-0.2l-3.5-1.6l-0.9,0.9l-5.8,0.8l-4.7-2.7
	l-4.6,0.2l0.2-2.2l-1.7-3.6l-2.8-2l-2.5-0.6l-1.8-1.6l0.3-0.7l3.8,0.9l6.4,0.8l6.3,2.6l1,1L844.8,190z"/>
<path class="st0" d="M654,359.2l-0.3,1.7l1.9,2.7v3.9l0.5,4.2l1.2,2l-1.1,4.7l0.4,2.7l1.2,3.4l1.1,1.9l-7.4,3.1l-2.7,1.8l-4.2,1.6
	l-4.2-1.5l0.2-2.2l-2-4.6l1.2-6.1l2-4.4l-1.2-7.7l-0.7-4l0.2-3.1l8.2-0.2l2.1,0.4l1.5-0.8L654,359.2z"/>
<path class="st0" d="M599.8,351.6l0.2,2h0.7l1.2-0.8l0.8,0.2l1.3,1.4l2,0.4l1.2-1.2l1.6-0.7l1.1-0.8l0.9,0.2l1.1,1.2l0.5,1.5
	l1.9,2.2l-0.9,1.3l-0.2,1.7l1-0.5l0.6,0.6l-0.2,1.6l1.4,1.6l-0.9,0.4l-0.4,1.8l1.1,2.2l1.2,4.3l-1.7,0.6l-0.4,0.8l0.3,1.1l-0.3,2.3
	h-0.8l-1.3-0.2l-0.9,2.2h-1.3l-0.9-1.2l0.3-2.2l-2-3.2l-1.2,0.6l-1.1,0.2l-1.2,0.2l0.1-1.9l-0.7-1.4l0.2-1.6l-1-2.2l-1.3-1.9h-3.7
	l-1.1,1l-1.3,0.2l-0.8,1.2l-0.5,1.4l-2.6,2.4l-2-3.2l-1.8-2.1l-1.2-0.7l-1.2-1.1l-0.5-2.3l-0.7-1.2l-1.4-0.9l2.2-2.6l1.4,0.1
	l1.2-0.8l1-0.1l0.8-0.7l-0.3-1.7l0.5-0.6l0.1-1.8l2.2,0.1l3.4,1.2l1-0.1l0.3-0.6l2.6,0.4L599.8,351.6z"/>
<path class="st0" d="M574.9,347.8l0.7-2.4l5.1-0.1l1.1-1.3l1.5-0.1l1.8,1.3h1.4l1.6-0.8l0.9,1.5l-2.1,1.2l-2-0.2l-2-1.1l-1.7,1.2
	h-0.8l-1.2,0.8L574.9,347.8z"/>
<path class="st0" d="M589.6,350.8l-0.1,1.8l-0.5,0.6l0.3,1.7l-0.7,0.7l-1,0.1l-1.2,0.8l-1.4-0.1l-2.2,2.6l-2.4-2.2l-2-0.4l-1.1-1.5
	l0.1-0.8l-1.4-1.1l-0.3-1.2l2.5-0.8l1.6,0.2l1.2-0.7L589.6,350.8z"/>
<path class="st0" d="M707.1,406.1v6.4h-6.8l-1.6,0.2l-0.9-0.8l1.6-6L707.1,406.1z"/>
<path class="st0" d="M759,227.2l2.6,1.8l3.4-0.3l3.3,0.3v1l2.3-0.7l-0.4,1.6l-6.3,0.4l-0.1-0.8l-5.5-1.1L759,227.2z"/>
<path class="st0" d="M766.7,200l-2.7-0.2l-2.2-0.5l-5.2,1.3l3.3,3l-2.1,0.9h-2.4l-2.6-2.7l-0.8,1.2l1.3,3.2l2.4,2.5l-1.6,1.2
	l2.7,2.4l2.3,1.6l0.3,3l-4.2-1.4l1.5,2.7l-2.7,0.5l2.1,4.7l-2.9,0.1l-3.8-2.3l-2-4.2l-1.1-3.6l-1.9-2.4l-2.5-3.1l-0.4-1.5l1.8-2.6
	l0.1-1.7l1.4-0.8l-0.1-1.4l2.8-0.4l1.5-1.2l2.3,0.1l0.7-0.9l0.8-0.2l3.2,0.2l3.3-1.5l3.2,1.9l3.8-0.5l-0.2-2.7l2.2,1.4l-0.9,3.3
	L766.7,200z"/>
<path class="st0" d="M578.9,1.3l16.6,2.5L589.8,5L579,5.2l-15.4,0.3l1.2,0.6L575,5.7l8.1,1.2l5.8-1l2,1.2l-3.7,2l7.7-1.3l14.2-1.2
	l8.3,0.7l1.4,1.4l-12.3,2.4l-1.8,0.8l-9.5,0.7l6.7,0.2l-4.1,2.7l-3,2.4l-1,4.3l3.1,2.7l-4.9,0.1l-5.4,1.3l5.2,2.2l-0.1,3.5l-3.5,0.4
	l3.4,3.6l-7.2,0.3l3.3,1.7l-1.3,1.5l-4.7,0.7l-4.6,0.1l3.5,2.8l-0.4,2l-6.1-1.8l-2,1.2l4.2,1.1l3.8,2.7l0.5,3.6l-6.2,0.8l-2.2-1.7
	l-3.5-2.5l0.4,3l-4.5,2.3l8.9,0.2l4.6,0.2l-9.9,3.9L558,61.3l-10.6,1.5l-3.8,0.1l-4.1,1.7l-6.2,4.8l-8.5,3.2l-2.5,0.2l-5.1,1.1
	l-5.5,1.2l-4,2.8l-1.2,3.3l-2.8,3.2l-7.2,3.8l0.2,3.7l-3,4l-3.4,4.7l-5.4,0.3l-4.2-4l-7.5-0.1l-2.7-2.7l-0.7-4.7l-4-6l-0.6-3.1
	l1.2-4.2l-3.1-4.2l2.7-3.4l-1.6-1.7l5.8-5.3l6-1.7l2.2-1.8l2.3-3.5l-4.6,1.6l-2.2,0.7l-3.4,0.6l-3.5-1.4l1.2-3.1l2.5-2.3l3.2-0.1
	l6.3,1.2l-4.4-2.8l-2.2-1.5l-3.7,0.6l-2.2-1.1l5.8-4l-1.1-1.7l-0.9-2.9l-1.2-4.5l-3-1.6l1.2-1.7l-6.7-2.4l-6.4-0.3l-8.4,0.2
	l-7.9,0.3l-2.6-1.3l-3.2-2.6l9.2-1.2l6.3-0.2L437.1,22l-5.4-1.6l1.8-1.5l13.1-1.8l12.5-1.8l2.3-1.3l-6.7-1.3l3.8-1.4l12.2-2.4
	l4.5-0.3l0.2-1.5l7.5-0.9l9.2-0.5h8.7l2.3,1l8.8-1.8l5.9,1.2l3.8,0.2l5.2,1.1l-5.6-1.7l1.3-1.4l10.6-1.8l9.7,0.2l4.2-1.2L557,1
	L578.9,1.3z"/>
<path class="st0" d="M239,322.9l-0.6,4.2l-1.1,6h1.4l1.4,1l0.5-0.8l1.2,0.7l-2.3,2.1l-2.4,1.5l-0.4,1l0.2,1.1l-1.1,1.3l-1.2,0.3
	l0.2,0.7l-1,0.6l-1.7,1.3l-0.2,0.7l-2.3-0.9l-2.9-0.1l-2-1.1l-2.3-2.2l0.3-1.6l0.7-1.2l-0.6-1l2.7-4.3h6l0.3-1.8l-0.7-0.3l-0.4-1.2
	l-1.6-1.2l-1.5-1.8l2.1-0.1l0.4-3h4.3L239,322.9z"/>
<path class="st0" d="M384.5,386.2l-0.8,4.8l-2.9,1.3l0.2,1.2l-0.9,2.8l2,3.8h1.5l0.6,3l2.7,4.7l-1.1,0.2l-2.7-0.5l-1.5,1.4l-2.2,0.9
	l-1.5,0.2l-0.5,1.1l-2.3-0.2l-2.9-2.5l-0.2-2.5l-1.2-2.7l0.8-4.5l1.3-1.9l-1-2.5l-1.7-0.7l0.7-2.4l-1-1.2l-2.5,0.2l-3.1-4l1.3-1.5
	v-2.5l2.9-0.8l1.2-1l-1.5-2l0.4-1.9l3.9-3.2l3,2l2.7,3.4l0.1,2.8l1.7,0.1l2.5,2.6L384.5,386.2z"/>
<path class="st0" d="M265.2,337.9l-1.6-0.1l-0.7,0.8l-1.7,0.7H260l-1.1,0.7l-0.9-0.2l-0.7-0.8l-0.5,0.2l-0.7,1.2l-0.4-0.1l-0.2,1.2
	l-1.7,1.4l-1,0.7l-0.5,0.7l-1.2-1.1l-1.2,1.4h-1l-1.1,0.1l-0.2,2.7h-0.7l-0.7,1.2l-1.5,0.2l-0.7-1.7l-1.4-0.5l0.6-2.2l-0.6-0.6
	l-1-0.3l-2.1,0.6l-0.1-0.7l-1.3-0.9l-0.9-1l-1.3-0.5l1.1-1.3l-0.2-1.1l0.4-1l2.4-1.5l2.3-2.1l0.5,0.2l1.1-0.9l1.3-0.1l0.4,0.4
	l0.8-0.2l2.2,0.5l2.2-0.2l1.5-0.6l0.7-0.6l1.4,0.2l1.1,0.3l1.2-0.1l1-0.5l2.1,0.8l0.7,0.2l1.3,1l1.2,1.2l1.6,0.8L265.2,337.9z"/>
<path class="st0" d="M733.1,173.1l1.2,2.1l1.4,1.5l-1.4,2l-2-1.2l-2.9,0.1l-3.7-0.9l-1.9,0.1l-0.8,1.2l-1.7-1.2l-0.7,2.2l2.2,2.5
	l1.1,1.6l2.1,2l1.7,1.2l1.7,2.2l4,2l-0.4,0.8l-4.2-1.9l-2.7-1.9l-4-1.6l-3.9-3.8l0.8-0.4l-2.1-2.2l-0.2-1.7l-2.7-0.8l-1.2,2.2
	l-1.3-1.8v-1.8l0.1-0.1l3,0.2l0.7-0.8l1.5,0.8l1.7,0.1l-0.1-1.4l1.4-0.6l0.2-2.1l3.2-1.4l1.3,0.7l3.3,2.2l3.6,1L733.1,173.1z"/>
<path class="st0" d="M321.2,312.8l0.1,2.8l-0.6,2.1l-1.2,0.9l1.1,1.6l-0.2,1.5l-3-0.9l-2.2,0.3l-2.8-0.3l-2.2,1l-2.3-1.7l0.6-1.7
	l4.2,0.7l3.4,0.4l1.8-1.2l-1.9-2.3l0.3-2.1l-2.9-0.8l1.2-1.4l2.8,0.2L321.2,312.8z"/>
<path class="st0" d="M745.3,160l2.5,1.4l0.4,1.4l-2.4,1.1l-1.6,3.5l-2.2,3.6l-3.2,1l-2.7-0.2l-3.1,1.3l-1.5,0.8l-3.6-1l-3.3-2.2
	l-1.3-0.7l-1-1.7l-0.7-0.1l1.1-3.3l-0.9-1.2h2.3l0.2-2.2l2.2,1.4l1.6,0.5l3.4-0.6l0.2-1.1l1.6-0.2l1.9-0.8l0.5,0.3l1.9-0.7l0.8-1.2
	l1.3-0.3l4.6,1.6L745.3,160z"/>
<path class="st0" d="M1221,472.9l-2,0.1l-5.9-3.7l4.5-1.1l2.3,1.7l1.5,1.6L1221,472.9z"/>
<path class="st0" d="M1241.7,465.7l0.4,1.1l-0.1,1.6l-3.4,4l-4.2,1.2l-0.5-0.6l0.6-1.8l2.3-3.2L1241.7,465.7z"/>
<path class="st0" d="M1208.7,461.4l1.6,1.4l3-0.4l1,2.2l-5.6,1.1l-3.2,0.7l-2.6-0.1l1.8-3.1h2.7L1208.7,461.4z"/>
<path class="st0" d="M1232.2,461.4l-0.9,3l-7.2,1.5l-6.2-0.7l0.2-2l3.8-1.1l2.8,1.6l3.2-0.4L1232.2,461.4z"/>
<path class="st0" d="M1165.5,454.4l9,0.6l1.2-2.2l8.6,2.6l1.5,3.5l7,1l5.6,3.2l-5.5,2l-5.1-2.2l-4.2,0.2l-4.8-0.4l-4.3-0.9l-5.3-2.1
	l-3.4-0.5l-2,0.7l-8.5-2.2l-0.7-2.2l-4.2-0.4l3.5-5.1l5.7,0.3l3.7,2.1l2,0.4L1165.5,454.4z"/>
<path class="st0" d="M1288.6,451.4l-2.7,3.7l-0.2-4l0.9-1.9l1.1-1.8l1,1.6L1288.6,451.4z"/>
<path class="st0" d="M1254.1,436.6l-1.8,1.8l-3.2-1l-0.8-2.3l4.8-0.2L1254.1,436.6z"/>
<path class="st0" d="M1269.5,434.7l1.5,4.1l-3.8-2.2l-3.9-0.4l-2.7,0.3l-3.2-0.2l1.2-2.9l5.8-0.2L1269.5,434.7z"/>
<path class="st0" d="M1319.2,432l-0.8,17.4l-1.3,17.5l-3.8-4.4l-4.7-1.1l-1.2,1.5l-6,0.2l2.3-4.3l3.1-1.5l-0.8-5.8l-1.9-4.4
	l-8.9-4.6l-3.8-0.4l-6.9-5l-1.5,2.7l-1.8,0.4l-0.9-1.9l0.1-2.3l-3.5-2.7l5.2-1.9l3.3,0.1l-0.3-1.4h-6.9l-1.8-3.2l-4.2-1l-1.9-2.7
	l6.3-1.2l2.4-1.7l7.6,2.2l0.8,2l1.1,8.7l4.8,3.2l4.2-5.7l5.5-3.2h4.2l4,1.8l3.4,1.9L1319.2,432z"/>
<path class="st0" d="M1245.1,410.6l-3.7,5.3l-3.6,1l-4.5-1l-7.9,0.2l-4.1,0.8l-0.7,4.1l4.2,4.7l2.6-2.4l8.8-1.8l-0.4,2.4l-2.1-0.7
	l-2.1,3.2l-4.2,2.1l4.2,6.8l-0.9,1.8l4,6.2l-0.2,3.5l-2.6,1.6l-1.7-1.9l2.5-4.3l-4.7,2.1l-1.1-1.5l0.7-2.1l-3.2-3.2l0.6-5.2
	l-3.2,1.6l0.2,6.2l-0.2,7.7l-3.1,0.8l-1.9-1.5l1.6-4.9l-0.5-5.2l-2-0.1l-1.3-3.7l2.1-3.5l0.8-4.2l2.5-8.1l0.9-2.2l4-4l3.7,1.6
	l5.9,0.8l5.4-0.2l4.7-3.8L1245.1,410.6z"/>
<path class="st0" d="M1261.4,412.1l-0.2,4.7l-2.4-0.6l-0.8,3.2l1.9,2.8l-1.3,0.7l-1.8-3.4l-1.4-6.8l0.8-4.2l1.5-1.9l0.4,2.9l2.8,0.4
	L1261.4,412.1z"/>
<path class="st0" d="M1171.5,407.4l0.8,3.6l3.2,3.1l3.1-1.1l3,0.3l2.7-2.7l2.2-0.5l4.5,1.5l3.8-1.2l2.2-7.4l1.8-1.8l1.4-6.1h5.4
	l4.2,0.9l-2.5,4.8l3.7,5l-0.8,2.5l5.3,4.9l-5.6,0.7l-1.5,3.7l0.2,4.8l-4.6,3.7l-0.3,5.3l-2.1,8.2l-0.6-1.9l-5.5,2.4l-1.7-3.2
	l-3.3-0.3l-2.3-1.7l-5.7,2l-1.6-2.7l-3.2,0.3l-3.8-0.6l-0.5-7.2l-2.3-1.5l-2.2-4.6l-0.7-4.7l0.5-5L1171.5,407.4z"/>
<path class="st0" d="M1152.5,449.5l-5.2,0.1l-3.8-4.4l-5.9-4.4l-1.9-3.2l-3.4-4.3l-2.2-4l-3.5-7.5l-4.1-4.5l-1.4-4.6l-1.8-4.2
	l-4.3-3.3l-2.6-4.6l-3.7-3l-5.2-5.9l-0.5-2.7l3,0.2l7.4,1l4.3,5.2l3.8,3.7l2.7,2.2l4.6,5.7l4.8,0.1l4,3.7l2.8,4.5l3.6,2.5l-1.9,4.3
	l2.8,1.8l1.7,0.2l0.8,3.7l1.6,2.9l3.4,0.5l2.2,3.4l-1.4,6.7L1152.5,449.5z"/>
<path class="st0" d="M1021.2,256.7l-2.3,2.5l-0.8,5l4.8,2l4.8,2.6l6.5,3l6.4,0.7l3.2,2.7l3.6,0.5l5.7,1.2l3.8-0.1l0.1-2.1l-1.2-3.4
	l-0.2-2.2l2.6-1.2l1.2,4.2l0.3,1l4.6,2.1l2.7-0.8l3.9,0.3l3.8-0.2l-0.4-3.2l-2.2-1.7l3.5-0.7l3.2-4l4.5-3.3l4.1,1.2l2.7-2.2l3,3.3
	l-1,2.2l5.1,0.8l0.8,2l-1.4,1l1.2,3.2l-3.5-0.9l-5.2,3.7l0.8,3.1l-1.7,4.5l0.2,2.6l-1.3,4.4l-3.8-1.2l0.8,5.6l-0.8,1.8l0.8,2.2
	l-2.1,1.2l-3.7-8.5h-1.2l-0.2,3.5l-3-2.8l1-3l2-0.3l1.3-4.5l-2.8-0.9l-4.2,0.1l-4.5-0.8l-1-3.7l-2.2-0.2l-4.1-2.3l-1,3.7l3.8,2.8
	l-2.5,2l-0.8,1.9l3.1,1.4l-0.2,3.2l2.2,4l1.3,4.4l-0.4,2l-3.2-0.1l-5.5,1.1l0.8,4l-2,3.2l-6.2,3.7l-4.4,6.2l-3.2,3.4l-4.2,3.5
	l0.2,2.4l-2.2,1.3l-4,1.9l-2.2,0.2l-1,4.1l1.6,7l0.6,4.4l-1.6,5.1l0.6,9.1l-2.4,0.2l-1.9,4.1l1.6,1.8l-4.2,1.5l-1.4,3.6l-1.8,1.6
	l-4.7-5l-2.6-7.5l-2.1-5.4l-1.8-2.5l-2.8-5.2l-1.7-6.7l-1.2-3.3l-4.9-7.3l-2.9-10.4l-2.2-6.8l-0.7-6.5l-1.4-5l-6.4,3.2l-3.3-0.7
	l-6.7-6.5l2-1.9l-1.6-2.1l-5.9-4.6l2.7-3.6h10.1l-1.5-4.6l-2.9-2.7l-1.2-4.2l-3.3-2.3l4.1-5.7l5.4,0.4l3.7-5.6l1.8-5.4l3.2-5.4
	l-0.8-3.8l3.2-3.1l-4.2-2.6l-2.4-3.7l-2.7-4.7l1.7-2.3l7.1,1.3l4.7-0.8l3.2-4.5l6.4,6.3l0.7,4.3l2.5,2.7l0.5,2.7l-3.4-0.7l2.7,5.9
	l5.2,3.3L1021.2,256.7z"/>
<path class="st0" d="M629.2,131.9l0.6,3.7l-3.2,4.6l-7.3,3l-5.7-0.8l3.6-5.3l-1.7-5.2l5.6-4l3.1-2.3l0.8,2.7l-1,2.7l2.5-0.1
	L629.2,131.9z"/>
<path class="st0" d="M855.9,211.1l1.5-0.2l4.4-3.9l1.6-0.4l1.6,1.6l-1,2.6l3.2,2.8l1.1-0.3l2.1,4l4.4,1.1l3.6,2.7l6.4,0.9l6.7-1.4
	l0.2-1.2l3.7-1l2.5-3.1l3,0.2l1.7-1l3.2,0.5l5.5,2.7l3.6,0.6l6.1,4.7l3.3,0.2l1.4,4.4l-0.5,6.7l-0.4,3.9l2.1,0.8l-1.3,2.9l2.2,4.2
	l1,3.4l3.6,0.9l0.9,3.4l-3.2,4.8l2.7,2.8l2.3,3.2l4.7,2.3l0.8,4.7l2.2,0.9l0.7,2.4l-6.2,2.8l-0.9,6.2l-8.8-1.6l-5.2-1.2l-5.2-0.7
	l-2.7-6.6L912,273l-3.4,0.9l-4.2,2.6l-5.8-1.7l-5.1-4.2l-4.6-1.5l-3.7-5.1l-4.3-7.1l-2.3,0.8l-3.1-1.7l-1.4,2.1l-2.9-2.8l-0.4-2.8
	h-1.4l0.2-3.9l-2.9-4l-5.9-3l-3.8-5.1l0.4-4.2l1.9-1.8l-0.8-3.1l-3.2-1.7l-3.9-6.3l-3.2-4.2l0.6-1.7l-2.4-6.1l2.7-1.6l1,2.1l2.7,2.4
	L855.9,211.1z"/>
<path class="st0" d="M851.3,219.4l3.9,6.3l3.2,1.7l0.8,3.1l-1.9,1.8l-0.4,4.2l3.8,5.1l5.9,3l2.9,4l-0.2,3.9h1.4l0.4,2.8l2.9,2.8
	l-2.7-0.2l-3.1-0.5l-2.7,5.2l-8.5-0.4l-14-10.7l-7.2-3.7l-5.7-1.5l-2.6-6.5l9.2-5.6l0.8-6.4l-1-3.9l2.2-1.3l1.7-3.3l1.7-0.8l5.2,0.8
	l1.7,1.3L851.3,219.4z"/>
<path class="st0" d="M602.6,70.5l-1.2,3l3.7,3.2l-5.1,3.6l-10.9,3.2l-3.2,0.9l-4.7-0.7l-9.9-1.5l4-2.1l-7.5-2.2l6.6-0.9l0.1-1.4
	l-7.3-1.1l3-3.1l5.5-0.7l5,3.2l5.8-2.5l4.2,1.2l6.1-2.4L602.6,70.5z"/>
<path class="st0" d="M814.3,240.2l0.3,2.2l-0.5,0.8h0.1l-0.6,1.7l-1.7-0.7l-0.6,3.5l1.2,0.6l-1.1,0.7l-0.1,1.4l2.1-0.7l0.3,2.1
	l-1.5,8.5l-0.6-1.3l-3.2-7.8l1.2-1.7l-0.3-0.3l0.9-2.5l0.5-4l0.5-1.4h0.1h1.5l0.3-0.9L814.3,240.2z"/>
<path class="st0" d="M722,213.7l-1.4,4.2l0.7,1.6l-0.7,2.7l-3.5-2l-2.2-0.6l-6.2-2.7l0.4-2.7l5.2,0.5l4.5-0.6L722,213.7z"/>
<path class="st0" d="M693.7,197.9l2.7,3.7l-0.3,7.1l-2-0.3l-1.7,1.8l-1.7-1.4l-0.4-6.4l-1.1-3l2.4,0.2L693.7,197.9z"/>
<path class="st0" d="M711.8,170l-0.3,2.6l1.2,2.2l-3.4-0.8l-3.2,1.9l0.3,2.6l-0.4,1.5l1.6,2.7l4.2,2.7l2.4,4.4l5.1,4.2l3.3-0.1
	l1.2,1.2l-1.2,1.1l4,1.9l3.3,1.6l3.9,2.8l0.5,0.9l-0.7,1.9l-2.6-2.5l-3.8-0.8l-1.6,3.4l3.2,2l-0.3,2.7l-1.7,0.3l-2.1,4.6l-1.8,0.4
	l-0.1-1.7l0.7-2.8l0.9-1.2l-1.9-3.1l-1.5-2.7l-1.8-0.7l-1.5-2.2l-2.8-1l-2-2.2l-3.2-0.3l-3.6-2.3l-4.1-3.5l-3.1-3l-1.6-5.2l-2.2-0.6
	l-3.5-1.7l-1.9,0.7l-2.4,2.5l-1.7,0.3l0.4-2.2l-2.3-0.7l-1.2-4.1l1.4-1.6l-1.2-2l0.1-1.5l1.8,1.2l2.1-0.2l2.2-1.8l0.8,0.8l2-0.2
	l0.8-2.1l3.2,0.7l1.7-0.9l0.2-2.1l2.6,0.8l0.4-1l4.1-0.9l1.1,1.7L711.8,170z"/>
<path class="st0" d="M295.9,322.6l-1.5,0.9l-2.5-0.9l-2.4-1.9l0.7-1.2l2-0.3l1.1,0.2l3.1,0.5l2.2,1.2l0.7,1.5L295.9,322.6z"/>
<path class="st0" d="M830.2,246.1l-0.7,0.8l-8.7,2.7l5,5.4l-1.3,0.8l-0.6,1.8l-3.4,0.8l-0.9,1.9l-1.7,1.7l-5.2-0.9l-0.2-0.7l1.5-8.5
	l-0.3-2.1l0.5-1.6l-0.3-3.3l0.6-1.7l5.2,2.2l8.1-5.7L830.2,246.1z"/>
<path class="st0" d="M1255.1,235.6l1.3,1.8l-1.1,3.2l-2.6-1.7l-1.8,1.2l0.1,3.1l-3.6-1.5l-1-2.5l1.1-3.2l2.8,0.7l0.8-2.2
	L1255.1,235.6z"/>
<path class="st0" d="M1275.6,219.6l0.5,4.2l2.1,2.7l-0.5,3.7l-4.5,2.5l-7.7,0.3l-3.7,6.2l-3.9-2.1l-2-4l-7.2,1.2l-4.2,2.5l-5.2,0.2
	l6.2,3.9l0.7,9.1l-2.1,2.2l-3-2.1l-0.8-4.8l-3.4-1.5l-3.3-3.7l3.6-1.7l0.9-3.4l3.2-2.7l1.7-3.7l8.1-1.6l5.2,1.1v-9.5l4.2,2.6
	l3.8-5.3l1.4-2.1l-0.8-6.5l-4.2-6l-0.2-3.3l4-1l6.8,7.4l2.3,4.2l-1.1,5.4L1275.6,219.6z"/>
<path class="st0" d="M1265.7,182.2l3.8,1.1l1.5-2.2l5,5.9l-5.3,1.4l-0.3,5.2l-9.1-3.6l1.3,5.7l-4.8,0.1l-3.9-5.2l-0.5-4.1l4.3-0.2
	l-3.7-7.3l-1.5-4.1l8.7,5.5L1265.7,182.2z"/>
<path class="st0" d="M946.9,133.9l3.7-0.2l7.7-4.8l-0.7,1.7l7,3.9l15.2,13l0.9-2.7l7,2.9l5.2-1.3l2.7,0.9l3.4,3l3.3,1l2.7,2.2l5-0.8
	l3.7,3.2l-1.6,3.5l-3.2,0.5l2.1,5.2l-1.3,2.4l-9-1.7l0.8,9.4l-1.7,1.2l-7.6,2.1l7.3,9.2l-2.4,1.3l1.4,3.1l-2.9-0.8l-2.8-1.9
	l-6.6-0.5l-7.2-0.2l-1.3,0.6l-6.8-2.2L969,188l0.4,3.1l-7.7-1.8l-2.6,0.8l-0.2,2.3l-2.2,1l-4.5,3.7l-0.8,3.8h-1.7l-1.9-2.5l-5.6-0.2
	l-2.1-4.3l-2.2-0.1l-1.2-5.3l-6.3-3.8l-7.2,0.4l-4.7,0.8l-5.5-4.7l-4-2l-7.7-3.7l-0.9-0.4l-10,3.1l5.2,19.5l-2.2,0.2l-4-4.2
	l-3.2-1.5l-4.7,1.1l-1.5,1.8l-0.5-1.3l0.5-2.2l-1.2-1.8l-5.4-1.8l-3.1-4.7l-2.7-1.3l-0.5-1.7l4.2,0.5l-0.8-3.8l3.4-0.8l3.9,0.8
	l-0.6-5.1l-1.6-3.2l-4.2,0.2l-3.9-1.2l-4.2,2.2l-3.7,1.2l-2.3-0.9l-0.2-2.7l-3.6-3.5l-3,0.2l-4.4-3.5l1.4-4l-1.5-1l1.8-5.7l5,3
	l-0.5-3.7l6.7-5.6l6.3-0.2l10,3.6l5.5,2.1l3.7-2.2l6.4-0.1l6.1,2.7l0.7-1.6l5.8,0.2l0.2-2.4l-7.8-3.6l2.9-2.5l-1.2-1.3l3.3-1.3
	l-4.2-3.5l1.2-1.7l14.2-1.7l1.4-1.2l9.1-1.9l2.6-2.1l7.6,1.1l3.7,5.2l3.6-1.2l5.9,1.7L946.9,133.9z"/>
<path class="st0" d="M851.3,397.2l-4.1,6l0.2,19.5l2.7,4.4l-3.3,2.2l-1.2,2.2l-1.8,0.3l-0.7,3.8l-1.6,2.2l-0.9,3.5l-1.9,1.7
	l-6.7-5.3l-0.2-3.1l-17.1-10.9l0.3-3.9l-1.2-2.1v-0.2l1.3-2.2l2.3-3.5l1.7-3.9l-2.2-6.2l-0.6-2.7l-2.2-3.7l2.8-3.2l3.2-3.5l2.4,0.9
	l0.1,3l1.6,1.7h3.3l6,4.5l1.5,0.1l1.1-0.2l1.1,0.6l3.2,0.5l1.3-2.2l4.3-2.2l1.9,1.8H851.3z"/>
<path class="st0" d="M998.7,191.9l-0.2,1.2l-5.7,2.8l-0.8,2.2l-5.3,0.6l-0.5,3.4l-4.8-0.7l-2.7,1.1l-3.4,2.5l1,1.2l-0.9,1.2l-8,0.8
	l-5.9-1.7l-4.6,0.4l-0.5-3l5,0.8l1.2-1.6l3.4,0.5l4.4-3.8l-6-2.8l-2.7,1.3l-3.8-2l2.5-3.4l-1.4-0.5l0.2-2.3l2.6-0.8l7.7,1.8L969,188
	l2.1-1.2l6.8,2.2l1.3-0.6l7.2,0.2l6.6,0.5l2.8,1.9L998.7,191.9z"/>
<path class="st0" d="M1156.3,342.2l1.5,3.6l0.1,6.4l-7.5,4.2l2.3,3.2l-4.9,0.4l-3.8,2.2l-4-0.8l-2.2-2.8l-2.9-5.5l-1.8-6.5l2.6-4.4
	l5.9-1l4.4,0.7l4.2,2.1l1.7-3.7L1156.3,342.2z"/>
<path class="st0" d="M1208.8,216.3v-0.5l2.1,0.2l0.5-2.3l3-0.3l1.7-0.3v-1.2l6.9,6.2l2.8,3.5l2.8,6.2l-0.4,2.9l-3.6,1l-2.6,2.2
	l-3.8,0.4l-1.8-2.9l-0.9-4l-4.4-5.5l2.8-0.9L1208.8,216.3z"/>
<path class="st0" d="M871.3,257.9l1.2,2.3l-0.2,1.2l2,4l-3.2,0.2l-1.4-2.6l-4.2-0.5l2.7-5.2L871.3,257.9z"/>
<path class="st0" d="M1156.3,342.2l-4.4-1.9l-1.7,3.7l-4.2-2.1l1.2-2.4l-0.3-4.5l-4.4-4.7l-1.1-5.3l-4.2-4.3l-3.6-0.3l-0.7,1.8
	l-2.7,0.2l-1.6-0.9l-4.4,3.2l-0.8-4.8l0.3-5.6l-3.2-0.2l-0.8-3.2l-2.2-1.7l0.7-1.9l3.4-3.5l0.7,1.2l2.5,0.2l-1.7-6.2l2.2-0.8
	l3.3,4.2l2.9,4.8h5.7l2.5,4.7l-2.8,1.4l-1,1.9l6.1,3.2l4.8,6.3l3.7,4.7l4.1,3.7l1.7,3.7L1156.3,342.2z"/>
<path class="st0" d="M814.3,240.2l-1.2,0.1l-0.3,0.9h-1.5l1.1-4.4l1.8-3.7v-0.2l2.1,0.2l1,2.1l-2.2,2.1L814.3,240.2z"/>
<path class="st0" d="M614.1,377.1l-0.2,1.5l0.4,2.6l-1,2.4l1.3,1.5l1.5,0.3l2,2.2l0.2,2.1l-0.5,0.7l-0.3,4.4l-1.2,0.1l-4.8-2.6
	l-4.3-4.1l-4-2.9l-3.2-3.4l1.2-1.7l0.2-1.6l2.2-2.8l2.2-2.5l1.1-0.2l1.2-0.6l2,3.2l-0.3,2.2l0.9,1.2h1.3l0.9-2.2L614.1,377.1z"/>
<path class="st0" d="M767.3,249.3l-1.4,2.6l0.8,2.3l-0.9,3.2l1.7,4.3l1.1,19l0.8,19.7l0.4,10.7h-5.3v2.2l-18.8-10.2l-18.7-10.2
	l-4.6,2.9l-3.2,2l-2.7-2.9l-7.3-2.3l-2.1-3.3l-3.7-2.5l-2.1,1l-1.7-3l-0.2-2.2l-2.8-3.9l1.8-2.2l-0.5-3.3l0.5-2.9l-0.3-2.5l0.7-4.3
	l-0.3-2.5l-1.6-4.7l2.2-1.2l0.3-2.3l-0.5-2.2l3-2.1l1.3-1.7l2.2-1.5l0.1-4.1l5.3,1.8l1.9-0.5l3.7,0.9l6.1,2.4l2.3,4.7l4.1,1l6.5,2.2
	l5,2.7l2.1-1.4l2.1-2.4l-1.3-4.1l1.2-2.7l3.1-2.5l3.1-0.7l6.2,1.1l1.7,2.3l1.7,0.1l1.5,0.9l4.5,0.6L767.3,249.3z"/>
<path class="st0" d="M1036.5,385l-4,1.2l-2.4-4.2l-1.2-7.7l1.7-8.7l3.4,2.9l2.3,3.7l2.6,5.6l-0.5,5.6L1036.5,385z"/>
<path class="st0" d="M781,581.5l-1.7,0.6l-3.1-4.2l2.7-3.3l2.6-2.1l2.2-1.2l1.8,1.7l1.4,1.7l-1.6,2.6l-0.9,1.7l-2.6,0.8L781,581.5z"
	/>
<path class="st0" d="M757.7,123.1l0.8,2.2l-3,1.7l-0.4,2.8l-4,1.9h-3.9l-1.2-1.6l-2.1-0.6l-0.5-1.2l0.2-1.4l-1.8-0.8l-4.2-0.9
	l-1.4-4.2l4.2-1.5l6.6,0.3l3.7-0.5l0.7,1l2.1,0.3L757.7,123.1z"/>
<path class="st0" d="M679.3,154.6l-1.2,0.1l-0.9-0.4l0.3-2.9l1.1-0.2l0.8,1.2L679.3,154.6z"/>
<path class="st0" d="M759.1,113.9l2.1,1.1l0.8,2.4l1.7,3l-3.8,1.9l-2.2,0.8l-4.2-2.4l-2.1-0.3l-0.7-1l-3.7,0.5l-6.6-0.3l-4.2,1.5
	l-0.4-3.7l1.4-3.2l3.4-1.7l3.7,3.7l3.1-0.2l0.1-3.8l3.2-0.8l1.7,0.6l3.7,1.8L759.1,113.9z"/>
<path class="st0" d="M644.2,230.1l1.6,3.4l0.2,3.2l1.6,5.7l1.2,1.2l-0.8,2.1l-5.9,0.9l-2.1,1.9l-2.6,0.5l-0.2,4l-5.3,2.1l-1.7,2.7
	l-3.7,1.4l-4.5,0.8l-7.4,4l-0.1,6.3h-0.7l0.1,2.8l-2.8,0.2l-1.5,1.2h-2.1l-1.7-0.7l-3.8,0.6l-1.6,4.2l-1.5,0.4l-2.2,6.7l-6.6,5.7
	l-1.7,7.4l-2,2.4l-0.6,1.9l-10.4,0.4h-0.1l0.2-2.5l1.8-1.4l1.6-2.8l-0.2-1.8l1.7-3.7l2.7-3.4l1.6-0.8l1.3-3.1l0.2-2.9l1.7-3.2l3.2-2
	l3-5.4l0.1-0.1l2.4-2.1l4.2-0.6l3.7-3.7l2.3-1.4l3.9-4.5l-1-6.6l1.8-4.7l0.7-2.8l3-3.6l4.5-2.4l3.4-2.2l3.1-5.5l1.5-3.3l3.2,0.1
	l2.6,2.2l4.2-0.3l4.6,1.2H644.2z"/>
<path class="st0" d="M773,175.3l-1.1-2.4l0.2-2.2l-0.5-2.2l-2.8-3.2l-1.7-2.2l-1.5-1.5l-1.3-0.6l0.9-0.8l2.7-0.5l3.3,1.6l1.7,0.2
	l2.2,1.4l-0.1,1.7l1.7,0.8l0.9,2.2l1.7,1.3l-0.2,0.8l0.8,0.5l-1.1,0.4l-2.5-0.2l-0.5-0.8l-0.8,0.4l0.5,0.9l-0.9,1.7l-0.5,1.7
	L773,175.3z"/>
<path class="st0" d="M888.3,490.7l0.3,6.4l1.1,2.5l-0.6,2.6l-1,1.5l-1.3-3.1l-1,1.6l0.7,3.9l-0.6,2.3l-1.4,1.2l-0.6,4.6l-2.2,6.2
	l-2.8,7.3l-3.6,10.2l-2.4,7.4l-2.6,6.2l-3.8,1.2l-4.2,2.2l-2.5-1.3l-3.5-1.9l-1-2.8v-4.7l-1.2-4.2l-0.2-3.9l1.1-3.8l2.2-0.9l0.2-1.7
	l2.4-4.1l0.7-3.4l-0.9-2.5l-0.7-3.4l-0.1-4.9l1.8-3l0.8-3.4l2.3-0.2l2.7-1.1l1.8-1l2-0.1l2.8-3l4.1-3.3l1.5-2.7l-0.5-2.3l2,0.7
	l2.7-3.7l0.2-3.2l1.7-2.4l1.5,2.3l1.2,2.2L888.3,490.7z"/>
<path class="st0" d="M206.7,279.9l1.8-0.2l-2.7,4.7l-1.5,3.8l-1.5,7.2l-0.9,2.6l0.3,2.9l1.1,2.7l0.3,4.1l2.5,4l0.7,3.1l1.4,2.6
	l4.7,1.4l1.6,2.2l4.3-1.5l3.6-0.5l3.7-1l3-0.9l3.2-2.2l1.5-3.1l1-4.5l1-1.6l3.3-1.4l5.1-1.2l4.1,0.2l2.8-0.5l1,1.2l-0.5,2.6
	l-2.9,3.2l-1.5,3.2l0.7,0.9l-1,2.3l-1.7,4.2l-1-1.4l-0.9,0.1l-0.9,0.1l-2.1,3.2l-0.7-0.7l-0.6,0.2l-0.1,0.8l-4.3-0.1h-4.3l-0.4,3
	l-2.1,0.1l1.5,1.8l1.6,1.2l0.4,1.2l0.7,0.3l-0.3,1.8h-6l-2.7,4.3l0.6,1l-0.7,1.2l-0.3,1.6l-4.7-5.7l-2.2-1.7l-3.7-1.4l-2.7,0.4l-4,2
	l-2.4,0.5l-3.1-1.4l-3.4-1l-4-2.4l-3.4-0.7l-4.9-2.5l-3.6-2.6l-0.9-1.4L177,322l-4.5-1.7l-1.6-2.4l-4.5-3.1l-1.8-3.3l-0.7-2.7
	l1.6-0.5l-0.2-1.5l1.3-1.4l0.3-1.8l-1.2-2.4v-2.1l-1.1-2.7l-3.2-5.3l-3.8-4.2l-1.6-3.3l-3.4-2.2L152,280l1.4-3.2l-2-1.2l-2.1-2.7
	l-0.2-3.7l-2.3-0.5L145,266l-1.4-2.7l0.2-1.7l-1.2-4l-0.2-4.1l0.7-2.1l-2.6-2.2l-1.6,0.2l-2-1.4l-1.5,2.2l-0.1,2.5l-0.8,4.1l0.8,2.2
	l2.3,3.7l0.3,1.3l0.6,0.3l0.1,1.8l0.8-0.1v3.5l1.1,1.3l0.4,1.9l2.2,2.7l0.3,5l0.8,2.3l0.8,2.5l-0.2,2.8l2.2,0.2l1.3,2.4l1.2,2.4
	l-0.2,1l-2.3,1.9h-0.8l-0.6-3.2l-2.4-3.1l-2.8-2.6l-2.1-1.3l1-3.9l-0.1-2.9l-1.7-1.7l-2.6-2.3l-0.7,0.7l-0.8-1.4l-2.5-1.2l-1.8-3.2
	l0.4-0.3l1.7,0.2l2.2-2l0.8-2.4l-2.4-3.8l-2.2-1.4l-0.7-3.3l-0.5-3.6l-0.7-4.2l-0.2-4.8l5.2-0.4l5.9-0.6l-0.7,1.1l5.8,2.6l9.1,3.7h9
	h3.6l0.7-2.2h7.8l1.1,1.9l1.7,1.7l2,2.3l0.7,2.7l0.3,3l1.9,1.6l3.3,1.6l4-4.2l3.7-0.2l2.7,2.2l1.3,3.7l0.8,3.2l2,3l0.2,3.7l0.8,2.5
	l3.2,1.7L206.7,279.9z"/>
<path class="st0" d="M753,197.2l-0.8,0.2l-0.7,0.9l-2.3-0.1l-1.5,1.2l-2.8,0.4l-1.9-1.2l-0.8-2.2l0.4-1.8l0.6,0.1l0.1-1.1l2.4-0.8
	l1-0.2l1.4-0.2l2-0.2l2.3,1.7L753,197.2z"/>
<path class="st0" d="M673.7,315.7l0.1,12.3l-2.6,3.6l-0.3,3.3l-4.2,0.8l-6.4,0.4l-1.7,1.9l-3,0.2h-3l-1.2-1l-2.6,0.7l-4.4,2.2
	l-0.9,1.7l-3.6,2.3l-0.7,1.4l-2,1.1l-2.2-0.7l-1.2,1.3l-0.7,3.7l-3.7,4.4l0.2,1.8l-1.3,2.2l0.3,3.1l-2,0.8l-1.1,0.7l-0.8-2.2
	l-1.3,0.6l-0.8-0.1l-0.8,1.5H618l-1.2-0.8l-0.7,0.5l-1.4-1.6l0.2-1.6l-0.6-0.6l-1,0.5l0.2-1.7l0.9-1.3l-1.9-2.2l-0.5-1.5l-1.1-1.2
	l-0.9-0.2l-1.1,0.8l-1.6,0.7l-1.2,1.2l-2-0.4l-1.3-1.4l-0.8-0.2l-1.2,0.8h-0.7l-0.2-2l0.2-1.7l-0.4-2l-1.7-1.5l-0.9-3.1l-0.2-3.3
	l1.6-1l0.8-3.2l1.5-0.1l3.2,1.5l2.7-1.1l1.7,0.3l0.7-1.2l18.7-0.1l1.1-3.7l-0.8-0.7l-2.1-23.1l-2-23.1l7.1-0.1l15.5,11.7l15.6,11.7
	l1.1,2.5l2.9,1.5l2.2,0.9l0.1,3.4L673.7,315.7z"/>
<path class="st0" d="M1121.8,303.5l-3.4,3.5l-0.7,1.9l-2.5,1.2l-2.3,2.3l-3.2,0.2l-1.2,5.7l-1.8,1l2.9,4.7l3.4,3.9l2.4,3.6l-1.2,4.6
	l-1.5,1l1.5,2.7l3.6,4.2l0.8,3l0.2,2.5l2.2,4.9l-2.2,5l-1.8,5.5l-0.8-4l1.1-4.1l-1.8-3.2l-0.2-5.8l-2.2-2.8l-2.2-6.3l-1.7-6.7
	l-2.6-4.5l-2.7,2.7l-4.8,3.7l-2.7-0.4l-3-1.2l0.8-6.7l-1.7-5l-4.4-6.2l0.2-1.9l-2.8-0.8l-3.8-4.3l-0.9-4.3l1.8,0.8l-0.5-3.8l2.1-1.2
	l-0.8-2.2l0.8-1.8l-0.8-5.6l3.8,1.2l1.3-4.4l-0.2-2.6l1.7-4.5l-0.8-3.1l5.2-3.7l3.5,0.9l-1.2-3.2l1.4-1l-0.8-2l2.6-0.4l2.2,3.2
	l2.2,1.2l1.1,4.1l0.8,4.4l-3.5,4.5l0.6,6.3l4.7-0.9l2,4.9l3.1,1.1l-0.7,4.4l3.8,2l2.2,1l3.2-1.6L1121.8,303.5z"/>
<path class="st0" d="M740.6,189.4l-0.7,1.2l-1.2,0.5l-0.3-1l-1.6,2.6l0.4,1.7l-0.9-0.4l-1.4-1.7l-1.9-1.1l0.4-0.8l0.3-2.9l1.3-1.2
	l0.7-0.5l1.2,0.9l0.7,0.7l1.4,0.6l1.7,1.1L740.6,189.4z"/>
<path class="st0" d="M1078.4,151.3l3.3-1l4.7-0.7l4.5,0.7l5.5,2.4l4.1,2.7h3.8l5.7,0.8l3-1.3l4.9-0.8l3.7-3.7l2.8,0.6l3.2,1.7
	l4.7-0.5l0.5,3.9l0.2,5.2l2.3,2.1l1.9-0.7l4.6,0.8l2.1-1.9l4.3,1.7l6,3.7l0.7,1.8l-3.7-0.6l-5.7,0.7l-2.1,1.5l-1.1,3.5l-5.3,2
	l-2.7,2.8l-4.9-1.1l-2.7-0.5l-0.4,3.4l2.4,2l1.6,1.7l-2,1.8l-1.7,2.8l-4.1,1.8l-6.3,0.2l-6,1.8l-3.7,2.8l-2.8-1.6h-5.2l-7.8-3.2
	l-4.7-0.7l-5.3,0.7l-9.4-1.2l-4.7,0.2l-3.9-3.2l-4.2-4.8l-2.8-0.6l-6.7-3.3l-6-0.7l-5.4-0.9l-2.5-2.3l-1.2-6.1l-4.8-4.2l-6.8-1.9
	l-4.7-2.7l-2.8-3.7l3.9-0.9l5.6-4.4l4.9-2.4l4.4,1.6l4.3,0.1l4,2.4l4.2,0.2l6.7,1.3l2-3.7l-3.3-3l1.1-5.3l5.8,2.1l4,0.7l5.6,1.3
	l3,3.8L1078.4,151.3z"/>
<path class="st0" d="M804,561.1h-3.4l-0.2-2.4l-0.5-2.4l-0.3-1.9l1.2-5.9l-0.9-3.8l-1.8-7.5l5.2-6.1l1.4-3.8l0.7-0.5l0.7-3.2
	l-0.7-1.6l0.3-4l1.1-3.7l0.3-6.8l-2.3-1.7l-2.2-0.4l-0.9-1.3l-2.2-1.1l-3.9,0.1l-0.2-2l-0.3-3.8l14.3-4.4l2.7,2.6l1.2-0.5l1.8,1.3
	l0.2,2.2l-1.1,2.5l0.2,3.7l2.9,3.3l1.6-3.7l2.1-1.1l-0.1-6.9l-1.8-3.8l-1.6-1.7H817l-0.5-6.1l1.2-5.1l1.8-0.2l5.6,1.5l1.2-0.7
	l3.2-0.2l1.7-1.6l2.8,0.1l5.2-2.1l3.8-3.1l0.7,2.3l-0.4,5.3l0.4,4.7l-0.2,8.3l0.7,2.6l-1.6,3.8l-2,3.7l-3.1,3.3l-4.4,2l-5.4,2.6
	l-5.5,5.7l-1.8,1l-3.5,3.8l-1.9,1.2l-0.7,3.8l2,4.1l0.7,3.1v1.7l0.8-0.3l-0.4,5.2l-0.9,2.5l1,0.9l-0.8,2.2l-2,1.9l-3.9,1.7l-5.7,2.9
	l-2.1,2l0.2,2.2l1.1,0.3L804,561.1z"/>
<path class="st0" d="M631.2,284.6l-7.1,0.1l2,23.1l2.1,23.1l0.8,0.7l-1.1,3.7l-18.7,0.1l-0.7,1.2l-1.7-0.3l-2.7,1.1l-3.2-1.5
	l-1.5,0.1l-0.8,3.2l-1.6,1l-3-3.7l-2.8-4l-3-1.4l-2.2-1.5h-2.6l-2.3,1.2l-2.2-0.4l-1.7,1.7l-0.3-2.8l1.3-2.7l0.7-5l-0.3-5.3
	l-0.5-2.7l0.5-2.7l-1.2-2.5l-2.3-2.3l1.1-1.7H594l-0.8-7.7l1.2-2.7l4.3-0.4l0.2-13.7l15,0.3l0.2-8.2L631.2,284.6z"/>
<path class="st0" d="M817,490.7h0.3l1.6,1.7l1.8,3.8l0.1,6.9l-2.1,1.1l-1.6,3.7l-2.9-3.3l-0.2-3.7l1.1-2.5l-0.2-2.2l-1.8-1.3
	l-1.2,0.5l-2.7-2.6l-2.4-1.3l1.7-5l1.5-1.8l-0.7-4.5l1.1-4.3l0.8-1.4l-1.1-4.5l-2.2-2.4l4.6,1l0.8,1.4l-0.1,0.7l1.5,3.4l0.2,6.4
	l-1.5,3l1.3,3.9l-0.2,2.3l1,1.6l-0.1,2l0.7,1.2l0.8-1.3l1.6,2.1l0.2-0.7l-0.8-2.8l-0.9-0.2L817,490.7z"/>
<path class="st0" d="M1135.1,384.9l1.2,0.5l2.9,3.2l2.1,3.6l0.5,3.6l-0.4,2.4l0.5,1.8l0.4,3.2l1.8,1.5l1.9,4.7v1.7l-3.3,0.4l-4.6-4
	l-5.7-4.2l-0.7-2.7l-2.8-3.6l-0.8-4.4l-1.8-2.9l0.3-3.9l-1.2-2.2l0.8-0.9l4,2.3l0.5,2.7l3.1-0.7L1135.1,384.9z"/>
<path class="st0" d="M1209.8,396.1l-4.2-0.9h-5.4l-1.4,6.1l-1.8,1.8l-2.2,7.4l-3.8,1.2l-4.5-1.5l-2.2,0.5l-2.8,2.7l-3-0.3l-3.1,1.1
	l-3.2-3.1l-0.8-3.6l3.5,1.8l3.6-1l0.8-4.5l2-1l5.7-1.2l3.2-4.2l2.2-3.3l2.3,2.7l0.9-1.8l2.2,0.2l0.1-3.4l0.1-2.7l3.4-3.7l2.2-4.2
	l1.9-0.1l2.6,2.7l0.3,2.3l3.2,1.5l4,1.6l-0.2,2.1l-3.2,0.2l0.9,2.7L1209.8,396.1z"/>
<path class="st0" d="M762,511.8l3.8-1.2l3,0.2l1.8,1.2v0.4l-2.7,1.2h-1.4l-3.1,2.1l-1.7-2.2l-7.2,1.9l-3.5,0.2l-0.7,19.1l-4.6,0.2
	l-0.5,15.6l-0.9,19.7l-4.2,2.7l-2.4,0.4l-2.8-1l-2.1-0.4l-0.7-2.2l-1.7-1.5l-2.3,2.7l-3.2-4.1l-1.7-3.8l-0.8-5.2l-1-3.8l-1.3-8.2
	l0.1-6.4l-0.5-2.9l-1.7-2.2l-2.3-4.4l-2.3-6.4l-0.9-3.3l-3.7-5.2l-0.2-4.1l2.2-1l2.8-0.9l3,0.2l2.7,2.4l0.7-0.4l18.9-0.2l3.2,2.5
	l11.2,0.8L762,511.8z"/>
<path class="st0" d="M722.3,295.9l1.3,8.3l1.8,1.4l0.1,1.7l2,1.8l-1,2.3l-1.5,10.8l-0.2,7l-5.8,5l-1.9,7.1l2,2v3.4l3.1,0.1l-0.5,2.6
	l-1.2,0.2l-0.2,1.7l-0.8,0.1l-3.2-5.8l-1.2-0.2l-3.6,3l-3.7-1.6l-2.5-0.2l-1.3,0.8l-2.7-0.2l-2.7,2.2l-2.4,0.2l-5.7-2.7l-2.2,1.2
	l-2.4-0.1l-1.7-2l-4.7-2l-5.1,0.7l-1.2,1.1l-0.7,3.1l-1.3,2.2l-0.3,4.8l-3.6-3.1h-1.7l-1.6,1.6l0.1-3.7l-5.4-1.2l-0.2-2.6l-2.6-3.5
	l-0.7-2.4l0.4-2.6l3-0.2l1.7-1.9l6.4-0.4l4.2-0.8l0.3-3.3l2.6-3.6l-0.1-12.3l6.5-2.3l13.3-10.5l15.7-10.2l7.3,2.3l2.7,2.9
	L722.3,295.9z"/>
<path class="st0" d="M720.3,351.4l1.9,2.1l-0.5,1l-0.2,1.7l-3.9,4.2l-1.2,3.4l-0.7,2.7l-1,1.2l-0.9,3.7l-2.5,2.2l-0.7,2.7l-1.1,2.2
	l-0.4,2.2l-3.2,1.8l-2.7-2.2l-1.7,0.1l-2.8,3.2h-1.3l-2.2,5.2l-1.2,3.8l-4.9,1.9l-1.7-0.2l-1.8,1.2l-3.7-0.1l-2.6-3.4l-1.6-3.8
	l-3.3-3.5h-3.5h-4.2l0.2-8.6l-0.2-3.4l0.9-3.3l1.4-1.7l2.3-3.3l-0.5-1.4l0.9-2.2l-1.1-3.2l0.2-1.7l0.3-4.8l1.3-2.2l0.7-3.1l1.2-1.1
	l5.1-0.7l4.7,2l1.7,2l2.4,0.1l2.2-1.2l5.7,2.7l2.4-0.2l2.7-2.2l2.7,0.2l1.3-0.8l2.5,0.2l3.7,1.6l3.6-3l1.2,0.2l3.2,5.8L720.3,351.4z
	"/>
<path class="st0" d="M265.2,337.9l-0.4,0.6l-0.4,1.2l0.3,1.9l-1.2,1.8l-0.7,2.2l-0.4,2.3l0.2,1.4l-0.1,2.4l-0.7,0.5l-0.6,2.3
	l0.2,1.4l-1,1.3l0.1,1.4l0.7,0.9l-1.2,1.2l-1.4-0.4l-0.7-1.1l-1.5-0.4l-1.1,0.7l-3-1.4l-0.8,0.7l-1.5-1.7l-2.1-2.2l-0.9-1.7
	l-1.8-1.7l-2.1-2.4l0.6-0.8l0.7,0.8l0.4-0.3l1.5-0.2l0.7-1.2h0.7l0.2-2.7l1.1-0.1h1l1.2-1.4l1.2,1.1l0.5-0.7l1-0.7l1.7-1.4l0.2-1.2
	l0.4,0.1l0.7-1.2l0.5-0.2l0.7,0.8l0.9,0.2l1.1-0.7h1.2l1.7-0.7l0.7-0.7L265.2,337.9z"/>
<path class="st0" d="M759.9,56.4l-5.3,1.7l-2.7,0.4l0.7-3.2l-4.8-1.7l-4.9,1.5l-0.9,3.3l-2.8,2l-3.9-1.1l-4.4,0.2l-4.2-2.3l-1.8,1.2
	l-2.2,0.2l0.1,3l-6.7-0.7l-0.5,2.6h-3.3l-1.9,3.2l-2.8,5.1l-4.7,6.6l1.5,1.7l-1.1,1.8l-3.6-0.1l-2,4.5l0.8,6.4l2.6,2.4l-0.7,5.7
	l-2.8,3.3l-1.5,2.8l-2.7-3l-7.2,5.7l-5.1,1.2l-5.4-2.5l-1.5-5.2l-1.7-11.2l3.3-3.1l9.4-4.1l6.7-4.9l6-6.5l7.4-8.9l5.3-3.4l8.6-5.7
	l7.1-2l5.6,0.2l4.3-3.7l6.2,0.2l5.8-0.8l11.4,3.2l-4.1,1.2L759.9,56.4z"/>
<path class="st0" d="M729,21.2l-6.3,1.6l-5.7-0.9l1.8-1l-2.2-1.2l6.1-0.7l1.6,1.4L729,21.2z"/>
<path class="st0" d="M707.7,14.1l10.5,2.8l-7.2,1.5l-1,2.8l-2.5,0.7l-0.7,3.3l-3.7,0.2l-7.1-2.4l2.5-1.4l-4.7-1.2l-6.4-3.2l-2.7-2.9
	l7.7-1.3l1.9,1.2h4.2l0.8-1.2l4.3-0.2L707.7,14.1z"/>
<path class="st0" d="M728,11.6l6.2,1.2l-3.7,2l-8.4,0.4l-8.9-0.7l-0.8-1h-4.2l-3.6-1.7l8.7-1l4.5,0.8l2.6-1.1L728,11.6z"/>
<path class="st0" d="M1055.7,269.1l0.2,2.2l1.2,3.4l-0.1,2.1l-3.8,0.1l-5.7-1.2l-3.6-0.5l-3.2-2.7l-6.4-0.7l-6.5-3l-4.8-2.6l-4.8-2
	l0.8-5l2.3-2.5l1.6-1.2l4,1.7l5.3,3.5l2.8,0.7l2.1,2.6l3.8,1l4.2,2.4l5.4,1.2L1055.7,269.1z"/>
<path class="st0" d="M901.5,329.1l-1.8-3.7l-4.3-8.8l13.6-5.3l2.2-10.7l-2.5-3.8v-2.2l1.1-2.2l-0.2-2.2l2-1.1l-0.9-0.8v-3.5h2.3
	l2.5,3.7l2.7,1.9l3.4,0.7l2.8,0.9l2.4,3.1l1.4,1.7l1.7,0.8l0.2,1.2l-1.4,3.2l-0.6,1.5l-1.8,1.7l-1.4,3.7l-2.1-0.3l-0.8,1.3l-0.6,2.7
	l0.9,3.6l-0.4,0.7h-2.1l-2.7,2l-0.2,2.6l-1,1.2l-2.9-0.1l-1.7,1.3l0.2,2.2l-2.2,1.5l-2.6-0.5l-3,1.8L901.5,329.1z"/>
<path class="st0" d="M911.8,280.6l-1.1-1.8l1.2-1.7l0.6,0.4l-0.2,2.2L911.8,280.6z"/>
<path class="st0" d="M999.6,228.3l-3.2,4.5l-4.7,0.8l-7.1-1.3l-1.7,2.3l2.7,4.7l2.4,3.7l4.2,2.6l-3.2,3.1l0.8,3.8l-3.2,5.4l-1.8,5.4
	l-3.7,5.6l-5.4-0.4l-4.1,5.7l3.3,2.3l1.2,4.2l2.9,2.7l1.5,4.6h-10.1l-2.7,3.6l-3.5-1.3l-1.8-3.8l-4.1-4.1l-8.3,1l-7.5,0.1l-6.3,0.8
	l0.9-6.2l6.2-2.8l-0.7-2.4l-2.2-0.9l-0.8-4.7l-4.7-2.3l-2.3-3.2l-2.7-2.8l8,2.7l4.4-0.8l2.8,0.7l0.7-1.2l3.2,0.5l5.5-2.2l-0.7-4.5
	l1.9-3.1h3.4l0.2-1.4l3.3-0.8l1.7,0.5l1.5-1.5l-0.9-3.2l1.2-3.2l2.6-1.4l-2.6-3.5l4.3,0.2l0.7-1.9l-0.7-2.1l1.7-2.2l-1.2-2.7
	l-1.6-2.2l2-2.3l4.4-1.1l4.9-0.7l2-0.9l2.4-0.7l3.9,2.5l2.4,4.2L999.6,228.3z"/>
<path class="st0" d="M289.9,371.8l-0.6,0.8l0.9,3.2l-0.9,1.6l-1.5-0.4l-0.7,2.6l-1.5-1.5l-0.8-2.9l1.2-1.4l-1.2-0.3l-0.7-1.7
	l-2.3-1.5l-2,0.3l-1.1,1.8l-2,1.3l-1,0.2l-0.5,1.2l2.1,2.9l-1.3,0.7l-0.7,0.8l-2.2,0.3l-0.7-3.2l-0.7,0.9l-1.5-0.3l-0.8-2.1
	l-1.9-0.4l-1.2-0.6h-2L264,375l-0.5-0.8l0.2-1.1l0.5-1.1l-0.2-0.9l0.8-0.7l-0.9-0.8l0.1-2.2l1.8-0.5l1.6,1.9l-0.2,1.2l1.8,0.2
	l0.5-0.5l1.2,1.3l2.3-0.4l2.1-1.3l2.9-1.1l1.7-1.6l2.6,0.3l-0.2,0.5l2.6,0.2l2,1l1.5,1.6L289.9,371.8z"/>
<path class="st0" d="M324.2,441.1l-4.2-0.2l-0.7,0.8l-3.8,1l-5.2,3.7l-0.2,2.5l-1.2,1.8l0.6,2.9l-2.8,1.5l0.2,2.3l-1.2,0.9l2.2,4.8
	l2.7,3.2l-0.8,2.3l3.2,0.2l1.9,2.9l4.2,0.1l3.7-3.1l0.1,8.1l2.2,0.6l2.7-0.9l4.6,8.7l-0.9,1.7v3.8l0.2,4.5l-1.6,2.7l1,2l-0.9,1.8
	l2.4,4.5l-2.4,5.7l-0.9,2.7l-2.3,1.3l-4.9-3.1L321,511l-9.7-5.3l-8.9-5.9l-3.9-3.2l-2.3-4.4l0.7-1.6l-4.5-7l-5.3-9.8l-5-10.7l-2-2.5
	l-1.7-3.9l-3.8-3.5L271,451l1.4-2.3l-2.5-5.2l1.4-3.7l3.7-3.3l0.6,2.2l-1.3,1.2l0.2,1.9l1.9-0.4l1.9,0.6l2.1,2.7l2.6-2.2l0.7-3.6
	l2.8-4.7l5.6-2.1l5.1-5.7l1.4-3.4L298,419l1.2-0.5l3.2,2.5l1.5,2.6l2.2,1.3l2.9,5.6l3.5,0.7l2.6-1.4l1.7,0.9l2.8-0.5l3.7,2.5
	l-2.9,5.5l1.4,0.1L324.2,441.1z"/>
<path class="st0" d="M1248.5,373.2l0.8,3.6l0.5,3l-1.3,4.8l-2.1-5.4l-2,2.7l1.8,3.9l-1.2,2.5l-5.8-3.1l-1.6-3.9l1.2-2.5l-3.2-2.6
	l-1.3,2.2l-2.2-0.2l-3.3,3l-0.8-1.6l1.5-4.5l2.8-1.5l2.4-2l1.8,2.4l3.5-1.4l0.6-2.4l3.3-0.2l-0.7-4.1l4.1,2.5l0.6,2.7L1248.5,373.2z
	"/>
<path class="st0" d="M1236.3,363.2l-1.5,1.7l-1.2,3.4l-1.3,1.6l-3.2-3.7l0.8-1.5l1.1-1.5l0.2-3.2l2.6-0.3l-0.4,3.6l3-5.2V363.2z"/>
<path class="st0" d="M1211.1,368.3l-5.9,5.1l2-3.7l3.2-3.3l2.5-3.7l1.9-5.3l1.3,4.4l-2.9,2.9L1211.1,368.3z"/>
<path class="st0" d="M1225.7,354.6l3,1.7h2.9l0.2,2.2l-1.9,2.3l-2.8,1.6l-0.4-2.5l0.1-2.7L1225.7,354.6z"/>
<path class="st0" d="M1242.4,353.1l2,6l-3.8-1.4l0.2,1.8l1.5,3.2l-2.2,1.2l-0.5-3.8l-1.5-0.2l-1-3.2l2.7,0.4l-0.2-2l-3.3-4.1
	l4.5,0.1L1242.4,353.1z"/>
<path class="st0" d="M1223.2,348.2l-0.8,4.7l-2.2-2.7l-2.9-4.1l4,0.2L1223.2,348.2z"/>
<path class="st0" d="M1217.8,319.2l3.2,1.6l1.2-1.4l0.7,1.3l-0.3,2.2l2.2,3.8l-0.5,4.4l-2.4,1.7l-0.1,4.3l1.7,4.2l2.5,0.6l2-0.6
	l6.2,2.9l-0.1,2.9l1.8,1.3l-0.2,2.4l-3.9-2.6l-2.1-2.8l-1,2l-3.3-3.2l-4.2,0.8l-2.5-1.2l-0.1-2.2l1.3-1.3l-1.6-1.2l-0.3,1.9
	l-2.8-3.1l-1.1-2.3l-0.9-5.1l2.2,1.7l-0.9-8.4l0.7-4.8H1217.8z"/>
<path class="st0" d="M1388,454.6l-1.3,0.6l-1.9-2.1l-1.8-3.4l-0.7-4.1l0.7-0.5l0.4,1.6l1.3,1.2l2,3.3l2.1,1.8L1388,454.6z"/>
<path class="st0" d="M1370.2,447.5l-2.5,0.4l-0.8,1.5l-2.7,1.3l-2.5,1.2h-2.6l-3.8-1.6l-2.6-1.5l0.5-1.7l4.2,0.8l2.7-0.4l0.8-2.6
	l0.8-0.2l0.2,2.8l2.7-0.3l1.5-1.8l2.8-1.9l-0.3-3.2l2.8-0.1l0.9,0.8l-0.3,3L1370.2,447.5z"/>
<path class="st0" d="M1317.1,466.9l1.3-17.5l0.8-17.4l8,3.7l8.6,3.1l3.1,2.7l2.5,2.7l0.5,3.2l7.7,3.3l0.9,2.8l-4.3,0.6l0.8,3.6
	l3.9,3.5l2.5,5.7l2.8-0.2l-0.5,2.3l3.6,0.9l-1.5,1l4.7,2.2l-0.8,1.6l-3.2,0.3l-1-1.3l-3.9-0.7l-4.7-0.8l-3.3-3.4l-2.3-3l-2.1-4.7
	l-5.9-2.3l-4.1,1.5l-3.1,1.8l0.2,3.9l-3.8,1.8l-2.6-0.9L1317.1,466.9z"/>
<path class="st0" d="M1376,442.2l-1.5,1.4l-0.8-3.2l-0.9-2l-2.1-1.7l-2.6-2.3l-3.3-1.6l1.3-1.2l2.5,1.5l1.6,1.2l1.9,1.2l1.7,2.2
	l1.8,1.7L1376,442.2z"/>
<path class="st0" d="M731.7,129.1l4.9,0.6l7.3-0.1l2.1,0.6l1.2,1.6l0.5,2.2l1.4,1.9l0.3,2l-2.3,1.1l1.6,2.3l0.4,2.3l2.7,4.5
	l-0.2,1.4l-1.9,0.6l-3.2,4.3l1.3,2.3l-0.9-0.3l-4.2-2l-2.9,0.7l-2-0.5l-2.3,1.1l-2.2-1.8l-1.6,0.8l-0.2-0.3l-2.2-2.6l-3.1-0.2
	l-0.6-1.7l-2.8-0.6l-0.5,1.3l-2.3-1.1l0.2-1.4l-3.1-0.4l-2.1-1.7l-2-3.2l0.2-1.8l-1.2-2.7l-1.6-1.8l1-1.4l-1.2-2.6l2.6-1.5l5.9-2.3
	l4.8-1.7l4,0.8l0.5,1.2H731.7z"/>
<path class="st0" d="M1215,191.7l1.2,0.9l-1.8-0.3l-0.8,1.8l-0.2,1.7l2.3,3.8l-1.6,1.2l-0.2,0.9l-0.8,1.6l-2.4,0.9l-1.2,1.4l1.1,2.2
	l-0.2,0.6l2.2,0.9l3.7,2.3v1.2l-1.7,0.3l-3,0.3l-0.5,2.3l-2.1-0.2v0.5l-2.7-1l-0.1,1l-1.1,0.4l-0.6-1l-1.4-0.5l-1.6-0.8l0.1-2.3
	l0.7-0.7l-0.8-0.9l-0.3-2.9l-0.8-0.8l-2.8-0.6l-2.8-1.4l1.8-3.4l3.2-2.8l0.9-3.8l3,1.7l3.8,0.2l-2.3-2.8l5.3-2.2v-3L1215,191.7z"/>
<path class="st0" d="M384.2,526.1l1.7,2.9l0.3,7.2l4.9,1.1l1.8-1.1l3.2,1.5l1,1.6l0.9,4.9l0.7,2l1.7,0.2l1.7-0.8l1.7,0.9l0.2,3
	l-0.2,3.2l-0.6,3.1l-0.2,4.7l-3.6,4.2l-3.5,0.8l-5.2-0.8l-4.8-1.4l3.5-8.2l-0.9-2.3l-4.9-2.1l-6.1-4l-3.8-0.8l-9.4-8.7l1.2-6.4
	l-0.2-2.9l1.7-4.7l8-1.6l4.3,0.1l4.5,2.7L384.2,526.1z"/>
<path class="st0" d="M813.7,244.9l0.3,3.3l-0.5,1.6l-2.1,0.7l0.1-1.4l1.1-0.8l-1.2-0.6l0.6-3.5L813.7,244.9z"/>
<path class="st0" d="M890.1,286.4l-1.2,0.4l-1.5-1.1l-0.7-3.9l0.9-2.7l1.2-0.6l1.5,1.7l0.4,3.1L890.1,286.4z"/>
<path class="st0" d="M764.2,161l1.3,0.6l1.5,1.5l1.7,2.2l2.8,3.2l0.5,2.2l-0.2,2.2l1.1,2.4l2,1l1.9-0.9l2,0.9l0.3,1.4l-1.9,1.1
	l-1.3-0.5l-0.3,6.4l-2.6-0.6l-3.3-1.9l-4.9,1.2l-1.9,1.3l-6.3-0.3l-3.3-0.8l-1.6,0.3l-1.5-2.2l-0.8-0.9l0.8-0.9l-1.1-0.6l-1.2,1.2
	l-2.6-1.6l-0.6-2.2l-2.7-1.2l-0.7-1.7l-2.5-2l3.2-1l2.2-3.6l1.6-3.5l2.4-1.1l1.7-1.2l2.7,0.6h2.7l2.1,1.3l1.3-0.8l3-0.5l0.8-1.2
	H764.2z"/>
<path class="st0" d="M797.4,424.2l1.8,3l-0.2,3.2l-1.3,0.7l-2.6-0.3l-1.4,3.1l-2.9-0.4l0.5-3l0.7-0.4l0.2-3.2l1.3-1.5l1.2,0.6
	L797.4,424.2z"/>
<path class="st0" d="M614.3,270.3l-0.1,0.3l-0.1,1l-0.2,8.2l-15-0.3l-0.2,13.7l-4.3,0.4l-1.2,2.7l0.8,7.7h-18.1l-1.1,1.8l0.2-2.2
	h0.1l10.4-0.4l0.6-1.9l2-2.4l1.7-7.4l6.6-5.7l2.2-6.7l1.5-0.4l1.6-4.2l3.8-0.6l1.7,0.7h2.1l1.5-1.2l2.8-0.2l-0.1-2.8H614.3z"/>
<path class="st0" d="M865.5,262.5l4.2,0.5l1.4,2.6l3.2-0.2l2.2,4.7l2.4,1.2l1,1.9l3.3,2.2l0.6,2.2l-0.3,1.8l0.7,1.7l1.5,1.5l0.8,1.8
	l0.8,1.3l1.5,1.1l1.2-0.4l1.1,2.1l0.2,1.2l2.2,5.5l14.1,2.7l0.8-1.2l2.5,3.8l-2.2,10.7l-13.6,5.3l-13.2,2.1l-4.2,2.4l-2.9,5.6
	l-2.2,0.9l-1.2-1.7l-1.7,0.2l-4.6-0.6l-0.9-0.5L859,325l-1.2,0.5l-2-1.3l-1.1,2.6l0.7,2.2l-2,1.8l-0.7-2.3l-1.5-1.6l-0.4-2.2
	l-2.6-1.9l-2.7-4.5l-1.6-4.3l-3.4-3.7l-2.1-0.9l-3.4-5.1l-0.7-3.7v-3.2l-3-6l-2.3-2.1l-2.5-1.1l-1.7-3.1l0.2-1.2l-1.5-2.8l-1.4-1.2
	l-2.1-4l-3.2-4.2l-2.6-3.7h-2.2l0.4-2.9l0.1-1.9l0.3-2.2l5.2,0.9l1.7-1.7l0.9-1.9l3.4-0.8l0.6-1.8l1.3-0.8l-5-5.4l8.7-2.7l0.7-0.8
	l5.7,1.5l7.2,3.7l14,10.7L865.5,262.5z"/>
<path class="st0" d="M824.2,341l-0.6,4.6l-1.7,5.3l-2.7,2.6l-1.9,4.2l-0.4,2.2l-2.2,1.5l-1.2,5.6v0.7l-0.7-0.2l0.1-2.7l-0.7-1.8
	l-2.4-2.1l-0.8-3.8l0.5-4l-2.2-0.3l-0.3,1.2l-2.8,0.3l1.2,1.5l0.4,3.2l-2.5,2.9l-2.2,3.8l-2.4,0.6l-4-3.1l-1.7,1.1l-0.4,1.5
	l-2.4,1.1l-0.2,1.1h-4.7l-0.7-1.1l-3.4-0.2l-1.7,0.9l-1.3-0.4l-2.4-3.2l-0.8-1.4l-3.4,0.8l-1.2,2.4l-1.1,4.8l-1.7,1l-1.4,0.6
	l-0.4-0.2l-1.6-1.6l-0.3-1.7l0.7-2.2v-2.2l-2.7-3.3l-0.6-2.2v-1.3l-1.7-1.6l-0.1-3.1l-1.1-2.1l-1.6,0.3l0.4-2l1.2-2.2l-0.6-2.2
	l1.5-1.7l-1-1.2l1.1-3.2l2.1-4l4,0.4l-0.9-21.2v-2.2h5.3l-0.4-10.7h18.6h17.9h18.4l1.7,5.2l-1,0.9l1,5.6l2.1,6.3l1.8,1.3l2.7,2
	l-2.2,3l-3.3,0.9l-1.4,1.7l-0.2,3.5l-1.7,7.9L824.2,341z"/>
<path class="st0" d="M813.5,367.6l0.2,4.2l-0.7,1.6l-2.5,0.2l-1.6,3l2.9,0.4l2.5,2.6l0.8,2.2l2.2,1.2l2.9,5.8l-3.2,3.5l-2.8,3.2
	l-2.9,2.5H808l-3.7,1.2l-3-1.2l-1.9,1.5l-4.2-3.6l-1.2-2.2l-2.6,1.1l-2.2-0.3l-1.2,0.9l-2.2-0.7l-2.9-4.4l-0.7-1.7l-3.6-2.2
	l-1.2-3.2l-2-2.3l-3.2-2.7l-0.1-1.7l-2.6-2.2l-3.2-2.1l1.4-0.6l1.7-1l1.1-4.8l1.2-2.4l3.4-0.8l0.8,1.4l2.4,3.2l1.3,0.4l1.7-0.9
	l3.4,0.2l0.7,1.1h4.7l0.2-1.1l2.4-1.1l0.4-1.5l1.7-1.1l4,3.1l2.4-0.6l2.2-3.8l2.5-2.9l-0.4-3.2l-1.2-1.5l2.8-0.3l0.3-1.2l2.2,0.3
	l-0.5,4l0.8,3.8l2.4,2.1l0.7,1.8l-0.1,2.7L813.5,367.6z"/>
<path class="st0" d="M596.9,340l0.2,3.3l0.9,3.1l1.7,1.5l0.4,2l-0.2,1.7l-0.7,0.3l-2.6-0.4l-0.3,0.6l-1,0.1l-3.4-1.2l-2.2-0.1
	l-8.7-0.2l-1.2,0.7l-1.6-0.2l-2.5,0.8l-0.7-4.1l4.2,0.1l1.2-0.8h0.8l1.7-1.2l2,1.1l2,0.2l2.1-1.2l-0.9-1.5l-1.6,0.8h-1.4l-1.8-1.3
	l-1.5,0.1l-1.1,1.3l-5.1,0.1l-1.9-4.2l-2.2-1.8l2.1-1.1l2.3-3.7l1.2-2.7l1.7-1.7l2.2,0.4l2.3-1.2h2.6l2.2,1.5l3,1.4l2.8,4L596.9,340
	z"/>
<path class="st0" d="M605.7,373.2l-2.2,2.5l-2.2,2.8l-0.2,1.6l-1.2,1.8l-1.2-0.4l-3.3-2.2l-2.5-2.8l-0.7-2l-0.6-3.9l2.6-2.4l0.5-1.4
	l0.8-1.2l1.3-0.2l1.1-1h3.7l1.3,1.9l1,2.2l-0.2,1.6l0.7,1.4l-0.1,1.9L605.7,373.2z"/>
<path class="st0" d="M242.6,346.6l-0.6,1.2l-2.7-0.1l-1.7-0.5l-1.8-1.1l-2.5-0.3l-1.2-1.2l0.2-0.7l1.7-1.3l1-0.6l-0.2-0.7l1.2-0.3
	l1.3,0.5l0.9,1l1.3,0.9l0.1,0.7l2.1-0.6l1,0.3l0.6,0.6L242.6,346.6z"/>
<path class="st0" d="M750.1,181.9l-0.9,1.2l0.6,2l2.3,2.2l-1.5,1.7l-0.5,1.7l0.5,0.7l-0.6,0.7l-2,0.2l-1.4,0.2l-0.2-0.4l0.5-0.6
	l0.3-1.3l-0.6,0.1l-0.9-1l-0.8-0.2l-0.7-0.8l-0.8-0.3l-0.7-0.8l-0.7,0.3l-0.4,1.7l-1,0.3l0.3-0.4l-1.7-1.1l-1.4-0.6l-0.7-0.7
	l-1.2-0.9l0.9-0.2l0.4-2.4l-2.2-2.1l0.9-2.3l-1.6,0.1l1.4-2l-1.4-1.5l-1.2-2.1l3.1-1.3l2.7,0.2l2.5,2l0.7,1.7l2.7,1.2l0.6,2.2
	l2.6,1.6l1.2-1.2l1.1,0.6l-0.8,0.9L750.1,181.9z"/>
<path class="st0" d="M399.6,387.4L397,392l0.2,3.7l1.8,3.2l-0.9,2.2l-0.4,2.5l-1.2,2.2l-2.7-1.2l-2.2,0.6l-1.9-0.5l-0.5,1.6l0.8,1
	l-0.5,1.2l-2.6-0.5l-2.7-4.7l-0.6-3h-1.5l-2-3.8l0.9-2.8l-0.2-1.2l2.9-1.3l0.8-4.8l5.7,1.1l0.5-1l3.8-0.4L399.6,387.4z"/>
<path class="st0" d="M746.9,156.5l-1,1.4l-0.6,2.1l-0.8,0.5l-4.6-1.6l-1.3,0.3l-0.8,1.2l-1.9,0.7l-0.5-0.3l-1.9,0.8l-1.6,0.2
	l-0.2,1.1l-3.4,0.6l-1.6-0.5l-2.2-1.4l-0.6-1.7l0.2-0.7l0.5-1.2l1.8,0.1l1.3-0.5l0.1-0.5l0.8-0.2l0.2-1.2l0.9-0.2l0.6-0.9h1.2
	l0.2,0.3l1.6-0.8l2.2,1.8l2.3-1.1l2,0.5l2.9-0.7L746.9,156.5z"/>
<path class="st0" d="M723.3,170l-3.2,1.4l-0.2,2.1l-1.4,0.6l0.1,1.4l-1.7-0.1l-1.5-0.8l-0.7,0.8l-3-0.2l0.9-0.4l-1.2-2.2l0.3-2.6
	l3.5,0.4l2-1.2l3.7-0.1l0.7-0.9l0.7,0.1L723.3,170z"/>
<path class="st0" d="M738.6,72.6l-5.8,1.3l-2.9,3.2l1.1,2.9l-5.2,3.7l-6.5,4.2l-1.7,6.7l3.1,3.4l4,2.7l-2.7,5.5l-3.8,1.2l-0.5,8.3
	l-1.7,4.7l-4.7-0.5l-1.8,4l-4.6,0.2l-1.6-4.7l-3.7-5.7l-3.5-7l1.5-2.8l2.8-3.3l0.7-5.7l-2.6-2.4l-0.8-6.4l2-4.5l3.6,0.1l1.1-1.8
	l-1.5-1.7l4.7-6.6l2.8-5.1l1.9-3.2h3.3l0.5-2.6l6.7,0.7l-0.1-3l2.2-0.2l5,2.2l6,3.1l1.5,7.1L738.6,72.6z"/>
<path class="st0" d="M799.8,556.3l0.5,2.4l0.2,2.4l-1.2,2.3l-2.7,0.6l-2.6-2.9l0.1-1.8l1.4-2l0.5-1.6l1.4-0.3L799.8,556.3z"/>
<path class="st0" d="M827.6,239.6l-8.1,5.7l-5.2-2.2h-0.1l0.5-0.8l-0.3-2.2l0.8-2.9l2.2-2.1l-1-2.1l-2.1-0.2l-0.9-4.1l0.8-2.2
	l1.1-1.2l1-1.2l-0.2-2.9l1.6,1l4.7-1.5l2.5,1h3.7l4.7-2l2.4,0.1l4.9-0.8l-1.7,3.3l-2.2,1.3l1,3.9l-0.8,6.4L827.6,239.6z"/>
<path class="st0" d="M764.5,313.4l0.9,21.2l-4-0.4l-2.1,4l-1.1,3.2l1,1.2l-1.5,1.7l0.6,2.2l-1.2,2.2l-0.4,2l1.6-0.3l1.1,2.1l0.1,3.1
	l1.7,1.6v1.3l-3,0.9l-2.3,2.2l-3.3,5.8l-4.3,2.5l-4.6-0.3l-1.3,0.5l0.5,1.8l-2.4,1.9l-2,2.1l-5.9,2l-1.2-1.2l-0.8-0.2l-0.8,1.4
	l-3.8,0.4l0.7-1.5l-1.5-3.7l-0.7-2.2l-2.1-0.9l-2.8-3.2l1-2.5l2.2,0.5l1.3-0.3h2.7l-2.7-4.8l0.2-3.6l-0.4-3.5l-1.9-3.4l0.5-2.6
	l-3.1-0.1v-3.4l-2-2l1.9-7.1l5.8-5l0.2-7l1.5-10.8l1-2.3l-2-1.8l-0.1-1.7l-1.8-1.4l-1.3-8.3l4.6-2.9l18.7,10.2L764.5,313.4z"/>
<path class="st0" d="M658,359.3l-0.6,2.8l1.4,1.6l1.7,1.8l0.2,2.7l1,1.1l-0.2,12.3l1.2,3.7l-3.7,1.2l-1.1-1.9l-1.2-3.4l-0.4-2.7
	l1.1-4.7l-1.2-2l-0.5-4.2v-3.9l-1.9-2.7l0.3-1.7L658,359.3z"/>
<path class="st0" d="M1146.1,341.8l-4.4-0.8l-5.9,1l-2.6,4.4l1.8,6.5l-4.4-2.5l-4,0.2l0.2-4.2h-4.1l0.2,5.9l-1.8,7.8l-1.2,4.7
	l0.6,3.8l3.1,0.2l2.2,4.9l1.1,4.6l2.8,3.1l2.8,0.6l2.6,2.8l-1.4,2.2l-3.1,0.7l-0.5-2.7l-4-2.3l-0.8,0.9l-1.9-2l-1-2.7l-2.7-3
	l-2.4-2.6l-0.6,3.2l-1.1-3l0.3-3.3l1-5.1l1.8-5.5l2.2-5l-2.2-4.9l-0.2-2.5l-0.8-3l-3.6-4.2l-1.5-2.7l1.5-1l1.2-4.6l-2.4-3.6
	l-3.4-3.9l-2.9-4.7l1.8-1l1.2-5.7l3.2-0.2l2.3-2.3l2.5-1.2l2.2,1.7l0.8,3.2l3.2,0.2l-0.3,5.6l0.8,4.8l4.4-3.2l1.6,0.9l2.7-0.2
	l0.7-1.8l3.6,0.3l4.2,4.3l1.1,5.3l4.4,4.7l0.3,4.5L1146.1,341.8z"/>
<path class="st0" d="M962.5,203.1l-1.2,1.6l-5-0.8l0.5,3l4.6-0.4l5.9,1.7l8-0.8l2.6,5l1.2-0.6l3.1,1.2l0.4,2.1l1.5,3h-4.5l-3.2-0.4
	l-2.1,2.4l-1.8,0.5l-1.2,1.2L969,220l-0.7-4.5l-1.4-0.2l0.1-1.7l-2.7-1.2l-1.4,1.8l0.2,2.2l-0.5,0.7l-2.7-0.1l-0.7,2.4l-1.7-1
	l-2.8,1.7l-1.5-0.6l1.1-5.4l-2-4l-3.5-1.2l0.5-2.3l3.7,0.2l1.2-2.9l0.4-3.4l5.4-1.2l-0.2,2.5l1.1,1.4L962.5,203.1z"/>
<path class="st0" d="M946.9,218.4l-1.3-0.2l-2.4-1.4l-0.2,1.8l-3.5,1.1l0.2,4.2l-2.2,1.7l-3.3,0.8l-0.3,2.4l-3.2,0.8l-4.9-2.1
	l-1.4-4.4l-3.3-0.2l-6.1-4.7l-3.6-0.6l-5.5-2.7l-3.2-0.5l-1.7,1l-3-0.2l-2.5,3.1l-3.7,1l-1.6-3.7l-0.5-5.6l-3.8-1.8l0.3-3.6
	l-2.9-0.3l-0.1-4.5l4.4,1.3l3.4-1.7l-3.9-3.2l-2-3l-3.2,1.3l0.5,3.9l-2.2-3.4l1.5-1.8l4.7-1.1l3.2,1.5l4,4.2l2.2-0.2l4.9-0.1
	l-1.4-2.7l3.2-1.8l2.8-3.1l6.6,2.8l1.6,4.2l1.9,1.1l4.6-0.2l1.7,1l3.6,5.5l5.9,3.7l3.5,2.5l5.2,2.6l6.4,2.3L946.9,218.4z"/>
<path class="st0" d="M1242,468.4l0.1-1.6l-0.4-1.1l0.7-1.2l4.1-1.2l3.3-0.2l1.5-0.7l1.8,0.7l-1.8,1.5l-5.1,2.3L1242,468.4z"/>
<path class="st0" d="M705.3,241l-0.1,4.1l-2.2,1.5l-1.3,1.7l-3,2.1l0.5,2.2l-0.3,2.3l-2.2,1.2l-2.2-9.6l-2.8-2.2l-0.1-1.2l-3.7-3.2
	l-0.5-4l2.7-3l0.9-4.4l-0.8-5.1l0.8-2.7l4.7-2.1l3.1,0.6v2.7l3.7-2l0.3,1l-2.1,2.7l0.1,2.4l1.6,1.3l-0.4,4.7l-2.9,2.7l1,2.9l2.3,0.1
	l1.2,2.6L705.3,241z"/>
<path class="st0" d="M833.2,196.2l4.6-0.2l4.7,2.7l1.1,1.8l0.1,2.6l3.5,1.3l2,1.5l-2.7,1.6l2.4,6.1l-0.6,1.7l3.2,4.2l-2,0.9
	l-1.7-1.3l-5.2-0.8l-1.7,0.8l-4.9,0.8l-2.4-0.1l-4.7,2h-3.7l-2.5-1l-4.7,1.5l-1.6-1l0.2,2.9l-1,1.2l-1.1,1.2l-1.9-2.4l1.4-2
	l-2.7,0.5l-3.8-1.2l-2.7,3.1l-6.7,0.6l-3.9-2.8l-4.7-0.2l-0.8,2.2l-3,0.7l-4.5-2.8l-4.8,0.1l-3.2-5.3l-3.5-2.9l1.7-4.2l-3-2.6
	l4.2-5.1l6.7-0.2l1.3-4.1l8.3,0.8l4.7-3.4l4.8-1.5l7.1-0.2l8.2,3.7l6.6,2.1l4.8-0.8l3.8,0.5L833.2,196.2z"/>
<path class="st0" d="M766.7,200l1-0.6l0.9-3.3l-2.2-1.4l4.2-1.7l3.8,0.7l0.7,2.1l4,1.7l-0.6,1.3l-5.2,0.2l-1.7,1.7l-3.2,2.8
	l-1.7-2.4L766.7,200z"/>
<path class="st0" d="M1213,296.3l-1.2,4.4l-3.3-4.6l-1.2-3.9l1.6-5.2l2.8-4.1l2.5,1.6l-0.1,3.2L1213,296.3z"/>
<path class="st0" d="M804.3,423.6l-0.2,3.2l-0.9,3.7l1.3,2.1l2.1-1.2l2.7-0.3l0.6,0.7l2.7-1.3l-1.9-1.8l1.6-2.4l2.3-2.4l17.1,10.9
	l0.2,3.1l6.7,5.3l-2.3,6.7l0.2,3l2.9,1.9l0.2,1.4l-1.4,3.2l0.2,1.6l-0.3,2.6l1.5,3.3l1.8,5.3l1.7,1.2l-3.8,3.1l-5.2,2.1l-2.8-0.1
	l-1.7,1.6l-3.2,0.2l-1.2,0.7l-5.6-1.5l-1.8,0.2l0.1-0.1l-1.5-2l-0.2-5.7l-2.4-2.8l-0.3,1l-0.8-1.4l-4.6-1l-2.7-1.6l-3-0.9l-1.8-0.9
	l-0.2-0.2l-2.2-5.5l-0.3-3.2l-3.7-3.7l1.2-2l-0.9-2.2l0.2-2.2l-0.8-0.7l0.2-2.3l0.5-0.1l1.7-1.9l1.9-2.8l1.2-1.1v-1.7l-1-1.2
	l-0.2-2.1l1.3-0.7l0.2-3.2l-1.8-3l1.7-0.7L804.3,423.6z"/>
<path class="st0" d="M814.2,395.4l2.2,3.7l0.6,2.7l2.2,6.2l-1.7,3.9l-2.3,3.5l-1.3,2.2v0.2l-0.2-0.3l-2.5-1.1l-2,1.3l-3,0.7
	l-2.2,3.1l0.2,2.1l-5.2-0.1l-1.7,0.7l-2.8,1.7l-1.2-0.6l0.1-4l1.1-2.1l0.2-4.2l1-2.5l1.8-2.7l1.7-1.5l1.6-1.8l-1.9-0.8l0.2-6.2
	l1.9-1.5l3,1.2l3.7-1.2h3.3L814.2,395.4z"/>
<path class="st0" d="M796.1,145.6l1.9,2.2l0.1,1l5.6,1.8l3-0.8l3,2.4l2.4-0.1l6.4,1.7l0.3,1.6l-1.1,2.7l1.5,2.9l-0.2,1.7l-4,0.3
	l-1.8,1.5l0.3,2.2l-3.2,0.4l-2.5,1.7l-3.8,0.2l-3.3,2l0.8,3.2l2.3,1.2l4.2-0.3l-0.5,1.9l-4.5,0.9l-5.2,3l-2.6-1.1l0.6-2.4l-4.9-1.6
	l0.6-1l3.8-1.7l-1.4-1.2l-6.7-1.3l-0.7-2l-3.7,0.7l-1.1,2.9l-2.7,3.8l-2-0.9l-1.9,0.9l-2-1l1-0.6l0.5-1.7l0.9-1.7l-0.5-0.9l0.8-0.4
	l0.5,0.8l2.5,0.2l1.1-0.4l-0.8-0.5l0.2-0.8l-1.7-1.3l-0.9-2.2l-1.7-0.8l0.1-1.7l-2.2-1.4l-1.7-0.2l-3.3-1.6l-2.7,0.5l-0.9,0.8h-1.7
	l-0.8,1.2l-3,0.5l-1.3,0.8l-2.1-1.3h-2.7l-2.7-0.6l-1.7,1.2l-0.4-1.4l-2.5-1.4l0.6-2.1l1-1.4l0.9,0.3l-1.3-2.3l3.2-4.3l1.9-0.6
	l0.2-1.4l-2.7-4.5l1.9-0.2l2-1.3l3.2-0.2l4.1,0.4l4.7,1.2l3.2,0.1l1.6,0.7l1.4-0.9l1.2,1.2l3.6-0.2l1.7,0.5l-0.2-2.6l1.1-1.2
	l3.4-0.2l1.5,0.2l0.8-1.2l1.2,0.2l4.1-0.5l3.2,2.9l-0.7,1.1l0.7,1.6L796.1,145.6z"/>
<path class="st0" d="M415.2,598.7l-1.3,3.4l-4.5,2.9l-3.5-1.1l-2.3,0.6l-4.6-2.2l-3,0.2l-3.2-3l-0.3-3.4l0.7-1.2l-1-5.3l0.3-5.5
	l0.4-4.3l2.8-0.6l5.2,4.2l1.6-0.2l5.2,3.4l4,3l3.2,3.6l-1.5,2.6L415.2,598.7z"/>
<path class="st0" d="M958.9,192.3l1.4,0.5l-2.5,3.4l3.8,2l2.7-1.3l6,2.8l-4.4,3.8l-3.4-0.5l-1.7,0.1l-1.1-1.4l0.2-2.5l-5.4,1.2
	l-0.4,3.4l-1.2,2.9l-3.7-0.2l-0.5,2.3l3.5,1.2l2,4l-1.1,5.4l-3.6-1.2h-2.5l-0.7-3.2l-6.4-2.3l-5.2-2.6l-3.5-2.5l-5.9-3.7l-3.6-5.5
	l-1.7-1l-4.6,0.2l-1.9-1.1l-1.6-4.2l-6.6-2.8l-2.8,3.1l-3.2,1.8l1.4,2.7l-4.9,0.1l-5.2-19.5l10-3.1l0.9,0.4l7.7,3.7l4,2l5.5,4.7
	l4.7-0.8l7.2-0.4l6.3,3.8l1.2,5.3l2.2,0.1l2.1,4.3l5.6,0.2l1.9,2.5h1.7l0.8-3.8l4.5-3.7L958.9,192.3z"/>
<path class="st0" d="M372.7,373.4l-3.9,3.2l-0.4,1.9l1.5,2l-1.2,1l-2.9,0.8v2.5l-1.3,1.5l3.1,4l0.6,1.5l-1.7,2.1l-5.3,2l-3.4,0.8
	l-1.4,1.2l-3.7-1.3L349,396l-0.9,0.5l2.1,1.3l-0.2,3.6l0.6,3.4l4,0.4l0.2,1.2l-3.4,1.5l-0.6,2.2l-2,0.9l-3.5,1.2l-0.9,1.7l-3.7,0.3
	l-2.6-2.8l-1.3-5.3l-1.2-1.9l-1.7-1.2l2.4-2.7l-0.2-1.2l-1.2-1.6l-0.9-3.6l0.5-3.8l1.1-1.8l1-2.8l-1.7-0.9l-2.7,0.6l-3.4-0.2
	l-1.9,0.6l-3.2-4.7l-2.7-0.7l-6.1,0.5l-1-1.8l-1.2-0.4l-0.1-1.2l0.6-2l-0.2-2.1l-1-1.2l-0.5-2.4l-2.4-0.3l1.5-3.2l0.8-3.8l1.5-2
	l1.9-1.5l1.3-2.7l3.1-0.9l-0.2,1.2l-2.8,0.7l1.4,2.4l-0.2,2.8l-2.2,3.1l1.6,4.2l2.1-0.3l1.2-3.9l-1.4-1.8v-4.1l6-2.2l-0.5-2.5
	l1.7-1.7l1.4,3.8l3.3,0.1l2.8,2.9l0.2,1.8h4.2l5.1-0.5l2.6,2.3l3.5,0.7l2.7-1.7l0.1-1.3l5.9-0.3l5.6-0.1l-4.1,1.6l1.5,2.6l3.7,0.3
	l3.5,2.7l0.6,4.2l2.4-0.1L372.7,373.4z"/>
<path class="st0" d="M1153.6,302.9l-5.4,4.5l-3.1,5.1l-0.5,3.7l4.4,5.6l5.4,7l4.7,3.3l3.4,4.2l3.3,9.9l0.3,9.4l-3.6,3.5l-5.1,3.5
	l-3.5,4.4l-5.5,5l-1.9-3.4l1-3.7l-3.7-3l3.8-2.2l4.9-0.4l-2.3-3.2l7.5-4.2l-0.1-6.4l-1.5-3.6l0.2-5.3l-1.7-3.7l-4.1-3.7l-3.7-4.7
	l-4.8-6.3l-6.1-3.2l1-1.9l2.7-1.4l-2.5-4.7h-5.7l-2.9-4.8l-3.3-4.2l2.2-1.3l3.7,0.1l4.4-0.7l3.4-2.8l2.6,2l4.4,1l-0.2,3.1l2.6,2.2
	L1153.6,302.9z"/>
<path class="st0" d="M901.5,329.1l-3.3,1.4l-0.7,2.4v1.8l-4.5,2.2l-7.3,2.5l-3.9,3.7l-2.1,0.3l-1.4-0.3l-2.7,2.2l-2.9,1l-3.9,0.2
	l-1.2,0.3l-0.9,1.4l-1.2,0.4l-0.7,1.3l-2.3-0.2l-1.4,0.7l-3.3-0.2l-1.3-3.2v-2.9l-0.8-1.6l-1.1-3.9l-1.5-2.2l0.9-0.3l-0.6-2.4l0.5-1
	l-0.3-2.3l2-1.8l-0.7-2.2l1.1-2.6l2,1.3l1.2-0.5l5.3-0.1l0.9,0.5l4.6,0.6l1.7-0.2l1.2,1.7l2.2-0.9l2.9-5.6l4.2-2.4l13.2-2.1l4.3,8.8
	L901.5,329.1z"/>
<path class="st0" d="M800.2,463.9l0.2,0.2l1.8,0.9l3,0.9l2.7,1.6l2.2,2.4l1.1,4.5l-0.8,1.4l-1.1,4.3l0.7,4.5l-1.5,1.8l-1.7,5
	l2.4,1.3l-14.3,4.4l0.3,3.8l-3.6,0.8l-2.7,2.1l-0.7,1.8l-1.7,0.5l-4.2,4.3l-2.7,3.5l-1.6,0.1l-1.5-0.6l-5.2-0.6l-0.8-0.4v-0.4
	l-1.8-1.2l-3-0.2l-3.8,1.2l-3-3.3l-3-4.3l0.7-17.1l9.7,0.1l-0.3-1.8l0.8-2l-0.8-2.5l0.6-2.6l-0.5-1.7l1.6,0.1l0.2,1.7l2.2-0.1
	l2.9,0.5l1.6,2.4l3.7,0.8l2.9-1.7l1,2.7l3.6,0.7l1.7,2.3l1.8,2.9h3.6l-0.2-5.7l-1.3,1l-3.2-2.1l-1.2-1l0.7-5.3l0.9-6.3l-1-2.3
	l1.4-3.4l1.2-0.7l6.4-0.9l0.7,0.2l-0.2,1.2l1.6,0.4l1,1.1l0.8-0.2L800.2,463.9z"/>
<path class="st0" d="M797.9,537.2l-2.4-0.6l-1.6,0.7l-2.2-0.9h-1.8l-2.8-2.4l-3.6-0.8l-1.2-3.4l0.1-1.9l-1.9-0.6l-5.1-5.8l-1.3-3.1
	l-0.9-1l-1.6-4.2l5.2,0.6l1.5,0.6l1.6-0.1l2.7-3.5l4.2-4.3l1.7-0.5l0.7-1.8l2.7-2.1l3.6-0.7l0.2,2l3.9-0.1l2.2,1.1l0.9,1.3l2.2,0.4
	l2.3,1.7l-0.3,6.8l-1.1,3.7l-0.3,4l0.7,1.6l-0.7,3.2l-0.7,0.5l-1.4,3.8L797.9,537.2z"/>
<path class="st0" d="M850.1,427.1l-2.7-4.4l-0.2-19.5l4.1-6l1.2-1.7l3-0.1l4.2-3.7l6.1-0.2l13-16.1l-4,0.1l-15.6-6.3l-1.8-1.9
	l-1.8-2.6l-1.8-3l1-1.8l1.6-2.9l1.6,1l1,2.2l2.2,2.2h2.3l4.3-1.4l5.1-0.6l4.1-1.7l2.3-0.3l1.7-1l2.7-0.2l1.5-0.2l2.1-0.8l2.5-0.6
	l2.1-1.8h1.8l0.2,1.5l-0.3,3.1l0.2,2.8l-0.9,1.9l-1.2,5.8l-2,5.9l-2.7,6.8l-3.8,7.8l-3.9,6l-5.5,7.3l-4.7,4.3l-7,5.3l-4.4,4
	l-5.2,6.5l-1.1,2.8L850.1,427.1z"/>
<path class="st0" d="M746.6,192.4l-1,0.2l-2.4,0.8l-0.1,1.1l-0.6-0.1l-0.5-1.9L741,192l-1-1.4l0.7-1.2l1-0.3l0.4-1.7l0.7-0.3
	l0.7,0.8l0.8,0.3l0.7,0.8l0.8,0.2l0.9,1l0.6-0.1l-0.3,1.3l-0.5,0.6L746.6,192.4z"/>
<path class="st0" d="M797.9,537.2l1.8,7.5l0.9,3.8l-1.2,5.9l0.3,1.9l-2.2-0.9l-1.4,0.3l-0.5,1.6l-1.4,2l-0.1,1.8l2.6,2.9l2.7-0.6
	l1.2-2.3h3.4l-1.4,3.9l-0.8,4.4l-1.4,2.4l-3.3,2.7l-0.9,0.7l-2.2,2.7l-1.5,2.7l-2.9,3.8l-5.6,5.5l-3.4,3.2l-3.6,2.5l-4.9,2l-2.2,0.3
	l-0.7,1.5l-2.7-0.8l-2.2,1l-4.7-1l-2.7,0.7l-1.8-0.3l-4.8,2.2l-3.8,0.8l-2.9,2l-2,0.2l-1.7-1.9l-1.5-0.1l-1.8-2.4l-0.2,0.7l-0.5-1.4
	l0.2-3.2l-1.2-3.6l1.5-1l0.1-4.1l-2.7-5l-2-4.5v-0.1l-3-6.9l2.3-2.7l1.7,1.5l0.7,2.2l2.1,0.4l2.8,1l2.4-0.4l4.2-2.7l0.9-19.7
	l1.2,0.8l2.5,5.1l-0.5,3.2l0.9,1.9l3.3-0.6l2.3-2.4l2.2-1.6l1.2-2.6l2.3-1.2l1.9,0.6l2.1,1.5l3.7,0.2l3-1.2l0.5-1.7l1-2.6l2.5-0.4
	l1.5-2l1.7-3.6l4.3-4l6.7-3.9h1.8l2.2,0.9l1.6-0.7L797.9,537.2z M781,581.5l0.9-1.7l2.6-0.8l0.9-1.7l1.6-2.6l-1.4-1.7l-1.8-1.7
	l-2.2,1.2l-2.6,2.1l-2.7,3.3l3.1,4.2L781,581.5z"/>
<path class="st0" d="M1403.1,636.9l-0.7,2.2l4.7-2.2l-0.4,2.2l-1.8,2.2l-3.5,2.4l-5.9,3.9l-3.9,2.2l-0.5,2.5l-3.3,0.1l-5.2,2
	l-3.9,3.4l-6.8,5.3l-5.2,2.3l-3.3,1.5l-3.8-0.1l-1.2-1.7l-4.2-0.3l0.8-2l5.4-3.8l9.5-5.2l3.6-1l4.7-2l5.8-2.7l4.8-2.7l5-3.9l2.6-1.3
	l2.9-3l4.8-2.4L1403.1,636.9z"/>
<path class="st0" d="M1427.2,611.5l-0.3,5.7l2.4-3.7l1.1,1.5l-2,4l2.4,1.7l2.7,0.4l3.9-2l1.8,0.6l-4.3,4.7l-3.5,3.1l-3.2-0.1
	l-2.3,1.6l-1.2,2.3l-1.3,0.9l-3.8,2.9l-4.9,3.6l-5,2.2l0.4-1.4l-1.2-0.8l5.7-4.3l0.8-3l-3.2-2.1l1.5-1.9l4.4-1.8l3.5-4.2l2.1-3.4
	l0.5-3.6l0.7-0.9l-0.8-2.2l-0.6-4.7l0.3-3.8l1.8-0.4l0.8,3l2.7,1.3L1427.2,611.5z"/>
<path class="st0" d="M378,698.1l5,11.3h4.2l2.5,0.2l-0.4,2l-2.7,1.6l-2-0.2l-2.6-0.4l-3.5-1.5l-4.5-0.8l-6.2-2.8l-5.3-2.7l-8.2-5.7
	l3.8,1.1l7.2,3.4l6.1,1.8l1-2.3l-0.2-3.5l2.8-2.2L378,698.1z"/>
<path class="st0" d="M344.1,539.7l0.8,1.3l-1,5.6l-4.7,2.6l1.3,8.9l-0.7,1.7l1.7,2.1l-2.7,3.3l-2.2,5l-0.7,4.9l1.4,5.2l-1.7,5.5
	l4.1,9.2l1.3,1l1.2,4.9l-1.3,5.2l1.2,4.5l-2.5,3.5l1.3,4.8l2.7,5.2l-2.1,1.9l0.2,4.7l0.7,5.4l2.7,6.5l-1.4,1.1l3.1,6.1l2.6,2
	l-0.7,2.2l2.3,1l1.2,2l-1.5,1l1.5,3.1l0.9,6.9l-0.6,4.5l1.5,2.7l-0.1,3.2l-2.2,2.3l2.6,5.4l2.2,1.9l2.6-0.3l1.6,3.8l2.9,3l10.1,0.7
	l4.1,0.8H374l-1.4,1.2l-2.8,1.8l1.4,4.7l-1.6,0.1l-5.2-1.6l-6.2-3.6l-6.3-2.9l-2.7-3.2l-0.2-3l-3.5-3.5l-4.2-8.8l-0.2-5l2.8-4
	L337,667l2.2-4.6l-1.7-8.7l5.4,1.8l-1.5-10.9l-3.3-1.4l0.8,6.6l-2.9-0.8l-1.2-7.5l-1.7-9.8l0.9-3.7l-2.7-5.2l-2-6l1.8-0.2l0.5-8.6
	l1-8.6l0.1-7.9l-2.7-8.1l0.5-4.4l-1.7-6.6l1.5-6.5l-0.8-10.3v-11.2l0.1-11.9l-1.2-8.7l-1.7-7.6l2.3-1.3l0.9-2.7l2.7,3.7l1,3.8
	l2.7,2.2l-0.9,5.2l3.1,6l2.6,7.4L344.1,539.7z"/>
<path class="st0" d="M678.9,147.7l-2.3-1.2l-2.6-2.2l-3.7,1.1l-3-0.4l2.1-1.4l3.3-7.5l5.4-2.2l3.3,0.2l0.7,1.7l-0.7,4.7l-1,1.9H678
	L678.9,147.7z"/>
<path class="st0" d="M621,219.8l-1.8,1.3l-2.3-0.7l-2.2,0.6l0.7-4.2l-0.2-3.2l-2-0.5l-0.9-2l0.4-3.5l1.8-1.9l0.4-2.2l1-3.2v-2.2
	l-0.7-1.9l-0.2-1.8l1.6-1.3l1.8-0.7l1,2.6h2.5l0.7-0.7l2.6,0.2l1.1,2.7l-2,1.4l-0.2,4.2l-0.7,0.8l-0.2,2.6l-1.9,0.4l1.7,3.2
	l-1.3,3.5l1.5,1.6l-0.7,1.4l-1.7,2L621,219.8z"/>
<path class="st0" d="M1239.3,147.9l11.4,9.2l-7.4-1.7l3.1,7.5l8,5.3l2.5,3.7l-5.4-3.2l0.1,4.1l-3.9-4.4l-3.2-5.1l-4.7-5.6l-2-4
	l-5.3-6.8l-6.7-5.1l-5.7-7l1.6-2.3l-3.7-2.3l1.1-0.7l4.1,3.3l5.7,4.9l4.3,5.1L1239.3,147.9z"/>
<path class="st0" d="M744,129.6l-7.3,0.1l-4.9-0.6l0.6-2.2l5.2-1.7l4.2,0.9l1.8,0.8l-0.2,1.4L744,129.6z"/>
<path class="st0" d="M1121.8,40.3l-4.9,0.1l-7.4-0.5l-0.8-0.2l0.6-1.7l3.5-0.4l7,1.7L1121.8,40.3z"/>
<path class="st0" d="M1132.3,32.4l-0.9,1.7l-5.8-0.3l-8.6-1.7l-1.5-1.3l6.9,0.6L1132.3,32.4z"/>
<path class="st0" d="M1111.1,30.4l2.6,3.2l-11.9-0.2l-3.8,1l-10.4-2.7l-2.8-2.8l2.9-0.7l8.5,0.2L1111.1,30.4z"/>
<path class="st0" d="M847.4,51.2l-1.8,0.3L834.3,51l-1.9-1.9l-6.6-1.2l-1.7-2.4l2.9-0.9l-1.3-2.3l4.5-3.7l-3.3-0.5l5.6-3.7l-2.1-1.9
	l5.7-2.2l8.6-2.7l9.7-0.7l4.2-1.5l5.6-0.5l3.5,1.6l-1.1,1.2l-9.5,2.1l-8.2,1.9l-7.2,4l-2.3,4.2l-2.7,4.2l2.6,3.6L847.4,51.2z"/>
<path class="st0" d="M1216.2,192.6l-1.2-0.9l-1.6-2.7l2.1-0.1l-3.2-6.2l-3.9-4.5l2.4-1.8l5.7,0.9l-0.5-5.2l-2.3-5.7l0.2-1.9
	l-1.1-4.7l-5.8,1.6l-2.2,2h-6.3l-5-4.8l-7.5-3.7l-8.3-1.7l-5.2-5l-3.7-3.2l-3.2-2.2l-6.4-5.2l-5-1.8l-7.2-1.6l-5.2,0.2l-4.2,0.9
	l-1.4,2.6l3.1,1.2l2.1,2.8l-1.1,1.7l0.2,5.4l1.6,2.3l-3.7,3.2l-6.2-2l-4.7,0.5l-3.2-1.7l-2.8-0.6l-3.7,3.7l-4.9,0.8l-3,1.3l-5.7-0.8
	h-3.8l-4.1-2.7l-5.5-2.4l-4.5-0.7l-4.7,0.7l-3.3,1l-7.1-2.2l-3-3.8l-5.6-1.3l-4-0.7l-5.8-2.1l-1.1,5.3l3.3,3l-2,3.7l-6.7-1.3
	l-4.2-0.2l-4-2.4l-4.3-0.1l-4.4-1.6l-4.9,2.4l-5.6,4.4l-3.9,0.9l-1.4,0.4l-3.7-3.2l-5,0.8l-2.7-2.2l-3.3-1l-3.4-3l-2.7-0.9l-5.2,1.3
	l-7-2.9l-0.9,2.7l-15.2-13l-7-3.9l0.7-1.7l-7.7,4.8l-3.7,0.2l-0.9-2.7l-5.9-1.7l-3.6,1.2l-3.7-5.2l-7.6-1.1l-2.6,2.1l-9.1,1.9
	l-1.4,1.2l-14.2,1.7l-1.2,1.7l4.2,3.5l-3.3,1.3l1.2,1.3l-2.9,2.5l7.8,3.6l-0.2,2.4l-5.8-0.2l-0.7,1.6l-6.1-2.7l-6.4,0.1l-3.7,2.2
	l-5.5-2.1l-10-3.6l-6.3,0.2l-6.7,5.6l0.5,3.7l-5-3l-1.8,5.7l1.5,1l-1.4,4l4.4,3.5l3-0.2l3.6,3.5l0.2,2.7l2.3,0.9l-1.2,3.1l-3.8,0.8
	l-3,5.4l5,5.1l0.3,3.5l6.1,6.2l-2.1,2.2l-0.5,1.3l-2-0.4l-3.6-3.2l-1.2-0.2l-3-1.2l-1.7-2.2l-4.2-1.1l-2.4,0.8l-1-1l-6.3-2.6
	l-6.4-0.8l-3.8-0.9l-0.3,0.7l-6.3-4.5l-5.2-2l-4.2-3.1l3-0.8l2.7-4.3l-2.7-2.1l5.7-2.2l-0.3-1.2l-3.6,0.8l-0.3-2.2l1.8-1.5l4-0.3
	l0.2-1.7l-1.5-2.9l1.1-2.7l-0.3-1.6l-6.4-1.7l-2.4,0.1l-3-2.4l-3,0.8l-5.6-1.8l-0.1-1l-1.9-2.2l-3.2-0.2l-0.7-1.6l0.7-1.1l-3.2-2.9
	l-4.1,0.5l-1.2-0.2l-0.8,1.2l-1.5-0.2l-1.7-3.3l-1.2-1.7l0.7-0.5l3.2,0.2l1.3-1.1l-1.4-1.3l-2.8-0.9v-0.9l-1.7-0.9l-3.2-3.3l0.6-1.3
	l-0.9-2.4l-4-1.2l-2,0.6l-0.8-1.2l-4.4-1.2l-1.7-3l-0.8-2.4l-2.1-1.1l1.3-1.6l-2-4.7l2.2-2.8l-0.7-0.8l3.7-2.7l-4.5-2.3l6.7-6.2
	l2.8-2.8l0.7-2.4l-6.2-3.2L764,81l-4.1-3.5l1.4-4l-5.4-5.2l2.4-3.5l-6.1-3.1l-0.3-3.2l2.7-0.4l5.3-1.7l3.1-1.6l6.4,2.7l9.7,1.1
	l14.7,5.2l3.4,2.2l1.2,3.1l-3.1,2.4l-5.4,1.2l-16.8-3.5l-2.4,0.6l6.7,3.4l0.8,2.2l1.6,4.8l5.1,1.4l3.2,1.2l-0.2-2.3l-2.8-2l1.7-1.8
	l9.7,3l2.7-1.2l-3.6-3.5l6.7-4.5l3.4,0.2l3.8,1.6l0.9-3.2l-3.9-2.7l0.7-2.7l-3.6-2.8l10.2,1.5l3,2.5l-4.2,0.6l1,2.6l3.4,1.6l5-1
	l-0.3-2.9l6.4-2.2l10.3-3.8l2.7,0.2l-2.1,2.7l4.5,0.5l1.7-1.6l6.4-0.1l4.2-1.9l5.3,2.7l2.3-3l-5-2.6l1-1.5l10.8,1.3l5.5,1.4
	l15.5,5.2l0.9-2.3l-4.9-2.4l-0.7-0.9l-4.4-0.5l-0.2-2.1l-3.9-3.5l-0.9-1.4l3.6-3.9l-0.5-4l1.8-0.8l9.5,1.2l2.4,2.4l-0.7,3.5l3.1,1.4
	l3.2,3.1l3.2,6.2l5.6,2.7l0.4,3.1l-2.9,6.5l4.4,0.7l0.4-1.7l3.2-1.2l-0.4-2.2l1.6-2.2l-3.7-2.6l-0.3-3l-4-0.3l-2.4-2.5l-0.3-4.5
	l-6.8-3.6l3.9-2.9l-3.1-3.1l1.6-0.1l3.5,2.3l1.7,4.2l4.2,0.8l-3.8-3.2l4.2-1.7l6.7-0.2l8,2.5l-5.7-3.6l-4.1-4.6l4.9-0.8l7.9,0.2
	l6.5-0.6l-4.7-2.2l1.1-2.7l3.5-0.2l4.1-2l7.7-0.6l-0.2-1.2l7.7-0.3l3.6,0.9l4.5-2.2l5.8,0.1l-1.2-1.8l0.7-1.7l5.2-1.7l6.9,1.3
	l-2.9,1l7.8,0.6l3.4,2l1.6-1l9.1,0.1l9.7,2l4.6,1.5l2.1,2.2l-2,1.2l-5.5,2.3l-0.9,1.2l4.7,0.6l6,1.1l2-0.8l4.8,2.7l0.2-1.1l4.3-0.7
	l11.3,0.7l3.2,2l14.5,0.7l-4-3.2l7.9,0.7l5.1-0.1l8.2,2.2l5,2.7l0.3,1.8l8.4,3.5l7.5,1.7l-2.5-4.6l7.8,1.9l4.2-1.2l8.2,1.3l0.8-1.2
	l6.3,0.6l-7.8-4.1l1.8-1.8l33.6,2.8l6.6,2.6l13.6,3.3l12.3-0.8l7.7,0.7l5.5,1.8l4.2,3.2l6.1,1.2l3.2-0.9l5.8-0.1l7.7,0.8l5.8-0.5
	l11.9,4l2.1-1.4L1233,56l-1.5-2l12.7,1.2l6.7-0.2l13.2,2.1l7.9,2l27.6,18.4l-1.7,2.1l-5.2-0.3l6.8,2.5l7.6,3.9l3.5,1.2l3.2,2
	l0.8,1.2l-8.3-1l-5.5,3.6l-2.5,0.6l-1.3,3.4l-1.7,3l1.4,2.2l-9.6-3.4l-5.1,3.8l-3.9-1.8l-1.2,2.2l-5.8-0.7l2.6,3.2l0.9,4.8l2.4,2
	l5.7,1.1l7.6,7.2l-3.4,0.2l2.8,4.2l3.9,2.2l-4.2,2.6l4.5,5.8l-4.7,1.2l3.7,5.2l-1.4,4.8l-4.8-3.6l-8.7-7.4l-13.5-11.3l-5.4-6.9
	l0.1-3l-2.3-2.3l4.8-1.1l-0.2-6.2l0.6-5l2.1-3.9l-5.5-6.8l-3.9,0.4l2.7,4l-3,5.3l-10.2-6l-7.6,1.7v8.2l6.4,3l-7.1,1.3l-5.3,0.5
	l-3.6-3.6l-6.7-0.8l-2.1,2.4l-12.6-0.8l-11,1.4l-2.9,9.7l-4.2,11.8l6.8,0.7l4.8,3.2l4.8,1.1l0.3-2.5l4.7,0.3l10.7,5.6l3.9,4.3
	l1.2,5.2l4.6,6.2l4.4,8.2l-0.8,7.6l1.1,3.6l-1.7,6.2l-1.8,6.1l-0.8,3.1l-3.8,3.1l-2.6,0.1l-4.3-2.6l-3.4,3.9L1216.2,192.6z"/>
<path class="st0" d="M970.9,19.4l-15.1,1.5l-1.1-5.1l1.8-0.4l2.6,0.2l10.5,2.2L970.9,19.4z"/>
<path class="st0" d="M802.4,11.1l-3.6,0.4l-2.4,0.3v0.6l-3,0.6l-3.7-0.8l0.9-1.2l-6.5-0.1l5.2-0.7h4.3l1.2,0.9l1.1-0.8l2.3-0.6
	l4.8,0.7L802.4,11.1z"/>
<path class="st0" d="M952.6,17.2l-5.9,0.5l-9.7-1.1l-6.7-1.4l-5.5-2.7l-4.9-0.7l4.5-2.4l5.2-0.7l8,1.7l11.4,3.5L952.6,17.2z"/>
<path class="st0" d="M645.7,186.2l1.7,2l7.9,2.4l1.6-1.2l4.8,2.4l4.9-0.7l0.3,3.1l-4.1,3.5l-5.5,1.2l-0.4,1.7l-2.7,2.9l-1.7,4.3
	l1.7,3.1l-2.5,2.3l-1,3.5l-3.3,1.1l-3.1,4.1l-5.7,0.1l-4.2-0.1l-2.8,1.8l-1.7,2l-2.2-0.4l-1.6-1.8l-1.2-3l-4.1-0.8l-0.3-1.8l1.7-2
	l0.7-1.4l-1.5-1.6l1.3-3.5l-1.7-3.2l1.9-0.4l0.2-2.6l0.7-0.7l0.2-4.2l2-1.4l-1.1-2.7l-2.6-0.2l-0.7,0.7h-2.5l-1-2.6l-1.8,0.8
	l-1.6,1.3l0.4-3.7l-1.7-2.2l6.2-3.8l5.2,0.9h5.7l4.5,0.9l3.6-0.3L645.7,186.2z"/>
<path class="st0" d="M694.9,192.9l-1.2,4.1l-2-1.1l-1.1-3.5l0.7-2l2.7-2L694.9,192.9z"/>
<path class="st0" d="M677.2,154.3l0.9,0.4l1.2-0.1l2,1.3l6,1l-2,3.5l-0.3,3.7l-1.1,0.9l-1.9-0.5l0.2,1.3l-3,2.9v2.4l2-0.8l1.5,2.2
	l-0.1,1.5l1.2,2l-1.4,1.6l1.2,4.1l2.3,0.7l-0.4,2.2l-3.7,3l-8.5-1.4l-6.2,1.7l-0.5,3.2l-4.9,0.7l-4.8-2.4l-1.6,1.2l-7.9-2.4l-1.7-2
	l2.2-3.2l0.8-10.5l-4.2-5.5l-3.1-2.7l-6.3-2l-0.3-3.8l5.4-1.1l6.9,1.3l-1.2-5.9l3.9,2.2l9.5-4l1.2-4.2l3.5-1.1l0.7,1.8l1.8,0.1
	l2,2.1l2.9,2.4l2.1-0.4L677.2,154.3z"/>
<path class="st0" d="M281.8,162.2l-5.1,1.7l-3.9,2.1l-3.8,2.2l-0.4,0.7l4.7-1.1l1.7,1.7l3.8-1.2l4.1-1.7l4.5-1.7l-2.6,2.7l2.1,0.7
	l2.1,2l4.2-1.2l4.2-0.4l0.2,1.5l1.2,0.2l1,0.2l1.2,2.1l-3.9,0.5h-0.1l-3.1-0.6l-3.7,1l-3.1,0.5l-3.9,3.4l-2.5,1.9l0.3,0.6l4.6-3.4
	h0.6l-3.9,4.1l-2.4,3.7l-2.1,3l-0.5,2.6l-0.7,1.2l-0.5,1.4l0.1,2.7l0.2,0.4l1.5-0.1l1.3-0.6l1.2-0.7l2.7-2.6l1.5-3.5l-0.1-3.2
	l1.2-2.2l2.2-2.6l1.7-1.8l2.2-1.2l-0.3,1.7l1.8-2.6l1.1-0.5l1.4-2l3.2,1.1l2.3,2l-0.7,2.4l-1.3,2.4l-3.2,2.1l-0.3,1.3h0.8l3.6-2.2
	l1.3,0.5l-0.4,3.1l-0.6,2.2l-3.1,2.9l-1.7,1.8l-2.2,2l2.2,1.1l2.1,0.3l3.3-0.7l3.1-1.4l2.5-0.8l3.8-1.5l4.8-3.2l0.1-0.5l0.2-1.6
	l2.2-0.7l3.2,0.2l3.3,0.4l3.8-1.7l0.5-2.1l-0.2-0.8l5.7-3.7l2.2-0.9l6.5-0.1h7.7l0.9-1.2l1.4-0.2l2.1-0.8l2.3-2.4l2.7-4.1l4.6-3.9
	l0.9,1.3l3.1-0.8l1.3,1.5l-2.4,7.1l1.8,3l0.2,1.8l-5.3,2.5l-5,1.8l-5,1.6l-3.3,3.2l-1.1,1.2l-1,2.8l0.6,2.7l1.7,0.2l0.2-1.9l0.9,1.2
	l-0.8,1.5l-3.2,0.8l-2.1-0.1l-3.5,0.9l-1.9,0.2l-2.6,0.2l-4.2,1.6l6.7-1l0.9,1l-6.6,1.6H333l0.3-0.7l-1.7,1.5l1.2,0.2l-2.1,3.8
	l-4.4,4.1l0.1-1.4l-0.9-0.2l-1-1.3v2.9l0.8,0.9l-0.5,2l-2,2.1l-3.7,4.2l-0.3-0.2l2.4-3.7l-1.7-2l0.8-4.5l-1.6,2.3v3.4l-2.7-0.8
	l2.5,1.7l-1.2,5.1l1.2,0.4v1.8l-0.8,5.3l-3.8,3.9l-5.1,1.6l-3.7,3.2l-2.3,0.3l-2.8,2l-1.1,1.8l-5.7,3.5l-3.2,2.6l-2.9,3.2l-1.6,3.7
	v3.7l0.5,4.6l1.2,3.7l-0.4,2.3l1.1,6.2l-0.8,3.7l-0.5,2.1l-1.7,3.2l-1.5,0.7l-2.2-0.7l-0.3-2.3l-1.5-1.2l-1.7-4.6l-1.3-4.1l-0.3-2.1
	l1.7-3.6l-0.7-2.9l-2.6-4.5l-1.6-0.8l-5.1,2.5l-0.7-0.3l-1.7-2.5l-2.5-1.3l-5.3,0.7l-3.8-0.7L250,256l-2.1,0.8l0.5,1.4l-0.6,2.2
	l0.7,1.1l-1,0.7l-1.5-0.8l-1.9,1l-3.2-0.2l-2.7-2.8l-4.1,0.7l-3-1.2l-2.9,0.4l-4.2,1.2l-5.1,3.9l-5.1,2.3l-3.1,2.5l-1.6,2.4
	l-0.8,3.7L208,278l0.5,1.8l-1.8,0.2l-3-1.2l-3.2-1.7l-0.8-2.5l-0.2-3.7l-2-3l-0.8-3.2l-1.3-3.7l-2.7-2.2L189,259l-4,4.2l-3.3-1.6
	l-1.9-1.6l-0.3-3l-0.7-2.7l-2-2.3l-1.7-1.7l-1.1-1.9h-7.8l-0.7,2.2h-3.6h-9l-9.1-3.7l-5.8-2.6l0.7-1.1l-5.9,0.6l-5.2,0.4l0.2-2.7
	l-1.7-3.1l-1.8-0.7l0.1-1.5l-2.4-0.3l-1-1.4l-4-0.5l-0.7-0.9l0.7-2.9l-2.1-5.3l-0.4-7.4l0.7-1.2l-1.1-1.7l-1.2-4.5l1.5-4.3l-0.7-2.9
	l3.2-4.4l2.3-4.5l0.9-4.1l4.6-5l3.3-4.7l3.3-4.7l3.6-7.1l1.5-4.4l0.3-2.4l1.2-1.1l4.8,1.8l-0.8,4.9l1.8-1.4l2.1-4.2l1.3-4.2h11.7
	H171h4h12.6h12.2h12.3h12.4h14h14.2h8.5l1.1-2h1.4l-0.7,2.8l0.8,0.8l2.7,0.3l3.8,0.8l3.2,1.6l3.7-0.7L281.8,162.2z"/>
<path class="st0" d="M61.5,115.6l-5.8,1.9l-0.7-1.3l1.9-2.3l5.3-1.8l2.9-0.7l2.2,0.3v1.6L61.5,115.6z"/>
<path class="st0" d="M29.1,101.8l-3.2,0.7l-1.4-0.9l-0.7-1.3l4.7-0.8L31,100L29.1,101.8z"/>
<path class="st0" d="M30.1,83.1l1,0.8l2.9-0.4l1.3,1.2l2.7,0.6l-1,0.6L33,87l-1.4-1.1L31.3,85l-3.6,0.2l-0.2-0.4L30.1,83.1z"/>
<path class="st0" d="M173.9,55.6l-20.5,17l-29.6,27.2l3.5,0.2l2.3,1.3l0.4,2.2l0.2,3.2l6.3-2.7l5.4-1.6l-0.5,2.6l0.7,2l1.3,2.2
	l-0.9,3.5l-1.2,5.7l3.8,3.2l-2.7,3.2l-4.2,2.4l-0.5-1.8l-2.1-1.7l2.7-4.3l-1.3-4.1l2.2-4.7l-3.4-0.3l-5.9-0.1l-3.2-1.5l-2.7-5.1
	l-2.7-0.9l-4.7-1.7l-5.7,0.4l-5-2.2l-2.2-2.1l-5.2,1l-2.9,3.4l-2.4,0.3l-5.5,1l-5.2,1.7l-5.3,1.1l2.7-2.9l7-4.8l5.7-1.5l0.3-1.2
	l-7.8,2.7l-6.2,3.2l-9.3,3.5l0.2,2.4l-7.5,3.5l-6.4,2.1l-5.5,1.6l-3.3,2.2l-8.8,2.6l-3.7,2.3l-6.8,2.2l-2.2-0.3l-5.2,1.3l-5.8,1.7
	l-5.1,1.7L1,129.3l0.3-0.9l6.8-2.3l5.5-1.6l7.2-2.7l5.4-0.5l4.2-2.1l8.7-3l1.9-1l4.7-1.7l4.8-3.7l5.2-2.9l-6.1,1.5l-0.2-0.9
	l-4.1,1.8l0.3-2.5l-3,1.7l1.3-2.4l-6.1,1.9h-2.3l3.1-2.9l2.7-1.8l-0.3-1.7l-6,1l-0.5-2.3l-1.1-1.2l3.3-2.7L36.5,94l4.9-2.7l6.4-2.7
	l4.4-2.4l3.4-0.3l1.5,0.7l5.9-2.3l2.1,0.4l4.7-1.5l2.1-2.2l-0.9-0.8l5-1.8l-2.3,0.1l-5.2,1L66,80.5l-1.5-1.1L58.8,80L55,78.8l1-1.9
	l-0.8-2.7l7.7-2l11-2.2h2.9l-3.6,2.3l7.7-0.2l1-2.9l-1.9-1.7l0.7-2.3l-0.6-1.9l-2.7-1.4l5.4-2.4l6.2-0.2l7.3-2l4-2.2l6.6-2.2l4-0.5
	l9.3-2l2.6,0.3l8.7-2.3l3.7,0.9l-0.4,2l2.7-0.8l5.2,0.2l-1.6,1l4.1,0.7l4.1-0.4l5.2,1.3l6,0.5l1.8,0.5l5.5-0.7l3.4,1.3L173.9,55.6z"
	/>
<path class="st0" d="M396.5,405.8l1.2-2.3l0.4-2.4l0.8-2.2l-1.7-3.2L397,392l2.6-4.6l1.6,0.6l3.4,1.2l4.9,4.5l0.7,2.2l-2.8,4.9
	l-1.5,3.9l-1.8,2.1l-2.2,0.3l-0.7-1.5l-1.1-0.2l-1.4,1.4L396.5,405.8z"/>
<path class="st0" d="M366,326.6l0.5,0.2l-0.2,0.2h-0.2l-0.6,0.1l-0.2-0.1v-0.4l0.2-0.1l0.1-0.2h0.2L366,326.6z"/>
<path class="st0" d="M366,323.5h0.2l0.2,0.2l0.1,0.3l-0.1,0.2l-0.2,0.1l-0.1-0.2l-0.2-0.2v-0.4L366,323.5z"/>
<path class="st0" d="M885.1,277.8l0.2,0.1l0.2-0.1l0.3,0.6l-0.1,0.2l0.1,0.8v0.6l-0.2,0.3l-0.1-0.3l-0.5-0.7l0.1-0.3l-0.2-0.6V278
	L885.1,277.8z"/>
<path class="st0" d="M315.8,305l-0.3,0.4l-0.2,0.4l-0.5,0.2h-0.4l-0.1-0.1l-0.3,0.2l-0.4,0.1l-0.5-0.2l-0.3,0.1l-0.1-0.4l0.2-0.2
	l0.2-0.2l0.3-0.2l0.2-0.3h0.3l0.2-0.2l0.2,0.2l0.4,0.2l0.4-0.2l0.6-0.8h0.2v0.2L315.8,305z"/>
<path class="st0" d="M316,303.6l-0.2-0.5l0.5-0.2l0.2,0.2v0.2l-0.2,0.1L316,303.6z"/>
<path class="st0" d="M316.3,298.2l0.2-0.1l0.4,0.2h0.3l0.3,0.1l0.2,0.2v0.2l-0.2,0.1l-0.4-0.3h-0.3l-0.1-0.1l-0.4,0.2l-0.4-0.2v-0.1
	l0.2-0.4L316.3,298.2z"/>
<path class="st0" d="M313.1,296.7l-0.2,0.3v0.6l-0.1,0.3l-0.3,0.2l-0.2,0.3l-0.3,0.2l-0.6,0.2l-0.1,0.2l-0.2-0.2l0.1-0.2l0.3-0.1
	l0.2-0.2v-0.2l0.3-0.1l0.2-0.3l0.3-0.1l0.2-0.3l-0.2-0.2h-0.3l-0.2-0.2l0.3-0.4l0.1-0.1H313.1z"/>
<path class="st0" d="M311.5,296.4L311.5,296.4l0.4,0.1l0.3,0.2l-0.3,0.3l-0.1-0.2h-0.2l-0.3-0.1l-0.3-0.2l-0.2-0.5l0.2-0.1l0.3,0.1
	L311.5,296.4z"/>
<path class="st0" d="M303.8,291.5l0.5,0.6l0.2,0.2l0.2,0.4l-0.2-0.1l-0.1-0.2l-0.2-0.1l-0.3-0.3l-0.2-0.1l-0.2-0.3L303.8,291.5z"/>
<path class="st0" d="M302.5,289.9L302.5,289.9l-0.3-0.7h0.2L302.5,289.9z"/>
<path class="st0" d="M295.8,288.5l-0.2,0.1l-0.2,0.3l-0.3-0.1l0.5-0.3L295.8,288.5z"/>
<path class="st0" d="M296,289.1l0.3,0.2l0.2-0.2l0.1-0.4l0.2-0.1l0.2,0.5v0.4l-0.1,0.2l0.1,0.5v0.2l-0.3,0.7l-0.2,0.1l-0.3-0.2
	l0.2-0.2l0.3-0.2l-0.1-0.1l-0.5,0.3l-0.2-0.2l0.3-0.2h-0.3l-0.2,0.1l-0.2-0.2v-0.6l0.1-0.2l-0.3-0.4v-0.2l0.3-0.2l0.1-0.2l0.2-0.1
	l0.1-0.2l0.5-0.2l0.1,0.3l-0.4,0.3L296,289.1z"/>
<path class="st0" d="M307.2,288.6l0.1,0.4l-0.2-0.1l-0.4,0.1l-0.3,0.1l-0.1-0.2l0.2-0.2l0.3-0.2v-0.2l-0.3-0.2l-0.2-0.5l-0.1-0.5
	l-0.3-0.3v-0.2l-0.4-0.4l0.2-0.2l0.3,0.3v0.4l0.2,0.2l0.1,0.4l0.2,0.4l0.3,0.2l0.1,0.2L307.2,288.6z"/>
<path class="st0" d="M298.7,284l0.2,0.2l-0.5,0.2l-0.2-0.1l-0.2,0.2l-0.4-0.1l0.2-0.2l0.3-0.2H298.7z"/>
<path class="st0" d="M295.2,283.6l0.3-0.2l0.2,0.2l-0.1,0.2l0.1,0.2l-0.2,0.3l0.2,0.2l0.2,0.8l0.2,0.2l0.3,0.4l-0.2,0.6l0.1,0.5
	l-0.2,0.2l-0.2,0.1l-0.3,0.3l-0.2,0.2h-0.2l-0.2,0.2h-0.2v-0.3l-0.2-0.2l0.1-0.5l-0.2,0.2l-0.2-0.1l-0.5-0.3l-0.2-0.2l-0.2-0.2
	l0.6-0.2l0.4,0.6l0.1-0.5l-0.2-0.1l-0.1-0.2l0.1-0.2l0.5-0.5l0.2-0.3l-0.1-0.1l0.2-0.3V284l-0.2-0.6l0.1-0.1h0.2L295.2,283.6z"/>
<path class="st0" d="M301.9,281.4l0.1,0.2l0.2,0.3l0.7,0.6l0.4,0.1l0.1,0.1l0.2,0.3l0.2,0.3l0.4,0.3v0.2l-0.2,0.7l-0.1,0.2v0.2
	l-0.1,0.4l-0.2,0.2l-0.1,0.6l-0.1,0.1l-0.2-0.5l-0.3-0.2l0.1-0.2l0.4,0.1l0.2-0.2l-0.1-0.2l0.1-0.3l0.2-0.3l0.1-0.4v-0.2l-0.4-0.3
	l-0.3-0.6l-0.2-0.2l-0.5-0.2l-0.2-0.2l-0.5-0.2l-0.3,0.2L301.9,281.4L301.9,281.4z"/>
<path class="st0" d="M294.6,275.2l0.4,0.2h0.1l0.6,0.1l0.2-0.2l0.2,0.1h0.4l0.3-0.2h0.3l0.2-0.2l0.1,0.4l-0.1,0.2h-0.2h-0.3
	l-0.9,0.2h-0.2l-1.2,0.3l-0.6,0.3h-0.3l-0.2-0.1l-0.2-0.2l-0.4-0.5l0.5,0.2l0.1,0.2h0.4l0.4-0.2l0.3-0.5l-0.2-0.1l0.2-0.2l0.1-0.2
	L294.6,275.2z"/>
<path class="st0" d="M298.2,274.1l0.7,0.2l0.2-0.1l0.3,0.2l0.7,0.8l0.2,0.5l0.3,0.1l0.6,0.4v0.2l-0.2,0.4l0.2,0.6h-0.3l-0.4,0.3
	l-0.1,0.2l-0.2,0.8l-0.1,0.8l-0.2,0.2l-0.2-0.2l-0.1-0.3l-0.3-0.1l0.2-0.4h0.2l0.4-0.3l-0.1-0.3l0.2-0.3v-0.2l0.2-0.2v-0.5l0.2-0.1
	l0.2-0.2l0.1-0.2l-0.2-0.1L300,276l-0.1-0.2v-0.2l-0.3-0.2v-0.2l-0.2-0.6l-0.2-0.1l-0.2,0.1l-0.4-0.1h-0.2l-0.5-0.3H298.2z"/>
<path class="st0" d="M375,348.3l-0.5-0.2l-0.1-0.4v-0.7l0.2-0.3l0.2,0.2l0.2,0.5l0.4,0.2l0.1,0.3L375,348.3z"/>
<path class="st0" d="M805.3,230.6l0.1,0.2l0.2,0.3l-0.3-0.1H805l-0.3,0.2l-0.2-0.2v-0.2l0.2-0.1l0.2,0.1L805.3,230.6z"/>
<path class="st0" d="M803.8,231.1L803.8,231.1l-0.2,0.2l-0.1,0.5l-0.1,0.2h-0.2l-0.2,0.2l-0.4,0.2l-0.2,0.1l-0.5,0.2l-0.3-0.1
	l-0.4,0.1L801,233l-0.2-0.2l-0.2,0.1h-0.2l-0.2-0.2l-0.3,0.2h-0.4l-0.4-0.2l-0.4-0.1l-0.3-0.2l-0.2-0.5l-0.2-0.2l-0.2-0.6l-0.2-0.2
	l0.1-0.2l0.4,0.2l0.3-0.1l0.2-0.2l0.1-0.2l0.2-0.1l0.2,0.1l0.2-0.2h0.2l0.1,0.3l0.4,0.2l0.1,0.2h0.5l0.5-0.4l0.3,0.1l0.2-0.2
	l0.2,0.1l0.3,0.2l0.2-0.2h0.2l0.2,0.3v0.5l0.2-0.2l0.2,0.2l0.1-0.1L803.8,231.1z"/>
<path class="st0" d="M367.1,334.8l0.4,0.1l0.2,0.4v0.5l-0.1,0.7l-0.1,0.2l-0.2,0.1l-0.3,0.2l0.1-0.3l-0.1-0.2l-0.1-0.6l-0.2-0.4
	v-0.2l0.1-0.2v-0.2h0.2L367.1,334.8z"/>
<path class="st0" d="M413.2,696.7l0.3-0.1v0.3l-0.7-0.2l0.2-0.3l0.2-0.1L413.2,696.7z"/>
<path class="st0" d="M412.7,695.5l0.2,0.2l0.3,0.1l0.1,0.3l-0.3,0.1l-0.1-0.3l-0.2-0.2L412.7,695.5z"/>
<path class="st0" d="M417.8,694.8l0.2,0.1l-0.1,0.3l-0.2-0.1l-0.2-0.3L417.8,694.8L417.8,694.8z"/>
<path class="st0" d="M407.8,694.1v0.2l0.1,0.2l-0.3,0.1l-0.2-0.1l-0.2-0.2l-0.2-0.1l-0.1-0.3h0.2l0.1-0.2l0.2-0.1l0.2,0.1l-0.2,0.2
	l0.2,0.1l0.2-0.2L407.8,694.1z"/>
<path class="st2" d="M410.2,693l-0.3-0.2l-0.4-0.2l-0.7-0.2l0.1-0.3l-0.6-0.1l-0.2-0.1l-0.2-0.3l0.2-0.1l0.7,0.2l0.7,0.3l0.4,0.1
	l0.3,0.1l0.2-0.2l0.1-0.2l0.2,0.1l0.3-0.2l0.1,0.2h0.4v0.2h0.2l0.7-0.2l0.1,0.2h0.2l0.3-0.1l-0.2-0.2l-0.1-0.2h0.3l0.5,0.2l0.1,0.3
	l-0.3,0.4l0.1,0.2l-0.2,0.2h-0.3l-0.2,0.7l-0.2,0.2l-0.2,0.5l-0.1,0.2l-0.4,0.2l-0.1-0.2h-0.3v0.2l-0.7-0.1l-0.1,0.1l0.2,0.3
	l-0.1,0.1l-0.2,0.3h-0.3l-0.2,0.3l-0.2,0.1h-0.2l-0.2-0.2l-0.3-0.2v-0.2h-0.4l0.5,0.3h-0.3l-0.4-0.2l-0.2-0.1l-0.3-0.2l-0.2-0.2
	v-0.2l0.6,0.2l0.5-0.2l-0.4-0.2l-0.1-0.1h0.7l0.3,0.1l0.2,0.2v-0.2l0.3-0.1l0.1-0.2l-0.3-0.2l-0.2-0.4l0.1-0.2h0.5l0.2,0.1l0.3-0.1
	l-0.1-0.2h-0.7v0.1l-0.3,0.2h-0.5l-0.4-0.2v-0.2l0.6,0.2l0.5-0.2h0.2L410.2,693l0.3,0.2v-0.1L410.2,693z"/>
<path class="st3" d="M410.2,693l-0.3-0.2l-0.4-0.2l-0.7-0.2l0.1-0.3l-0.6-0.1l-0.2-0.1l-0.2-0.3l0.2-0.1l0.7,0.2l0.7,0.3l0.4,0.1
	l0.3,0.1l0.2-0.2l0.1-0.2l0.2,0.1l0.3-0.2l0.1,0.2h0.4v0.2h0.2l0.7-0.2l0.1,0.2h0.2l0.3-0.1l-0.2-0.2l-0.1-0.2h0.3l0.5,0.2l0.1,0.3
	l-0.3,0.4l0.1,0.2l-0.2,0.2h-0.3l-0.2,0.7l-0.2,0.2l-0.2,0.5l-0.1,0.2l-0.4,0.2l-0.1-0.2h-0.3v0.2l-0.7-0.1l-0.1,0.1l0.2,0.3
	l-0.1,0.1l-0.2,0.3h-0.3l-0.2,0.3l-0.2,0.1h-0.2l-0.2-0.2l-0.3-0.2v-0.2h-0.4l0.5,0.3h-0.3l-0.4-0.2l-0.2-0.1l-0.3-0.2l-0.2-0.2
	v-0.2l0.6,0.2l0.5-0.2l-0.4-0.2l-0.1-0.1h0.7l0.3,0.1l0.2,0.2v-0.2l0.3-0.1l0.1-0.2l-0.3-0.2l-0.2-0.4l0.1-0.2h0.5l0.2,0.1l0.3-0.1
	l-0.1-0.2h-0.7v0.1l-0.3,0.2h-0.5l-0.4-0.2v-0.2l0.6,0.2l0.5-0.2h0.2L410.2,693z M410.2,693l0.3,0.2v-0.1L410.2,693z"/>
<path class="st0" d="M411.5,691.4h0.2l0.2,0.2l-0.2,0.1h-0.2V691.4z"/>
<path class="st0" d="M410.7,691.4h-0.3l-0.1-0.3l0.3,0.1V691.4z"/>
<path class="st0" d="M409.5,691.3l0.5-0.1l0.2,0.2l-0.2,0.3l-0.2-0.1l-0.2,0.1l-0.3-0.2l0.3-0.2l0.2,0.2l0.1-0.2L409.5,691.3
	L409.5,691.3z"/>
<path class="st0" d="M415.5,691.3h0.5l0.1-0.1l0.4-0.1l0.3,0.2l0.3,0.2l0.1,0.2v0.1l-0.4,0.1l-0.2-0.2l-0.2-0.1l-0.1,0.2l0.2,0.1
	l0.1,0.2l0.2-0.2l0.2,0.1l0.1,0.3l0.2,0.1l0.1-0.1l0.4,0.2l0.1-0.3l-0.7-0.2l0.1-0.4l0.2-0.2l1.2-0.1l0.6,0.5l0.2,0.1v0.3l-0.5-0.1
	l-0.4-0.2l-0.5,0.2l0.2,0.2l0.3,0.1l0.7,0.1l0.2,0.1l0.1,0.2l-0.2,0.4h-0.4l-0.1,0.1l-0.6,0.1l-0.4,0.2l0.2,0.2l-0.7,0.3l-0.3-0.1
	l-0.4,0.1h-0.6l-0.5-0.2l-0.5-0.3v0.2l0.2,0.2l0.5,0.2l0.2,0.2l0.2-0.1l0.3,0.1l0.3,0.2l-0.2,0.1l0.2,0.4h-0.2l-0.2-0.2l-0.3-0.1
	l-0.4,0.3l-0.2-0.2l-0.2-0.2h-0.2l-0.4-0.2l-0.2,0.1l0.2,0.3h0.2l0.2,0.2l-0.2,0.1l0.6,0.5l-0.2,0.1l-0.3-0.2h-0.2l-0.2-0.2
	l-0.2-0.1l-0.2-0.1l-0.1,0.5l0.4,0.1v0.2l-0.1,0.2l-0.3-0.1l-0.1-0.2l-0.4-0.2l-0.1-0.2h-0.2l-0.3-0.4l0.2-0.3v-0.2l-0.3-0.4v-0.2
	l0.4-0.2l-0.1-0.2l0.4-0.1l-0.1-0.2l0.5-0.3l0.5-0.2l0.3,0.3v0.3l0.2-0.1l-0.4-0.5l0.1-0.2l-0.5-0.2l-0.3-0.2l0.1-0.2l0.3,0.2
	l0.1-0.4l-0.6-0.2l0.1-0.2l0.2,0.1l0.2-0.2h0.2l0.2-0.2l-0.2-0.2h0.3L415.5,691.3z"/>
<path class="st0" d="M411.3,691h0.6l0.2,0.2l0.2-0.2l0.2,0.1l0.2,0.2l-0.2,0.1l-0.3-0.1l-0.3-0.2l-0.7-0.1l0.1-0.2L411.3,691z"/>
<path class="st0" d="M405.7,690.1l-0.4-0.1l0.1-0.2L405.7,690.1z"/>
<path class="st0" d="M364.8,353.7l-0.3,0.2l-0.2-0.1l-0.1-0.4l0.2-0.4l0.2-0.3h0.2l0.1,0.2l-0.1,0.6L364.8,353.7z"/>
<path class="st0" d="M368.5,344.8l-0.2-0.2l-0.3-0.2l-0.1-0.2v-0.5l0.1-0.2l0.6-0.9l0.2,0.2v0.6l-0.1,0.7l-0.1,0.3L368.5,344.8z"/>
<path class="st0" d="M718.4,226.5l-0.2,0.2l-0.4-0.2l-0.4-0.2v-0.4l-0.1-0.1h0.5l0.3,0.2l0.2,0.2L718.4,226.5z"/>
<path class="st0" d="M717.1,225.6l-0.4-0.1v-0.2l0.3-0.1l0.3,0.2L717.1,225.6z"/>
<path class="st0" d="M364,328.3l0.2,0.3v0.2L364,329l-0.2-0.1l-0.1-0.2L364,328.3z"/>
<path class="st0" d="M350.2,321.2H350l-0.7,0.2h-0.5l0.2-0.2l0.3-0.2l0.3-0.1L350.2,321.2L350.2,321.2z"/>
<path class="st0" d="M342.3,319.2l0.5,0.1h0.5l0.2,0.1l0.5-0.1l0.2,0.1l0.3-0.1l0.2,0.1l0.4-0.1l0.3,0.1h0.2l0.7,0.2v-0.2l0.5,0.2
	l0.1-0.1l0.7,0.1l0.2,0.2h0.2l0.5,0.2l0.2-0.1l-0.1,0.6l0.2,0.2l-0.7,0.2l-0.2,0.3l-0.2,0.5l-0.2,0.2L347,322h-0.3l-0.5,0.1
	l-0.2,0.2l-0.6-0.1l-0.2-0.2l-0.4,0.2l-0.2-0.2l-0.6,0.2l-0.8-0.1l-0.2,0.1l-0.5,0.1l-0.2,0.1l-0.2-0.2l-0.3-0.1l-0.2,0.2l-0.5-0.1
	l0.2-0.6v-0.3l0.2-0.3l-0.2-0.5l-0.2-0.1l-0.1-0.3l0.3-0.2l0.2-0.1v-0.4l0.3-0.2L342.3,319.2z"/>
<path class="st0" d="M1386.4,457.3l0.2,0.3l-0.2,0.2l-0.2-0.1l-0.1-0.1L1386.4,457.3z"/>
<path class="st0" d="M1387.6,455.7l0.2,0.2l-0.1,0.2l-0.6,0.2l-0.2-0.2l0.2-0.5l0.2-0.1L1387.6,455.7z"/>
<path class="st0" d="M1389,454.9v0.4l-0.2-0.2V455L1389,454.9z"/>
<path class="st0" d="M367.8,360.2l-0.2,0.4l-0.2,0.3l-0.2,0.1l-0.1,0.3l0.2,0.5l-0.2,0.1v0.6l0.2,0.2l0.2,0.2l-0.2,0.2l-0.1,0.2v0.6
	L367,364l-0.3,0.2l-0.4,0.1H366l-0.4,0.1l-0.4-0.1l-0.3,0.1l-0.2-0.1l-0.4,0.2l-0.3-0.2h-0.5l-0.2,0.2l-0.2-0.1l0.4-0.2l0.2-0.2
	l0.3-0.1l0.3-0.2l0.2-0.2l0.5,0.1l0.2-0.3l-0.2-0.7l0.2-0.3v-0.4v-0.2l-0.2-0.3l-0.2-0.1l-0.3-0.1l-0.1-0.1l0.3-0.2l0.9-0.1l0.2-0.2
	h0.9l0.1-0.1l1-0.2H367.8z"/>
<path class="st0" d="M369.8,357.5l-0.1,0.4l-0.2,0.1l-0.3,0.2h-0.2l-0.6,0.3l-0.2-0.2l0.2-0.2l0.6-0.4L369.8,357.5z"/>
<path class="st0" d="M367.3,347.8L367.3,347.8l-0.5-0.2v-0.3l0.2-0.2l0.2-0.4h0.3l0.1,0.3l-0.1,0.7L367.3,347.8z"/>
<path class="st0" d="M353.9,319.5l-0.3,0.2h-0.1l-0.2,0.2l-0.1-0.1l0.1-0.2l0.5-0.1L353.9,319.5z"/>
<path class="st0" d="M352.5,323.2l0.2,0.2l-0.9,0.2l-0.1-0.4l0.6-0.2L352.5,323.2z"/>
<path class="st0" d="M353.1,320l-0.2,0.2h-0.4V320l0.2-0.1L353.1,320z"/>
<path class="st0" d="M352,319.8l0.3,0.2l-0.2,0.2l-0.2-0.2h-0.4l0.2-0.2L352,319.8z"/>
<path class="st0" d="M368.8,339.1v0.2l0.3-0.1l-0.2,0.4l0.2,0.2v0.2l0.2,0.2l0.2,0.8l-0.2,0.2l-0.1-0.3l-0.1,0.1l-0.5-0.1h-0.3
	l-0.2-0.2l0.5-0.4h-0.3l-0.3-0.3l-0.1-0.4l-0.2-0.4l0.2-0.3l0.3,0.1l0.4,0.2L368.8,339.1z"/>
<path class="st0" d="M367.9,333.3h-0.2l-0.2-0.3l0.1-0.2l0.2-0.2l0.2,0.2l0.1,0.2v0.2L367.9,333.3z"/>
<path class="st0" d="M366.5,331.1h0.2v0.2v0.1l-0.2,0.1v0.7v0.3l-0.2,0.2l-0.5,0.2v-0.2l-0.2-0.2l-0.1-0.4v-0.4l-0.1-0.4V331
	l0.2-0.2l0.2-0.1l0.4,0.2L366.5,331.1z"/>
<path class="st0" d="M367.6,330.8l0.3,0.1l0.4,0.3l-1.1,0.2l-0.2,0.1l-0.3-0.2l0.1-0.5l0.2-0.1l-0.1-0.5l0.1-0.2l0.2-0.2l0.2,0.3
	v0.3L367.6,330.8z"/>
</svg>
