<?xml version="1.0" encoding="UTF-8"?>
<svg id="Layer_1" xmlns="http://www.w3.org/2000/svg" version="1.1" viewBox="0 0 725.78 168.66">
  <!-- Generator: Adobe Illustrator 29.8.5, SVG Export Plug-In . SVG Version: 2.1.1 Build 2)  -->
  <path d="M124.5,99.79c.29,0,.58-.02.87-.02,3.58-.09,7.14-.21,10.68-.36.68-.03,1.36-.05,2.04-.08l3.36-2.44,5.97,1.91c6.63-.44,13.22-.99,19.74-1.68h.01c-9.02-2.89-18.04-5.77-27.06-8.65l-15.61,11.32Z"/>
  <path d="M96.71,120.66h-.01c-.4-.01-.73-.02-.94-.02l-25.21,18.29,11.84-18.52h-.18c-.82-.02-1.65-.04-2.47-.06-1.36-.06-2.69-.15-4.02-.23-.69-.04-1.4-.07-2.09-.12-10.37,16.22-20.74,32.44-31.11,48.66l66.34-48.13c-2.13.04-4,.07-5.58.1-2.83.04-4.5.05-6.57.03Z"/>
  <path d="M471.16,97.67h.01c0-.24,0-.47-.03-.68-.29-3.2-2.65-3.49-5.07-3.49h-32.21v8.18h32.21c2.37,0,5.09-.46,5.09-4.01Z"/>
  <path d="M283.46,97.68c0-.83-.12-1.48-.33-2.01-.76-1.96-2.74-2.16-4.77-2.16h-32.21v8.18h32.21c1.48,0,3.1-.18,4.11-1.18.6-.6.99-1.5.99-2.83Z"/>
  <path d="M617.93,93.15c-3.65-.62-8.46-.82-14.65-.82-17.39,0-24.66,1.48-24.66,10.64,0,4.02,1.39,6.56,4.41,8.14.01,0,.03.01.04.02.64.33,1.34.62,2.13.87,4,1.29,9.93,1.61,18.08,1.61,17.92,0,24.28-1.61,24.28-10.64,0-5.91-2.72-8.64-9.63-9.82ZM619.94,102.99c0,.99-.06,1.3-.1,1.37-.03.02-.09.06-.18.1-.07.03-.16.07-.24.1-.01,0-.03,0-.04.02-.02,0-.05.02-.07.02-.36.15-.79.28-1.26.39-.22.06-.45.11-.7.16-4.26.87-11.44.87-14.09.87-.79,0-1.98,0-3.38-.02-2.8-.05-6.43-.18-9.35-.6-1.46-.21-2.73-.48-3.64-.85-.24-.1-.53-.22-.58-.27,0-.02-.02-.04-.03-.08-.04-.14-.08-.47-.08-1.22,0-.68.03-1.02.06-1.18.01-.06.02-.09.03-.11.04-.04.21-.12.39-.19.07-.03.13-.06.2-.08,3.61-1.47,13.21-1.47,16.37-1.47,1.76,0,5.55,0,9.14.26,2.59.19,5.07.51,6.62,1.06h.03c.12.04.25.08.36.13.18.08.4.17.44.2.02.03.04.1.06.22s.03.29.04.55v.62Z"/>
  <polygon points="691.66 70.07 691.62 70.08 691.66 70.08 691.66 70.07"/>
  <path d="M173.32,18.93c7.28-.83,14.57-1.49,21.88-1.98-12.18.32-24.35,1.04-36.48,2.17l1.15,1.56c4.48-.65,8.96-1.23,13.45-1.75Z"/>
  <path d="M691.67,70.09h-.01v22.81l-29-22.83h-32.65v1.79c-8.58-2.44-18.21-2.98-26.74-2.98-10.07,0-21.65.75-31.26,4.49l-1.12-.25c-11.94-2.65-27.88-4.09-36.82-4.09s-30.92.01-39.54,12.16c-3.95-6.14-11.61-11.17-26.16-11.17h-165.19v6.91c-4.5-4.04-11.55-6.91-22.52-6.91h-61.08v24.41c-7.2,1.59-14.89,3.1-22.08,4.27-28.23,4.79-56.89,6.89-85.51,6.93-18.13-.18-100.08-.49-91.25-29.46,4.92-12.33,22.37-21.06,33.89-26.69,23.09-10.86,47.41-17.24,71.87-22.77.83-1.3,1.66-2.59,2.49-3.89.03-.18-1.1.22-1.58.21-26.3,4.11-52.54,10.46-77.48,19.13-5.42,1.88-12.73,4.88-19.82,8.53-5.44,2.79-10.74,5.9-15.64,9.57-13.37,9.83-21.13,23.03-6.81,35.44,23.88,19.49,76.1,19.83,106.17,18.96,28.77-.86,57.56-4.39,85.65-10.43,6.74-1.48,13.47-3.13,20.11-4.92,0,0,0,0,0,0v11.27l-3.39-4.55c-2.66.68-5.32,1.34-8,1.98l2.16,2.9-6.18-1.97c-4.98,1.13-9.99,2.21-15.05,3.17,10.16,3.24,20.31,6.49,30.47,9.73,0,0,0,0,0,0v14.1h34.15v-13.1h5.5l16.64,13.1h165.56v-13.1h5.5l16.64,13.1h48.21c5.84.33,11.72.61,17.64.86.95.04,1.9.08,2.84.12,0,0,2.94.1,5.48.1,12.27,0,23.9-.53,31.74-5.47,10.04,4.67,22.8,5.55,33.76,5.55,8.54,0,18.16-.54,26.74-2.98v1.87h34.15v-23.55l27.69,22.09,1.82,1.46h32.12v-65.9h-34.11ZM278.54,128.33l-16.65-13.1h-15.74v13.1h-18.95v-50.69h53.47c15.34,0,22.49,5.85,22.49,18.41,0,10.55-5.97,16.57-17.74,17.87l-4.43.5,6.28,3.25,14.12,10.66h-22.85ZM303.2,120.16l-3.72-2.81c1.38-.82,2.59-1.77,3.72-2.78v5.59ZM329.75,128.33h-15.72l-3.22-2.43v-48.26h18.94v50.69ZM407.31,106.4h-7.1v-6.84h7.1v6.84ZM407.31,91.96h-51.01v7.61h36.3v6.84h-36.3v7.61h51.01v14.32h-69.95v-50.69h69.95v14.31ZM466.25,128.33l-16.64-13.1h-15.74v13.1h-18.94v-50.69h53.47c15.34,0,22.49,5.85,22.49,18.41,0,10.55-5.97,16.57-17.74,17.87l-4.43.5,6.28,3.25,14.12,10.66h-22.87ZM492.49,121.35l-5.3-4c2.99-1.78,5.38-4.06,7.2-6.75l-1.9,10.75ZM567.44,84.58l-1.75,8.21c-1.51-.5-2.83-.81-3.83-1,1.28-2.8,3.11-5.21,5.58-7.21ZM498.64,96.26h.01c-.11-.88-.16-1.77-.16-2.67,0-11.72,10.98-16.94,35.59-16.94,6.87,0,18.09.92,27.92,2.53-3.48,2.95-6.26,6.71-7.98,11.53-1.07-.12-2.29-.24-3.84-.38-8.53-.78-23.48-1.16-33-1.08-2.09.02-3.78,1.74-3.77,3.84.02,2.08,1.73,3.77,3.83,3.77,10.93-.06,22.74.43,22.86.44,3.73.16,6.62.33,9.65.57.93.07,1.78.15,2.6.23-.18,1.56-.29,3.18-.29,4.9,0,1.86.11,3.62.32,5.28h-.08c-10.24.08-26.26-.62-26.42-.63-6.11-.27-10.35-.7-15.63-1.59-3.12-.52-6.34-1.36-8.78-3.96-1.38-1.46-2.34-3.43-2.78-5.69l-.05-.15ZM537.78,129.39h0c-12.42.02-27.64-1.67-38.23-4.21l2.44-13.83c2.84,1.19,5.3,1.81,6.97,2.19,2.27.51,5.3,1.03,17.4,1.73,5.9.34,9.79.57,14.25.6,5.08.04,6.42.02,7.51,0h1.41c1.41,0,2.4,0,2.85-.02.6,0,1.17-.16,1.69-.43,1.68,4.63,4.35,8.27,7.68,11.15-5.1,1.83-12.72,2.82-23.97,2.82ZM568.63,122.21h-.02c-6.08-4.3-8.93-10.6-8.93-19.23,0-1.33.09-2.59.22-3.81,1.11-.01,3.4.12,5.61,1.55,1.86,1.21,2.85,2.73,3.45,3.67.18.29,1.06,1.68,1.65,3.69.64,2.17.71,4.24.71,5.37,0,3.4-.67,6.35-2.69,8.76ZM603.28,129.48c-11.79,0-20.95-1.2-27.79-3.71.01-.02.03-.04.04-.06,3.11-4.76,4.05-10.87,2.79-18.15v-.04c-.92-4.1-2.68-7.58-5.25-10.33-.15-.16-.3-.31-.45-.47l3.59-16.8c6.75-2.34,15.69-3.44,27.06-3.44s20.03,1.08,26.74,3.34v46.32h.01c-6.72,2.26-15.54,3.34-26.74,3.34ZM637.62,122.44v-38.92c6.3,4.31,9.26,10.68,9.26,19.46s-2.96,15.15-9.26,19.46ZM718.21,128.37h-21.86l-39.79-31.75v31.75h-14.02c7.16-5.07,11.94-13.02,11.94-25.39s-4.74-20.23-11.84-25.3h17.38l39.24,30.89v-30.89h18.95v50.69Z"/>
  <path d="M37.27,64.46h0c19.95,6.27,39.89,12.54,59.84,18.81l-10.21,15.96c1.4.09,2.82.17,4.24.24,1.51.08,3,.15,4.49.22l13.23-20.7c-13.86-4.36-27.71-8.71-41.57-13.07,19.22-4.03,38.44-8.07,57.66-12.1,6.63-10.37,13.25-20.74,19.88-31.11l17.38,23.46,50.69-10.54c-12.68,9.16-25.37,18.33-38.05,27.49,7.4,9.96,14.8,19.92,22.2,29.88,2.8-.47,5.59-.97,8.36-1.49-6.62-8.91-13.25-17.82-19.87-26.73,11.35-8.2,22.69-16.39,34.04-24.59v25.71h209.51v-22.16L474.92,0h-45.41l-17.26,16.12L394.93,0h-100.93v34.83h-40.25V0h-34.15v26.46s-.01,0-.02,0v.02c-18.05,3.75-36.1,7.51-54.15,11.26l-21.05-28.42c-8.04,12.57-16.07,25.15-24.11,37.72-27.67,5.8-55.33,11.61-83,17.41ZM391.94,7.6h0l20.33,18.91,20.25-18.91h23.43l-34.44,32.88v17.81h-18.95v-17.96l-34.35-32.73h23.73ZM354.71,5.25l31.05,29.59h-31.05V5.25ZM328.15,7.6h18.95v34.83h47.85v15.86h-66.8V7.6ZM301.61,34.83V7.6h18.94v50.69h-18.94v-23.46ZM294.01,42.43v15.86h-66.8v-23.6l18.95-13.68v21.42h47.85ZM227.21,24.88V7.6h18.95v13.36h-.06s.04-.02.04-.02l-18.93,3.94Z"/>
</svg>