<?xml version="1.0" encoding="UTF-8"?>
<svg id="Layer_1" xmlns="http://www.w3.org/2000/svg" version="1.1" viewBox="0 0 725.78 168.7">
  <!-- Generator: Adobe Illustrator 30.3.0, SVG Export Plug-In . SVG Version: 2.1.3 Build 182)  -->
  <path d="M471.16,97.69h.01c0-.24,0-.47-.03-.68-.29-3.2-2.65-3.49-5.07-3.49h-32.21v8.18h32.21c2.37,0,5.09-.46,5.09-4.01Z"/>
  <path d="M617.93,93.17c-3.65-.62-8.46-.82-14.65-.82-17.39,0-24.66,1.48-24.66,10.64,0,4.02,1.39,6.56,4.41,8.14.01,0,.03.01.04.02.64.33,1.34.62,2.13.87,4,1.29,9.93,1.61,18.08,1.61,17.92,0,24.28-1.61,24.28-10.64,0-5.91-2.72-8.64-9.63-9.82ZM619.94,103.01c0,.99-.06,1.3-.1,1.37-.03.02-.09.06-.18.1-.07.03-.16.07-.24.1-.01,0-.03,0-.04.02-.02,0-.05.02-.07.02-.36.15-.79.28-1.26.39-.22.06-.45.11-.7.16-4.26.87-11.44.87-14.09.87-.79,0-1.98,0-3.38-.02-2.8-.05-6.43-.18-9.35-.6-1.46-.21-2.73-.48-3.64-.85-.24-.1-.53-.22-.58-.27,0-.02-.02-.04-.03-.08-.04-.14-.08-.47-.08-1.22,0-.68.03-1.02.06-1.18.01-.06.02-.09.03-.11.04-.04.21-.12.39-.19.07-.03.13-.06.2-.08,3.61-1.47,13.21-1.47,16.37-1.47,1.76,0,5.55,0,9.14.26,2.59.19,5.07.51,6.62,1.06h.03c.12.04.25.08.36.13.18.08.4.17.44.2.02.03.04.1.06.22s.03.29.04.55v.62Z"/>
  <path d="M283.46,97.7c0-.83-.12-1.48-.33-2.01-.76-1.96-2.74-2.16-4.77-2.16h-32.21v8.18h32.21c1.48,0,3.1-.18,4.11-1.18.6-.6.99-1.5.99-2.83Z"/>
  <path d="M691.67,70.11h-.01v22.81l-29-22.83h-32.65v1.79c-8.58-2.44-18.21-2.98-26.74-2.98-10.07,0-21.65.75-31.26,4.49l-1.12-.25c-11.94-2.65-27.88-4.09-36.82-4.09s-30.92.01-39.54,12.16c-3.95-6.14-11.61-11.17-26.16-11.17h-165.19v6.91c-4.5-4.04-11.55-6.91-22.52-6.91h-61.08c0,8.15,0,16.29,0,24.44-1.03.23-2.06.47-3.09.68-4.57.97-11.09,2.28-18.94,3.62-14.34,2.45-46.54,7.32-85.53,6.93-18.13-.17-100.1-.49-91.27-29.47,4.92-12.33,22.38-21.07,33.9-26.7,23.1-10.87,47.42-17.24,71.88-22.77.83-1.3,1.66-2.59,2.49-3.9.03-.19-1.1.22-1.58.21-26.31,4.11-52.55,10.46-77.5,19.14-5.42,1.88-12.73,4.88-19.83,8.53-5.44,2.79-10.75,5.9-15.65,9.57-13.38,9.83-21.13,23.03-6.81,35.45,23.88,19.5,76.11,19.84,106.2,18.96,28.74-.83,56.52-3.94,85.67-10.43,8.29-1.85,15.16-3.63,20.05-4.96,0,3.76,0,7.52,0,11.27l-3.32-4.47c-2.65.69-5.32,1.34-8,1.97h.01s2.11,2.84,2.11,2.84l-6.02-1.92c-5,1.13-10.04,2.18-15.11,3.15l30.34,9.69c0,4.69,0,9.38,0,14.07h34.15v-13.1h5.5l16.64,13.1h165.56v-13.1h5.5l16.64,13.1h48.21c5.84.33,11.72.61,17.64.86.95.04,1.9.08,2.84.12,0,0,2.94.1,5.48.1,12.27,0,23.9-.53,31.74-5.47,10.04,4.67,22.8,5.55,33.76,5.55,8.54,0,18.16-.54,26.74-2.98v1.87h34.15v-23.55c9.84,7.85,19.67,15.7,29.51,23.55h32.12v-65.9h-34.11ZM278.54,128.35l-16.65-13.1h-15.74v13.1h-18.95v-50.69h53.47c15.34,0,22.49,5.85,22.49,18.41,0,10.55-5.97,16.57-17.74,17.87l-4.43.5,6.28,3.25,14.12,10.66h-22.85ZM303.2,120.18l-3.72-2.81c1.38-.82,2.59-1.77,3.72-2.78v5.59ZM329.75,128.35h-15.72l-3.22-2.43v-48.26h18.94v50.69ZM407.31,106.42h-7.1v-6.84h7.1v6.84ZM407.31,91.98h-51.01v7.61h36.3v6.84h-36.3v7.61h51.01v14.32h-69.95v-50.69h69.95v14.31ZM466.25,128.35l-16.64-13.1h-15.74v13.1h-18.94v-50.69h53.47c15.34,0,22.49,5.85,22.49,18.41,0,10.55-5.97,16.57-17.74,17.87l-4.43.5,6.28,3.25,14.12,10.66h-22.87ZM492.49,121.37l-5.3-4c2.99-1.78,5.38-4.06,7.2-6.75l-1.9,10.75ZM567.44,84.6l-1.75,8.21c-1.51-.5-2.83-.81-3.83-1,1.28-2.8,3.11-5.21,5.58-7.21ZM498.64,96.28h.01c-.11-.88-.16-1.77-.16-2.67,0-11.72,10.98-16.94,35.59-16.94,6.87,0,18.09.92,27.92,2.53-3.48,2.95-6.26,6.71-7.98,11.53-1.07-.12-2.29-.24-3.84-.38-8.53-.78-23.48-1.16-33-1.08-2.09.02-3.78,1.74-3.77,3.84.02,2.08,1.73,3.77,3.83,3.77,10.93-.06,22.74.43,22.86.44,3.73.16,6.62.33,9.65.57.93.07,1.78.15,2.6.23-.18,1.56-.29,3.18-.29,4.9,0,1.86.11,3.62.32,5.28h-.08c-10.24.08-26.26-.62-26.42-.63-6.11-.27-10.35-.7-15.63-1.59-3.12-.52-6.34-1.36-8.78-3.96-1.38-1.46-2.34-3.43-2.78-5.69l-.05-.15ZM537.78,129.41h0c-12.42.02-27.64-1.67-38.23-4.21l2.44-13.83c2.84,1.19,5.3,1.81,6.97,2.19,2.27.51,5.3,1.03,17.4,1.73,5.9.34,9.79.57,14.25.6,5.08.04,6.42.02,7.51,0h1.41c1.41,0,2.4,0,2.85-.02.6,0,1.17-.16,1.69-.43,1.68,4.63,4.35,8.27,7.68,11.15-5.1,1.83-12.72,2.82-23.97,2.82ZM568.63,122.23h-.02c-6.08-4.3-8.93-10.6-8.93-19.23,0-1.33.09-2.59.22-3.81,1.11-.01,3.4.12,5.61,1.55,1.86,1.21,2.85,2.73,3.45,3.67.18.29,1.06,1.68,1.65,3.69.64,2.17.71,4.24.71,5.37,0,3.4-.67,6.35-2.69,8.76ZM603.28,129.5c-11.79,0-20.95-1.2-27.79-3.71.01-.02.03-.04.04-.06,3.11-4.76,4.05-10.87,2.79-18.15v-.04c-.92-4.1-2.68-7.58-5.25-10.33-.15-.16-.3-.31-.45-.47l3.59-16.8c6.75-2.34,15.69-3.44,27.06-3.44s20.03,1.08,26.74,3.34v46.32h.01c-6.72,2.26-15.54,3.34-26.74,3.34ZM637.62,122.46v-38.92c6.3,4.31,9.26,10.68,9.26,19.46s-2.96,15.15-9.26,19.46ZM718.21,128.39h-21.86l-39.79-31.75v31.75h-14.02c7.16-5.07,11.94-13.02,11.94-25.39s-4.74-20.23-11.84-25.3h17.38l39.24,30.89v-30.89h18.95v50.69Z"/>
  <path d="M37.34,64.49v.02c19.93,6.27,39.88,12.54,59.82,18.81l-10.2,15.96c3,.19,5.68.32,7.89.43l.4.02h.44l13.23-20.7c-13.86-4.35-27.71-8.71-41.57-13.07,19.21-4.04,38.44-8.06,57.65-12.1,6.62-10.37,13.26-20.73,19.88-31.11l17.38,23.46,50.68-10.54c-12.68,9.17-25.36,18.32-38.05,27.48,7.4,9.96,14.8,19.91,22.19,29.87,2.8-.47,5.59-.97,8.36-1.49-6.62-8.91-13.25-17.82-19.86-26.73,11.33-8.18,22.66-16.37,33.99-24.55v25.66h209.51v-22.16L474.92.02h-45.41l-17.26,16.12L394.93.02h-100.93v34.83h-40.25V.02h-34.17v26.51l-54.11,11.25c-7.02-9.47-14.03-18.94-21.05-28.41-8.03,12.57-16.07,25.14-24.1,37.71-27.66,5.8-55.33,11.61-82.99,17.41ZM391.94,7.62l20.33,18.91,20.25-18.91h23.43l-34.44,32.88v17.81h-18.95v-17.96l-34.35-32.73h23.73ZM354.71,5.27l31.05,29.59h-31.05V5.27ZM328.15,7.62h18.95v34.83h47.85v15.86h-66.8V7.62ZM301.61,7.62h18.94v50.69h-18.94V7.62ZM227.21,7.62h18.95v13.38l-18.95,3.94V7.62ZM227.21,34.74c6.32-4.56,12.63-9.13,18.95-13.69v21.39h47.85v15.86h-66.8v-23.57Z"/>
  <path d="M95.82,120.68h-.01s-25.2,18.3-25.2,18.3l11.84-18.52c-.86-.02-1.72-.03-2.59-.07h-.07c-2.07-.1-4.1-.21-6.11-.34-10.37,16.21-20.73,32.44-31.11,48.65,22.11-16.04,44.21-32.08,66.33-48.13-3.71.08-7.44.12-11.16.12-.63,0-1.29-.01-1.92-.02Z"/>
  <path d="M124.56,99.84c4.54-.1,9.08-.26,13.58-.47l3.36-2.43,5.97,1.91c6.63-.44,13.21-.99,19.73-1.68l-27.05-8.64-15.59,11.31Z"/>
  <path d="M173.36,18.99h.01c7.28-.84,14.57-1.51,21.88-1.99-12.18.32-24.35,1.04-36.49,2.17l1.15,1.56c4.48-.65,8.96-1.23,13.45-1.75Z"/>
</svg>