<?xml version="1.0" encoding="UTF-8"?>
<svg id="Layer_1" xmlns="http://www.w3.org/2000/svg" version="1.1" viewBox="0 0 725.77 168.7">
  <!-- Generator: Adobe Illustrator 30.3.0, SVG Export Plug-In . SVG Version: 2.1.3 Build 182)  -->
  <defs>
    <style>
      .st0 {
        fill: #fff;
      }
    </style>
  </defs>
  <path class="st0" d="M95.82,120.67h-.01l-25.2,18.3,11.84-18.52c-.86-.02-1.72-.03-2.59-.07h-.07c-2.07-.1-4.1-.21-6.11-.34-10.37,16.21-20.73,32.44-31.11,48.65,22.11-16.04,44.21-32.08,66.33-48.13-3.71.08-7.44.12-11.16.12-.63,0-1.29-.01-1.92-.02h0Z"/>
  <path class="st0" d="M124.55,99.84h.02s-.01-.01-.02-.01h0Z"/>
  <path class="st0" d="M124.56,99.83c4.54-.1,9.08-.26,13.58-.47l3.36-2.43,5.97,1.91c6.63-.44,13.21-.99,19.73-1.68l-27.05-8.64-15.59,11.31Z"/>
  <path class="st0" d="M173.36,18.98h0c7.28-.84,14.57-1.51,21.88-1.99-12.18.32-24.35,1.04-36.49,2.17l1.15,1.56c4.48-.65,8.96-1.23,13.45-1.75h0Z"/>
  <polygon class="st0" points="310.81 125.93 314.03 128.36 329.75 128.36 329.75 77.67 310.81 77.67 310.81 125.93"/>
  <polygon class="st0" points="337.36 128.37 407.31 128.37 407.31 114.05 356.3 114.05 356.3 106.44 392.6 106.44 392.6 99.6 356.3 99.6 356.3 91.99 407.31 91.99 407.31 77.68 337.36 77.68 337.36 128.37"/>
  <polygon class="st0" points="394.95 42.46 347.1 42.46 347.1 7.63 328.15 7.63 328.15 58.32 394.95 58.32 394.95 42.46"/>
  <polygon class="st0" points="402.56 58.32 421.51 58.32 421.51 40.51 455.95 7.63 432.52 7.63 412.27 26.54 391.94 7.63 368.21 7.63 402.56 40.36 402.56 58.32"/>
  <path class="st0" d="M320.55,7.63h-18.94v50.69h18.94V7.63Z"/>
  <path class="st0" d="M490.89,96.08c0-12.56-7.15-18.41-22.49-18.41h-53.47v50.69h18.94v-13.1h15.74l16.64,13.1h22.87l-14.12-10.66-6.28-3.25,4.43-.5c11.77-1.3,17.74-7.32,17.74-17.87h0ZM471.16,97.7c0,3.55-2.72,4.01-5.09,4.01h-32.21v-8.18h32.21c2.42,0,4.78.29,5.07,3.49.03.21.03.44.03.68h-.01Z"/>
  <path class="st0" d="M219.65,99.31c1.56-.42,3.12-.86,4.68-1.3v-4.6c-2.6.59-5.21,1.18-7.82,1.73-4.57.97-11.09,2.28-18.94,3.62-14.34,2.45-46.54,7.32-85.53,6.93-18.13-.17-100.1-.49-91.27-29.47,4.92-12.33,22.38-21.07,33.9-26.7,23.1-10.87,47.42-17.24,71.88-22.77.83-1.3,1.66-2.59,2.49-3.9.03-.19-1.1.22-1.58.21-26.31,4.11-52.55,10.46-77.5,19.14-5.42,1.88-12.73,4.88-19.83,8.53-5.44,2.79-10.75,5.9-15.65,9.57-13.38,9.83-21.13,23.03-6.81,35.45,23.88,19.5,76.11,19.84,106.2,18.96,28.74-.83,56.52-3.94,85.67-10.43,8.31-1.85,15.21-3.64,20.11-4.98h0Z"/>
  <path class="st0" d="M631.76,83.55v38.92c6.3-4.31,9.26-10.68,9.26-19.46s-2.96-15.15-9.26-19.46Z"/>
  <path class="st0" d="M693.4,77.71v30.89l-39.24-30.89h-17.38c7.1,5.07,11.84,12.93,11.84,25.3s-4.78,20.32-11.94,25.39h14.02v-31.75l39.79,31.75h21.86v-50.69s-18.95,0-18.95,0Z"/>
  <path class="st0" d="M559.83,92.82l1.75-8.21c-2.47,2-4.3,4.41-5.58,7.21,1,.19,2.32.5,3.83,1Z"/>
  <path class="st0" d="M504.39,106.09c5.28.89,9.52,1.32,15.63,1.59.16.01,16.18.71,26.42.63h.08c-.21-1.66-.32-3.42-.32-5.28,0-1.72.11-3.34.29-4.9-.82-.08-1.67-.16-2.6-.23-3.03-.24-5.92-.41-9.65-.57-.12-.01-11.93-.5-22.86-.44-2.1,0-3.81-1.69-3.83-3.77-.01-2.1,1.68-3.82,3.77-3.84,9.52-.08,24.47.3,33,1.08,1.55.14,2.77.26,3.84.38,1.72-4.82,4.5-8.58,7.98-11.53-9.83-1.61-21.05-2.53-27.92-2.53-24.61,0-35.59,5.22-35.59,16.94,0,.9.05,1.79.16,2.67h-.01l.05.15c.44,2.26,1.4,4.23,2.78,5.69,2.44,2.6,5.66,3.44,8.78,3.96Z"/>
  <path class="st0" d="M548.21,115.45c-.52.27-1.09.43-1.69.43-.45.02-1.44.02-2.85.02h-1.41c-1.09.02-2.43.04-7.51,0-4.46-.03-8.35-.26-14.25-.6-12.1-.7-15.13-1.22-17.4-1.73-1.67-.38-4.13-1-6.97-2.19l-2.44,13.83c10.59,2.54,25.81,4.23,38.23,4.21h0c11.25,0,18.87-.99,23.97-2.82-3.33-2.88-6-6.52-7.68-11.15Z"/>
  <path class="st0" d="M563.1,104.42c-.6-.94-1.59-2.46-3.45-3.67-2.21-1.43-4.5-1.56-5.61-1.55-.13,1.22-.22,2.48-.22,3.81,0,8.63,2.85,14.93,8.93,19.23h.02c2.02-2.41,2.69-5.36,2.69-8.76,0-1.13-.07-3.2-.71-5.37-.59-2.01-1.47-3.4-1.65-3.69h0Z"/>
  <path class="st0" d="M624.15,79.85h0c-.84-.28-1.71-.55-2.61-.79-1.72-.47-3.56-.87-5.53-1.21-.16-.03-.32-.06-.49-.08-1.44-.24-2.94-.44-4.51-.61-.11-.01-.22-.02-.33-.03-1.1-.11-2.22-.21-3.39-.29-1.22-.09-2.48-.15-3.77-.21-1.95-.08-3.98-.11-6.11-.11-8.53,0-15.69.62-21.58,1.92-1.97.43-3.79.94-5.48,1.52l-3.59,16.8c.15.16.3.31.45.47,1.93,2.06,3.4,4.54,4.4,7.37.33.95.62,1.93.85,2.96v.04c.16.91.28,1.8.37,2.67.62,6.11-.44,11.31-3.16,15.48,0,.02-.03.04-.04.06,2.99,1.1,6.43,1.95,10.34,2.55.56.09,1.13.17,1.7.24,1.73.23,3.55.42,5.46.56,1.27.1,2.58.17,3.94.23,2.03.08,4.15.13,6.36.13,11.2,0,20.02-1.08,26.74-3.34h0v-46.32h-.02ZM617.25,103.02c0,1.53-.04,2.29-.07,2.64-.01.13-.02.2-.04.25-.05.09-.25.27-.46.42-.08.07-.15.13-.24.18-4.22,3.23-15.29,3.28-19.24,3.28s-15.02-.06-19.24-3.28c-.08-.04-.15-.11-.24-.18-.21-.16-.42-.33-.46-.42-.01-.04-.02-.11-.04-.25-.04-.36-.07-1.12-.07-2.63v-.02c0-1.52.04-2.28.07-2.63.01-.13.02-.2.04-.25.05-.09.25-.27.46-.42.08-.07.15-.13.24-.18,4.22-3.23,15.29-3.28,19.24-3.28s15.02.06,19.24,3.28c.08.04.15.11.24.18.21.16.42.33.46.42.01.04.02.11.04.25.04.36.07,1.12.07,2.63h0Z"/>
  <path class="st0" d="M37.34,64.47v.02c19.93,6.27,39.88,12.54,59.82,18.81l-10.2,15.96c3,.19,5.68.32,7.89.43l.4.02h.44l13.23-20.7c-13.86-4.35-27.71-8.71-41.57-13.07,19.21-4.04,38.44-8.06,57.65-12.1,6.62-10.37,13.26-20.73,19.88-31.11l17.38,23.46,50.68-10.54c-12.68,9.17-25.36,18.32-38.05,27.48,7.4,9.96,14.8,19.91,22.19,29.87,2.8-.47,5.59-.97,8.36-1.49-6.62-8.91-13.25-17.82-19.86-26.73,20.23-14.61,40.45-29.22,60.68-43.83l-80.8,16.8c-7.02-9.47-14.03-18.94-21.05-28.41-8.03,12.57-16.07,25.14-24.1,37.71-27.66,5.8-55.33,11.61-82.99,17.41h.02Z"/>
  <path class="st0" d="M246.16,16.57V7.63h-18.95v12.88l18.18-3.78.77-.16h0Z"/>
  <path class="st0" d="M246.16,42.46v-16.1l-18.95,13.69v18.27h66.8v-15.86h-47.85Z"/>
  <path class="st0" d="M208.28,108.11h0l2.11,2.84-6.02-1.92c-5,1.13-10.04,2.18-15.11,3.15l41.32,13.2-14.3-19.25c-2.65.69-5.32,1.34-8,1.97h0Z"/>
  <path class="st0" d="M303.16,96.08c0-12.56-7.15-18.41-22.49-18.41h-53.47v35.92c3.66,4.92,7.32,9.84,10.97,14.77h7.98v-13.1h15.74l16.65,13.1h22.85l-14.12-10.66-6.28-3.25,4.43-.5c11.77-1.3,17.74-7.32,17.74-17.87ZM282.47,100.54c-1.01,1-2.63,1.18-4.11,1.18h-32.21v-8.18h32.21c2.03,0,4.01.2,4.77,2.16.21.53.33,1.18.33,2.01,0,1.33-.39,2.23-.99,2.83Z"/>
</svg>