<?xml version="1.0" encoding="UTF-8"?>
<svg id="Layer_1" xmlns="http://www.w3.org/2000/svg" version="1.1" viewBox="0 0 725.85 168.66">
  <!-- Generator: Adobe Illustrator 30.3.0, SVG Export Plug-In . SVG Version: 2.1.3 Build 182)  -->
  <defs>
    <style>
      .st0 {
        fill: #fff;
      }
    </style>
  </defs>
  <polygon class="st0" points="246.29 16.6 246.29 7.61 227.35 7.61 227.35 20.54 245.41 16.78 246.29 16.6"/>
  <polygon class="st0" points="227.35 39.87 227.35 58.3 294.15 58.3 294.15 42.44 246.29 42.44 246.29 26.18 227.35 39.87"/>
  <polygon class="st0" points="402.7 58.3 421.65 58.3 421.65 40.49 430.26 32.27 456.09 7.61 432.66 7.61 423.98 15.72 412.41 26.52 412.41 26.52 412.41 26.52 392.08 7.61 368.35 7.61 402.7 40.34 402.7 58.3"/>
  <polygon class="st0" points="395.1 42.44 347.24 42.44 347.24 7.61 328.3 7.61 328.3 58.3 395.1 58.3 395.1 42.44"/>
  <polygon class="st0" points="320.7 7.61 301.75 7.61 301.75 34.84 301.75 58.3 320.7 58.3 320.7 7.61"/>
  <polygon class="st0" points="308.84 125.9 312.07 128.33 327.79 128.33 327.79 77.64 308.84 77.64 308.84 125.9"/>
  <polygon class="st0" points="335.39 128.33 405.34 128.33 405.34 114.02 354.34 114.02 354.34 106.41 390.64 106.41 390.64 99.57 354.34 99.57 354.34 91.96 405.34 91.96 405.34 77.64 335.39 77.64 335.39 128.33"/>
  <path class="st0" d="M483.28,109.53c.42-.34.81-.69,1.18-1.07,2.96-2.99,4.45-7.13,4.45-12.4,0-9.42-4.02-15.07-12.5-17.3-2.83-.74-6.15-1.11-9.99-1.11h-53.47v50.69h18.94v-13.1h15.74l16.64,13.1h22.87l-14.12-10.66-6.28-3.25,4.43-.5c5.15-.57,9.19-2.04,12.1-4.4h0ZM464.11,101.69h-32.21v-8.18h32.21c2.58,0,5.1.32,5.1,4.17,0,3.55-2.72,4.01-5.1,4.01Z"/>
  <path class="st0" d="M556.69,91.96c.29.06.59.14.92.22.56.14,1.18.32,1.82.53.1.03.19.06.28.09l1.76-8.21c-.62.5-1.2,1.02-1.74,1.57-1.34,1.36-2.41,2.9-3.29,4.57-.19.35-.39.7-.56,1.06.25.05.52.1.8.17h0Z"/>
  <path class="st0" d="M495.51,102.09c.31.32.62.62.95.89.52.43,1.07.78,1.63,1.1.34.2.7.37,1.06.53,1.65.74,3.41,1.14,5.14,1.43.74.12,1.46.24,2.17.35,2.44.37,4.74.64,7.22.85.64.05,1.29.1,1.96.15,1.34.09,2.75.17,4.28.24.02,0,.29.01.76.03.71.03,1.88.08,3.37.13,1,.04,2.13.08,3.37.12s2.57.08,3.97.12c2.79.08,5.81.15,8.72.19,1.46.02,2.88.03,4.24.03h2.05c-.1-.83-.18-1.69-.24-2.57-.05-.88-.08-1.78-.08-2.71,0-1.15.06-2.24.14-3.31.04-.54.08-1.07.14-1.59-.33-.03-.7-.06-1.04-.09-.51-.05-1-.09-1.56-.14-2.27-.18-4.47-.32-6.99-.44-.84-.04-1.72-.08-2.66-.12-.03,0-.79-.03-2.08-.08-.32-.01-.68-.02-1.07-.04-3.87-.13-10.78-.32-17.65-.33h-2.06c-.79,0-1.53-.24-2.14-.64-1.02-.68-1.69-1.83-1.7-3.12-.01-1.57.93-2.93,2.29-3.53.45-.2.95-.31,1.48-.31.59,0,1.21,0,1.85-.01,3.17,0,6.8.03,10.53.11,4.47.1,9.09.25,13.21.47,2.75.14,5.28.31,7.42.51.77.07,1.46.14,2.1.2.63.06,1.21.12,1.74.18.43-1.2.93-2.34,1.48-3.42.56-1.08,1.17-2.09,1.85-3.05,1.34-1.91,2.91-3.59,4.65-5.06-3.18-.52-6.51-.96-9.79-1.33-4.95-.56-9.75-.93-13.81-1.09-1.56-.06-3.04-.11-4.32-.11-24.61,0-35.59,5.23-35.59,16.94,0,.3.04.59.05.89.02.6.04,1.19.11,1.77l.04.1.02.05c.07.38.18.73.28,1.09.36,1.26.86,2.42,1.54,3.41.29.43.61.82.95,1.19l.02.02Z"/>
  <path class="st0" d="M554.6,125.44c-1.58-1.54-2.98-3.28-4.17-5.24-.89-1.47-1.7-3.02-2.33-4.76-.19.1-.4.17-.61.24-.35.11-.71.19-1.08.2h-4.26c-.55,0-1.15.01-2.26.01s-2.71,0-5.25-.02c-1.12,0-2.2-.03-3.28-.06-1.63-.05-3.26-.12-5.05-.21-.59-.03-1.21-.06-1.84-.1-1.26-.07-2.61-.15-4.09-.23-12.1-.7-15.13-1.22-17.4-1.73-.83-.19-1.87-.44-3.04-.79-1.18-.35-2.5-.81-3.92-1.4l-2.44,13.83c3.97.95,8.6,1.79,13.48,2.46,6.51.89,13.48,1.49,19.98,1.7,1.63.05,3.22.08,4.77.08,10.55,0,17.88-.88,22.96-2.5.34-.11.7-.21,1.02-.32-.42-.36-.79-.77-1.18-1.15h0Z"/>
  <path class="st0" d="M564.4,107.42c-.09-.28-.2-.55-.31-.82-.13-.33-.27-.63-.41-.92-.11-.23-.23-.46-.36-.68-.06-.1-.12-.2-.18-.3-.06-.1-.12-.2-.18-.3-.12-.19-.26-.38-.4-.56-.13-.19-.25-.38-.39-.56-.85-1.03-1.7-1.84-2.66-2.54-.65-.4-1.48-.67-2.76-.97-.26-.06-.53-.12-.83-.18-.35-.07-.74-.15-1.16-.23-.28-.05-.56-.11-.87-.17-.02.21-.04.44-.06.66-.1,1.02-.16,2.06-.16,3.15,0,5.39,1.12,9.88,3.44,13.53,1.39,2.19,3.22,4.09,5.5,5.7,2.02-2.41,2.69-5.36,2.69-8.76,0-1.92-.24-3.73-.71-5.37-.07-.23-.14-.46-.21-.68h.02Z"/>
  <path class="st0" d="M597.3,76.49c-1.42,0-2.81.02-4.15.05s-2.66.09-3.93.16c-6.36.35-11.79,1.14-16.35,2.41-.91.25-1.79.53-2.63.82l-3.59,16.8c.15.15.3.31.45.47,1.28,1.38,2.36,2.94,3.24,4.66.88,1.73,1.54,3.62,2,5.67v.04c.17.91.29,1.8.38,2.68.44,4.37.03,8.27-1.23,11.66-.5,1.36-1.15,2.63-1.92,3.82-.01.02-.03.04-.04.06,1.71.63,3.56,1.18,5.57,1.64,6.01,1.4,13.37,2.07,22.22,2.07,9.8,0,17.78-.82,24.13-2.55.91-.25,1.78-.51,2.62-.79v-46.32c-.84-.28-1.71-.55-2.62-.79-6.34-1.72-14.32-2.55-24.13-2.55h-.02ZM617,106.06c-.06.1-.33.32-.55.49-4.09,3.24-15.4,3.24-19.11,3.24s-15.13,0-19.41-3.29c-.28-.22-.63-.48-.69-.6-.06-.18-.13-.82-.13-2.9s.07-2.72.12-2.88c.07-.13.42-.4.7-.61,4.28-3.29,15.67-3.29,19.41-3.29s15.02,0,19.12,3.24c.21.17.48.38.53.45.06.2.13.89.13,3.1s-.07,2.91-.11,3.07v-.02Z"/>
  <path class="st0" d="M631.65,83.53v38.93c6.3-4.31,9.26-10.68,9.26-19.46s-2.96-15.15-9.26-19.46h0Z"/>
  <path class="st0" d="M693.3,77.69v30.89h0l-26.16-20.59-13.08-10.3h-17.38c7.1,5.08,11.84,13,11.84,25.3,0,6.19-1.2,11.26-3.29,15.43-1.05,2.08-2.32,3.94-3.77,5.59s-3.1,3.1-4.88,4.37h14.02v-31.75l39.79,31.75h21.86v-50.69h-18.95Z"/>
  <path class="st0" d="M173.37,18.93c2.43-.28,4.85-.54,7.28-.78,4.86-.48,9.73-.88,14.6-1.21-3.08.08-6.16.19-9.23.32-6.16.26-12.31.63-18.45,1.1-2.94.23-5.87.48-8.8.75l1.15,1.56c4.48-.65,8.96-1.23,13.45-1.75h0Z"/>
  <path class="st0" d="M124.54,99.79c4.56-.1,9.09-.26,13.6-.47l3.36-2.44,5.97,1.91c6.63-.44,13.22-.99,19.74-1.68l-27.06-8.64-15.6,11.32h-.01Z"/>
  <path class="st0" d="M216.25,106.03c-2.66.68-5.32,1.34-8,1.98l2.16,2.9-6.18-1.97c-4.98,1.13-9.99,2.21-15.05,3.17,13.81,4.41,27.62,8.82,41.43,13.23l-14.09-18.97-.26-.34h-.01Z"/>
  <path class="st0" d="M95.8,120.64l-25.21,18.29,11.84-18.52c-.88-.03-1.77-.04-2.65-.07-2.07-.1-4.1-.21-6.11-.34-10.37,16.22-20.74,32.44-31.11,48.66,22.11-16.05,44.22-32.09,66.34-48.13-3.72.08-7.44.13-11.18.13-.64,0-1.29-.01-1.93-.02h.01Z"/>
  <path class="st0" d="M86.64,54.11c-16.44,3.45-32.89,6.9-49.33,10.35,11.07,3.48,22.14,6.96,33.22,10.44h0c8.87,2.79,17.75,5.58,26.62,8.37l-10.21,15.96c3,.18,5.68.32,7.89.43l.4.02h.44l13.23-20.7c-8.28-2.6-16.55-5.2-24.83-7.81h0c-5.58-1.75-11.16-3.51-16.74-5.26,3.6-.75,7.19-1.51,10.79-2.26h0c15.62-3.28,31.25-6.56,46.87-9.83,6.63-10.37,13.26-20.74,19.88-31.11l17.38,23.46,50.69-10.54c-12.68,9.16-25.37,18.32-38.05,27.49,7.4,9.96,14.8,19.92,22.2,29.88,2.8-.47,5.59-.97,8.36-1.49-6.62-8.91-13.24-17.82-19.87-26.73,10.6-7.66,21.2-15.32,31.8-22.97l28.88-20.86-34.88,7.26-45.93,9.55c-7.02-9.47-14.04-18.95-21.05-28.42-8.04,12.57-16.07,25.14-24.11,37.72-11.22,2.35-22.44,4.71-33.67,7.06h.02Z"/>
  <path class="st0" d="M199.52,104.21c1.61-.35,3.21-.72,4.82-1.09,2.21-.51,4.42-1.03,6.62-1.58,1.51-.37,3.02-.76,4.53-1.15h0c.07-.02.15-.04.22-.06.03,0,.06-.01.09-.02.03,0,.06-.02.09-.03,2.77-.71,5.59-1.46,8.45-2.27v-4.65c-.49.11-.97.22-1.43.33-2.03.46-4.39.99-7.18,1.58-.98.2-1.96.41-2.94.61-1.83.37-3.66.73-5.5,1.08-1.31.25-2.62.5-3.94.73-1.87.34-3.74.66-5.62.97-1.27.21-2.54.43-3.81.64-2,.32-4.01.62-6.01.91-1.14.17-2.29.35-3.43.51-1.41.2-2.82.37-4.23.55-1.09.14-2.18.29-3.27.43-.65.08-1.31.17-1.96.25-3.15.38-6.31.73-9.47,1.04-.92.09-1.85.17-2.78.26-.34.03-.69.06-1.03.09-1.9.18-3.8.36-5.7.51-1.21.1-2.43.18-3.64.27-1.96.15-3.93.29-5.9.42-1.31.08-2.62.15-3.93.23-1.88.11-3.77.21-5.65.29-1.34.06-2.67.11-4.01.16-1.87.07-3.73.13-5.6.18-1.33.04-2.67.07-4,.1-1.9.04-3.79.06-5.69.08-1.29.01-2.59.03-3.88.03-.51,0-1.02.01-1.52.01-1.61,0-3.21-.02-4.81-.04-1.01,0-2.02,0-3.03-.02-3.13-.04-6.25-.11-9.38-.2h0c-18.35-.92-67.15-3.23-74.59-21.26-.18-.65-.31-1.29-.38-1.93-.15-1.28-.09-2.56.15-3.82.12-.63.29-1.26.5-1.89.63-1.88,1.65-3.73,2.99-5.54,1.12-1.52,2.48-3,4-4.46.82-.79,1.68-1.56,2.6-2.33.23-.2.47-.39.71-.58,1.05-.85,2.16-1.69,3.31-2.52,2.03-1.45,4.2-2.86,6.46-4.22,3.46-2.08,7.11-4.03,10.79-5.84.93-.46,1.86-.91,2.8-1.35,1.33-.63,2.65-1.24,3.96-1.82,1.78-.79,3.53-1.55,5.25-2.27,4.28-1.79,8.28-3.33,11.67-4.56,1.35-.49,2.61-.94,3.74-1.34.57-.2,1.1-.38,1.61-.55,15.09-4.86,30.44-9,45.97-12.38l2.52-3.94c-26.79,4.11-53.2,10.41-78.76,19.27-5.41,1.87-12.59,4.78-19.83,8.48-.9.46-1.81.94-2.72,1.42-.9.49-1.8.98-2.7,1.49-.45.25-.89.51-1.34.77-.89.52-1.77,1.05-2.64,1.59-.87.54-1.73,1.09-2.57,1.66-.85.56-1.68,1.13-2.49,1.71-.41.29-.81.58-1.21.88-1.19.89-2.34,1.79-3.44,2.72-5.47,4.62-9.58,9.71-10.9,15.05-.35,1.42-.51,2.87-.44,4.32.04.73.13,1.46.28,2.19.08.37.17.73.27,1.1.63,2.21,1.82,4.44,3.65,6.68.91,1.12,1.99,2.24,3.23,3.37.83.75,1.74,1.5,2.72,2.25,8.02,5.53,17.45,8.81,27.01,11.18,8.41,2.05,16.99,3.45,25.63,4.39,5.73.63,11.48,1.06,17.23,1.32h0c3.63.13,7.26.2,10.9.25,1.04.01,2.08.02,3.11.03,2.47.02,4.93,0,7.4,0,1.67-.01,3.33-.03,5-.05,2.29-.04,4.58-.1,6.86-.17,1.62-.05,3.24-.09,4.86-.16,2.39-.1,4.77-.23,7.15-.36,1.52-.08,3.04-.16,4.56-.25,2.65-.17,5.3-.38,7.95-.6,1.24-.1,2.49-.18,3.73-.29,7.79-.69,15.57-1.57,23.32-2.64,1.23-.17,2.46-.37,3.69-.55,2.64-.39,5.27-.78,7.9-1.21.38-.06.76-.13,1.14-.2,1.1-.19,2.2-.38,3.3-.58,2.37-.41,4.74-.83,7.1-1.28,1.58-.3,3.15-.62,4.72-.94,2.26-.46,4.53-.92,6.78-1.42v.03Z"/>
  <path class="st0" d="M303.21,96.06c0-12.56-7.15-18.41-22.49-18.41h-53.47v36.04l6.78,9.12,4.11,5.53h8.06v-13.1h15.74l16.65,13.1h22.87l-14.12-10.66-6.28-3.25,4.43-.5c11.77-1.3,17.74-7.32,17.74-17.87h-.02ZM278.4,101.69h-32.21v-8.18h32.21c2.58,0,5.09.32,5.09,4.17,0,3.55-2.72,4.01-5.09,4.01Z"/>
</svg>