<?xml version="1.0"?>
<svg xmlns="http://www.w3.org/2000/svg" width="398" height="73">
<path fill="#231F20" d="M20.5,32.9l-3.7-2.1c-4.4-2.6-6.8-4.5-6.8-7.6c0-3.4,2.8-5.5,7.3-5.5c3,0,6.7,1.3,11.7,4l0.6,0.4l0-8.8
	c0,0-0.1-0.1-0.1-0.1C25.2,11,21.1,10,16.6,10C7.2,10,0.8,15.5,0.8,23.6c0,6.7,4.3,10.6,10.9,14.5l3.8,2.3c5.4,3.2,7.3,5.5,7.3,8.9
	c0,4-3.6,6.8-8.7,6.8c-4.1,0-8.5-1.6-14-5.1L0,50.8v10.1c0,0,0.7,0.4,0.7,0.4c4.3,2,8.9,3,13.9,3c10.7,0,17.8-6.1,17.8-15.3
	C32.4,42.4,29.1,37.9,20.5,32.9z M85.7,63.1h9.2V40.4h20.4v-8.1H94.9V19.4h21.4v-8.2H85.7V63.1z M131.4,40H151v-8.1h-19.6V19.4h21.2
	v-8.2h-30.3v51.9H153v-8.3h-21.6V40z M286.1,11.2c0,0-5,7.9-11.7,18.4c-0.5,0.8-0.9,1.5-1.1,2c0,0-0.1,0-0.1,0
	c-0.2-0.5-0.6-1.2-1.1-2c-7.2-11.3-11.8-18.4-11.8-18.4h-11.1c0,0,19.3,28.3,19.3,28.3v23.6h9.4V39.5c1-1.5,19.3-28.3,19.3-28.3
	H286.1z M236.2,9.5l-24.4,53.6h10l3.8-9h22.1l3.9,9h9.9L237.1,9.5H236.2z M244.5,46.6h-15.7c0,0,4.3-10.4,7.1-16.8
	c0.5-1.1,0.7-2.5,0.7-2.5h0.1c0,0,0.3,1.4,0.7,2.5C240.3,36.5,244.5,46.6,244.5,46.6z M212.1,11.2c0,0-7,21.9-9.2,28.9
	c-0.2,0.8-0.6,2.2-0.7,2.6h-0.1c0-0.3-0.4-1.8-0.7-2.6c-1.7-4.6-11.8-30.8-11.8-30.8h-0.8c0,0-9.6,25.2-11.8,30.8
	c-0.3,0.9-0.7,2.3-0.7,2.6h-0.1c0-0.3-0.4-1.8-0.7-2.6c-2.3-7.2-9.2-28.9-9.2-28.9h-9.8l18.6,53.7h0.9c0,0,10.4-25.9,12.4-31
	c0.3-0.7,0.7-2.3,0.7-2.6l0.1,0c0,0.3,0.4,1.8,0.7,2.6c1.7,4.3,12.4,31,12.4,31h0.9l18.6-53.7H212.1z M57.1,9.5L32.6,63.1h10l3.9-9
	h22.1l3.9,9h9.9L58,9.5H57.1z M65.4,46.6H49.6c0,0,4.3-10.4,7.1-16.8c0.5-1.1,0.8-2.5,0.8-2.5h0.1c0,0,0.3,1.4,0.7,2.5
	C61.1,36.5,65.4,46.6,65.4,46.6z"/>
<path fill="#D6232A" d="M349.3,59.5c0-14.4-21.4-15.7-21.4-36.2c0-14.7,11.4-22,22.8-23.2c-1.1,0-2.2-0.1-3.7-0.1
	c-2.8,0-4.1,0.1-6.4,0.2c-21.3,1-32.6,12.4-33.3,29.9c0,1.1-0.2,3.1-0.2,6.2v0c0,3.1,0.1,5,0.2,6.2c0.7,17,11.5,28.3,31.7,29.8
	C342.2,71.7,349.3,69.3,349.3,59.5z M386.8,30.1c-0.7-16.6-10.9-27.7-30.1-29.7c-3.4,0.7-10.1,3.2-10.1,12.8
	c0,14.4,21.4,15.7,21.4,36.2c0,12.8-9.7,22.1-24.2,23.2c0.9,0,1.9,0.1,3.2,0.1c2.8,0,4.1-0.1,6.4-0.2c21.3-1,32.6-12.4,33.4-29.9
	c0-1.1,0.1-3.1,0.1-6.2v0C387,33.2,386.9,31.3,386.8,30.1z"/>
<path fill="#FFFFFF" d="M368,49.4c0-20.4-21.3-21.8-21.3-36.2c0-9.6,6.7-12.1,10.1-12.8c-1.1-0.1-2.2-0.2-3.3-0.3
	c-1,0-1.9-0.1-2.7-0.1c-11.4,1.2-22.8,8.5-22.8,23.2c0,20.4,21.4,21.8,21.4,36.1c0,9.8-7.1,12.3-10.3,12.9c0.6,0.1,1.1,0.1,1.7,0.1
	c1.2,0.1,2.2,0.1,3.2,0.1C358.4,71.5,368,62.2,368,49.4"/>
<path fill="#231F20" d="M388.3,68.6h-1.4v-0.5h3.6v0.5h-1.4v4.1h-0.7V68.6z M391.1,68.1h1.1l1.3,3.5l1.3-3.5h1.1v4.6h-0.7v-4h0
	l-1.5,4h-0.5l-1.5-4h0v4h-0.7V68.1z"/>
</svg>