<?xml version="1.0" encoding="UTF-8"?>
<svg id="Layer_1" xmlns="http://www.w3.org/2000/svg" version="1.1" viewBox="0 0 93.4 24">
  <!-- Generator: Adobe Illustrator 30.2.1, SVG Export Plug-In . SVG Version: 2.1.1 Build 1)  -->
  <defs>
    <style>
      .st0 {
        fill: #00674b;
        fill-rule: evenodd;
      }
    </style>
  </defs>
  <path class="st0" d="M84.48,10.85c0-2.54-1.01-4.03-2.72-4.03,0,0-.33.02-.49.05-.62.1-.8.27-.8,1.03v6.04c0,.82.51.87,1.23.91,1.75.1,2.78-1.48,2.78-4.01ZM85.33,7.14c.84.85,1.3,2.16,1.3,3.72,0,1.74-.59,3.19-1.65,4.04-.83.67-1.87.98-3.43.98-1.79,0-2.96-.16-3.38-.22-.42-.06-.63-.11-.63-.42,0-.22.14-.4.34-.4h.29c.1,0,.2-.08.24-.19.03-.1.04-.19.04-.57v-6.42c0-.38-.01-.47-.04-.57-.05-.11-.14-.19-.24-.19h-.29c-.2,0-.34-.18-.34-.4,0-.32.22-.36.63-.42.42-.06,1.59-.22,3.38-.22,1.79,0,2.9.39,3.78,1.29h0ZM75.31,10.89c0-2.45-1-3.99-2.59-3.99s-2.55,1.51-2.55,4.02.96,3.93,2.58,3.93,2.57-1.54,2.57-3.96ZM65.9,10.89c0-2.45-1-3.99-2.59-3.99s-2.55,1.51-2.55,4.02.96,3.93,2.58,3.93,2.56-1.54,2.56-3.96ZM72.73,5.86c2.87,0,4.73,1.95,4.73,4.97s-1.85,5.06-4.76,5.06c-2.31,0-3.97-1.31-4.5-3.43,0-.01-.01-.03-.01-.05-.05-.24-.26-.26-.31,0,0,0,0,.02-.01.03-.54,2.15-2.2,3.45-4.57,3.45-2.84,0-4.69-1.98-4.69-4.98s1.83-5.04,4.72-5.04c2.36,0,4.04,1.32,4.56,3.49.05.25.26.23.31,0h0c.52-2.17,2.18-3.48,4.53-3.48h0ZM58.73,7.42l-.2-1c-.06-.26-.22-.36-.51-.36h-6.22c-.48,0-.66.1-.66.42,0,.21.18.4.37.4h.29c.08,0,.2.09.23.22.04.12.06.19.06.56v6.45c0,.39-.02.46-.05.56-.05.12-.14.19-.24.19h-.29c-.2,0-.37.19-.37.4,0,.32.17.42.66.42h2.64c.53,0,.7-.1.7-.42,0-.22-.16-.4-.38-.4h-.32c-.13,0-.24-.08-.31-.19-.03-.1-.03-.17-.03-.56v-2.35c0-.32.04-.46.13-.52.07-.05.17-.06.58-.06h1.18c.6,0,.69.04.73.33v.1c.06.25.19.38.4.38.3,0,.4-.17.4-.68v-1.21c0-.5-.1-.68-.4-.68-.21,0-.34.12-.39.36v.09c-.06.29-.14.33-.74.33h-1.19c-.41,0-.52,0-.58-.06-.09-.06-.13-.2-.13-.52v-1.71c0-.77.09-.87.87-.87h1.84c.67,0,.96.05,1.1.42.07.18.12.28.14.31.1.19.23.22.37.22.27,0,.39-.2.32-.57h0ZM92.63,11.17c-.46-.48-.83-.76-1.97-1.56-.31-.21-.53-.38-.71-.51-.28-.22-.51-.45-.66-.66-.12-.16-.16-.38-.16-.59,0-.59.43-.97,1.09-.97.47,0,.96.16,1.35.46.3.23.36.29.68.78.13.19.23.24.38.24.25,0,.41-.16.41-.34,0-.05,0-.13-.03-.2l-.34-1.56c-.06-.26-.19-.4-.4-.4-.12,0-.16.01-.3.12-.12.08-.23.13-.33.13-.05,0-.13-.01-.2-.03-.2-.05-.32-.07-.36-.09-.42-.09-.83-.13-1.24-.13-1.58,0-2.64.93-2.64,2.32,0,.58.18,1.09.55,1.52.45.51.57.6,1.93,1.56.82.58,1.21.89,1.52,1.24.31.35.47.69.47,1.08,0,.76-.64,1.29-1.57,1.29-.82,0-1.62-.44-2.12-1.14l-.2-.29c-.14-.2-.41-.26-.62-.12-.12.08-.2.23-.19.37,0,.07.01.2.04.29l.36,1.44c.09.34.21.48.44.48.13,0,.2-.03.33-.13.12-.11.18-.14.31-.14.08,0,.1.02.31.07.41.13.97.2,1.51.2,1.89,0,3.13-1.1,3.13-2.77,0-.73-.27-1.43-.77-1.97h0ZM27.51,6.74c1.23.47,1.72,1.82,1.72,3.91,0,2.53-1.03,4.14-2.68,4.14s-2.7-1.55-2.7-4.11c0-1.65.24-2.95,1.39-4.09,1.16-1.14,2.24-.98,3.3-2.35.45-.58.44-1.08.1-1.18-.32-.09-.52.33-.84.54-1.14.75-2.43.05-3.13-.73-.7-.8-1.62-.77-2.16-.65-.23.05-.36-.14-.11-.33.58-.45,1.78-.48,2.51.19.63.57,1.47,1.03,2.09.91.37-.07.4-.5-.02-.65-1.18-.42-1.07-1.77-2.69-2.24-1.91-.55-3.65,1.26-4.13,3.05-.14.52.17.81.65.6,1.59-.69,1.99.27,3.34.81.6.24,1.33.18,1.73.11.33-.07.34.27.15.33-.91.31-1.83.78-2.38,1.19-1.31.88-2.07,2.44-2.07,4.47,0,3.15,1.93,5.21,4.9,5.21s4.97-2.07,4.97-5.29c0-1.85-.59-3.24-1.76-4.11-.68-.51-1.3-.72-1.93-.64-.77.09-.87.68-.27.9ZM12.77,6.81c.25-.03.6.01.6.75v6.48c0,.39,0,.46-.05.58-.03.1-.15.17-.25.17h-.29c-.2,0-.37.19-.37.4,0,.32.17.42.66.42h2.61c.46,0,.62-.1.62-.4,0-.23-.15-.42-.35-.42h-.27c-.12,0-.22-.07-.27-.17-.03-.11-.04-.2-.04-.58v-2.19c0-.66.06-.72.59-.72h1.95c.28,0,.43.05.5.13.07.09.07.15.07.68v2.1c0,.38,0,.46-.04.58-.05.1-.17.17-.26.17h-.27c-.2,0-.37.19-.37.4,0,.32.16.42.65.42h2.61c.5,0,.66-.1.66-.42,0-.21-.16-.4-.37-.4h-.29c-.1,0-.21-.07-.25-.17-.04-.11-.05-.2-.05-.58v-6.48c0-.36.01-.46.05-.57.04-.1.14-.17.25-.18h.29c.2,0,.37-.17.37-.41,0-.32-.18-.41-.66-.41h-2.61c-.49,0-.67.1-.67.41,0,.24.17.41.39.41h.27c.1,0,.21.07.26.18.04.11.04.19.04.57v1.77c0,.53,0,.59-.07.68-.08.08-.22.13-.51.13h-1.95c-.53,0-.59-.06-.59-.72v-1.86c0-.36.01-.46.04-.57.05-.11.16-.18.27-.18h.27c.2,0,.36-.17.36-.41,0-.32-.16-.41-.63-.41h-4.97c-.38,0-.55.11-.55.4,0,.23.15.37.46.41.35.05.5.16.5.38,0,.08-.01.2-.06.34,0,0-1.37,4.64-1.59,5.35-.03.12-.16.15-.2.01-.22-.69-1.61-5.11-1.61-5.11-.12-.35-.15-.47-.15-.61,0-.26.1-.35.49-.39.32-.05.47-.16.47-.39,0-.26-.16-.39-.49-.39h-2.81c-.34,0-.5.16-.5.44,0,.21.11.31.41.38.33.09.45.16.53.38.03.06.06.18.12.33,0,0,.49,1.44.52,1.54.09.3.06.56-.02.82-.03.09-.79,2.3-1.06,3.11-.05.13-.18.13-.22.02-.25-.73-1.83-5.23-1.83-5.23l-.12-.33c-.04-.1-.05-.21-.05-.32,0-.23.13-.33.45-.36.37-.03.51-.13.51-.37,0-.26-.14-.39-.47-.39H.48c-.33,0-.48.13-.48.37s.09.33.4.39c.46.1.53.17.74.76l2.82,7.59c.2.55.4.72.82.72.17,0,.35-.06.49-.16.11-.12.15-.22.29-.56,0,0,1.27-3.56,1.3-3.68.03-.11.16-.11.19,0,.04.12,1.22,3.67,1.22,3.67.17.53.39.72.82.72s.62-.2.83-.91l2.29-7.4c.16-.51.3-.67.56-.71h0ZM35.74,14.64c-.58,0-.79-.03-.94-.13-.17-.1-.2-.25-.2-.88v-6.06c0-.38,0-.47.04-.56.04-.12.17-.19.3-.19h.31c.22,0,.39-.19.38-.4,0,0,0,0,0,0,0-.32-.18-.42-.69-.42h-2.65c-.49,0-.67.1-.67.42,0,.23.17.4.39.4h.28c.1,0,.21.07.24.19.04.11.06.17.06.56v6.52c0,.36-.01.43-.06.54-.03.1-.15.19-.24.19h-.28c-.2,0-.36.17-.36.39,0,.32.16.42.64.42h5.4c.29,0,.45-.1.51-.36l.22-1.12c.08-.37-.05-.57-.31-.57-.14,0-.29.08-.39.27-.02.03-.04.09-.12.26-.18.37-.54.53-1.05.53h-.81s0,0,0,0ZM46.05,13.57c-.14,0-.29.08-.39.27-.02.03-.04.09-.12.26-.18.38-.54.53-1.05.53h-1.43c-.47,0-.67-.03-.85-.1-.23-.09-.27-.25-.27-1.01v-1.83c0-.32.05-.46.13-.52.07-.05.17-.06.58-.06h.66c.6,0,.69.04.73.33v.1c.06.25.19.38.4.38.3,0,.4-.17.4-.68v-1.21c0-.5-.1-.68-.4-.68-.22,0-.34.12-.39.36v.09c-.06.29-.14.33-.74.33h-.67c-.41,0-.52,0-.58-.06-.09-.06-.13-.2-.13-.52v-1.71c0-.76.09-.87.87-.87h1.35c.67,0,.96.05,1.1.42.07.18.12.28.14.31.06.15.21.24.37.23.26,0,.39-.2.31-.57l-.2-1c-.06-.26-.22-.36-.51-.36h-5.73c-.48,0-.66.1-.66.42,0,.21.18.4.37.4h.29c.08,0,.2.09.23.21.04.12.06.19.06.56v6.45c0,.39-.01.46-.06.58-.03.1-.13.19-.23.19h-.29c-.19,0-.35.18-.35.39,0,.32.16.42.64.42h5.99c.29,0,.45-.1.51-.36l.22-1.12c.08-.37-.05-.57-.31-.57ZM64.5,19.11c-.25,0-.24.33-.24.5,0,.16.06.34.25.34h1.18c.21,0,.28.08.28.25v3.52c0,.24.18.27.44.27s.45-.03.45-.28v-3.52c0-.19.11-.25.27-.25h1.17c.19,0,.26-.15.26-.43,0-.32-.11-.41-.28-.41,0,0-3.78,0-3.78,0ZM57.75,19.11c-.22,0-.29.13-.29.32v4.18c0,.25.09.35.3.35h3.69c.2,0,.25-.18.25-.41,0-.31-.07-.44-.26-.44h-2.86c-.14,0-.23-.08-.23-.25v-.71c0-.15.12-.25.25-.25h1.67c.19,0,.23-.2.23-.42,0-.26-.05-.43-.25-.43h-1.67c-.13,0-.23-.08-.23-.22v-.66c0-.12.08-.22.2-.22h2.89c.24,0,.28-.19.28-.44,0-.26-.04-.41-.26-.41h-3.7s0,0,0,0ZM50.74,19.09c-.31,0-.47.04-.47.3v4.32c0,.22.14.29.4.29.25,0,.48-.02.48-.29v-1.41c0-.19.13-.36.29-.36.29,0,.5.03.71.21l1.54,1.66c.1.12.21.19.62.19.38,0,.63-.14.36-.43-.18-.19-1.85-2.04-1.85-2.04-.12-.13-.16-.27.01-.42,0,0,1.39-1.27,1.52-1.39.18-.18.11-.35-.05-.5-.19-.18-.39-.19-.59-.02,0,0-1.59,1.46-1.74,1.6-.14.12-.22.2-.6.2-.13,0-.22-.1-.22-.31v-1.3c0-.23-.16-.29-.41-.29ZM43.51,19.95h1.49c.5,0,.91.26.91.8s-.41.8-.91.8h-1.49c-.15,0-.31-.1-.31-.27v-1.09c0-.2.16-.25.31-.25ZM46.79,20.75c0-1.02-.74-1.65-1.72-1.65h-2.54c-.11,0-.21.07-.21.18v4.44c0,.22.1.27.29.27.15,0,.59.04.59-.19v-1.17c0-.13.12-.24.25-.24h1.07c.17,0,.29.09.38.22l.75,1.17c.11.17.28.21.54.21.46,0,.6-.15.45-.37-.1-.15-.78-1.13-.82-1.19-.08-.11-.05-.18.08-.3.25-.22.88-.51.88-1.39h0ZM35.99,22.03c.03-.07.52-1.06.58-1.2.05-.12.19-.12.24,0,.06.13.56,1.16.59,1.22.05.1-.03.18-.12.18h-1.17c-.11,0-.17-.08-.12-.2ZM34.22,23.71c-.13.27.28.29.4.29.14,0,.44-.02.5-.18l.28-.53c.07-.18.18-.27.31-.27h1.99c.1,0,.19.07.22.15l.31.65c.07.16.29.19.44.19s.58-.04.48-.27c-.06-.13-2.08-4.45-2.08-4.45-.07-.14-.18-.21-.37-.21s-.31.1-.37.23c0,0-2.12,4.41-2.12,4.41ZM28.93,21.19l1.4-1.91c.08-.13.22-.19.37-.19.17,0,.29.04.36.32l.49,4.33c.02.25-.36.25-.53.25-.12,0-.35-.07-.35-.23l-.34-2.59c-.02-.11-.06-.16-.15-.16-.07,0-.1.03-.15.09l-1.16,1.49c-.05.08-.14.13-.23.13-.13,0-.19-.04-.26-.15l-1.07-1.45s-.09-.08-.15-.08c-.08,0-.13.08-.14.18l-.33,2.51c-.03.21-.28.25-.49.25-.15,0-.39-.07-.39-.25l.49-4.22c.05-.25.11-.4.47-.4.09,0,.24.03.36.21l1.32,1.87c.07.1.15.19.24.19.09,0,.18-.09.25-.19Z"/>
</svg>