<svg width="357" height="679" viewBox="0 0 357 679" fill="none" xmlns="http://www.w3.org/2000/svg">
<g clip-path="url(#clip0_128_1864)">
<path d="M137.485 71.3668C137.501 30.1208 171.447 0.438336 201.369 3.23396L201.368 3.23494C228.721 5.77987 254.834 35.6731 253.057 72.8687C289.825 52.7702 334.32 68.3023 348.851 99.8687L349.201 100.646V100.647C361.326 128.169 349.691 165.054 319.318 183.807C346.58 205.738 348.103 244.968 328.347 264.874L328.346 264.875C311.481 281.855 280.048 283.899 256.822 266.338C255.679 305.913 223.215 333.677 194.093 330.473H194.092C173.062 328.152 153.901 309.706 147.167 284.684C135.01 307.769 124.112 331.487 114.554 355.64C125.707 349.426 140.157 344.721 157.304 346.344H157.305C190.199 349.476 208.536 373.614 211.448 377.559L212.498 378.983L211.504 380.448C194.41 405.631 165.29 418.987 137.153 414.189V414.19C120.583 411.371 108.364 402.94 100.231 395.212C72.2721 480.04 60.2134 569.246 64.4631 660.699L64.4768 661.075C64.662 668.936 58.5127 675.518 50.6321 675.904L50.6311 675.903C47.6834 676.058 44.8849 675.31 42.5198 673.892L42.5168 673.89C38.4832 671.464 35.6855 667.146 35.4495 662.076C30.9337 565.133 44.0739 470.5 74.4641 380.671C50.2305 379.973 27.7812 368.461 14.6838 348.993L14.6819 348.99C-2.48263 323.4 4.01902 295.338 5.21802 290.48L5.63403 288.795L7.35767 288.595C8.62571 288.448 19.7112 287.288 33.7073 290.243C47.7187 293.201 64.7977 300.319 77.7649 316.851L78.4905 317.791C83.9425 324.97 87.505 332.416 89.7834 339.529C100.508 313.049 112.795 287.093 126.504 261.906C108.087 268.485 90.0352 269.052 74.969 265.607C58.2097 261.775 44.816 252.881 39.0637 241.404L39.0627 241.403C33.2021 229.691 34.3349 213.397 41.6008 197.348C48.4497 182.22 60.8647 166.999 78.7053 155.393C48.8813 137.304 42.0937 99.0609 57.9563 77.1646L57.9573 77.1637C73.5623 55.6556 111.021 49.9816 137.485 71.3668Z" stroke="white" stroke-width="5" stroke-miterlimit="10"/>
<path d="M146.751 134.227C163.308 106.464 199.07 97.2226 226.98 113.331L227.637 113.717L227.639 113.718C255.643 130.391 264.822 166.559 248.133 194.542C231.446 222.523 195.251 231.69 167.247 215.052L167.245 215.051C139.241 198.378 130.062 162.211 146.751 134.227Z" stroke="white" stroke-width="5" stroke-miterlimit="10"/>
</g>
<defs>
<clipPath id="clip0_128_1864">
<rect width="357" height="679" fill="white"/>
</clipPath>
</defs>
</svg>
