<svg width="353" height="676" viewBox="0 0 353 676" fill="none" xmlns="http://www.w3.org/2000/svg">
<path d="M313.02 181.271C344.91 163.691 357.2 126.331 345.18 99.0314C331.11 67.0714 284.82 51.4214 248.07 74.7414C252.4 36.2914 225.86 5.1814 198.83 2.6714C169.12 -0.098597 134.29 31.2014 137.65 74.4114C111.99 49.3014 72.7001 54.3914 57.1101 75.9114C41.5201 97.4314 48.9601 136.401 80.8501 152.931C41.9501 176.211 27.5301 216.651 38.3901 238.341C49.0501 259.601 89.0001 272.781 129.5 255.171C113.2 284.521 98.8201 314.911 86.5901 346.021C84.9301 338.211 81.3501 327.231 73.0501 316.801C49.5501 287.261 9.66011 289.071 4.64011 289.381C3.47011 294.141 -2.82992 321.401 13.8001 346.151C27.0401 365.881 50.3301 377.231 75.2401 376.871C44.0301 467.821 30.5301 563.691 35.1001 661.981C35.2901 666.191 37.6101 669.811 41.0001 671.801C42.9601 672.971 45.2701 673.591 47.7501 673.501C54.4001 673.171 59.5501 667.531 59.2601 660.881C54.8201 565.441 67.9601 472.391 98.3001 384.181C104.98 392.161 120.23 407.041 143.77 409.941C171.11 413.301 198.79 399.121 214.28 373.801C209.71 368.731 191.17 349.391 160.35 345.921C134.44 343.001 114.97 352.991 108.36 356.771C112.75 345.531 117.6 333.901 122.99 321.961C130.43 305.461 138.1 290.071 145.78 275.801C150.49 303.521 170.59 324.151 192.18 326.511C220.95 329.661 254.03 300.541 252.2 259.251C274.92 279.851 307.94 278.471 324.9 261.331C344.3 241.721 342.24 201.921 313.03 181.301L313.02 181.271Z" stroke="white" stroke-width="5" stroke-miterlimit="10"/>
<path d="M243.86 191.061C227.82 218.001 193.02 226.801 166.09 210.791C139.15 194.781 130.35 159.951 146.36 133.021C162.4 106.091 197.2 97.2814 224.13 113.291C251.07 129.331 259.87 164.131 243.86 191.061Z" stroke="white" stroke-width="5" stroke-miterlimit="10"/>
</svg>
