<?xml version="1.0" encoding="UTF-8"?>
<svg id="Layer_1" data-name="Layer 1" xmlns="http://www.w3.org/2000/svg" viewBox="0 0 244.54 169.72">
  <defs>
    <style>
      .cls-1 {
        stroke: #ccc;
        stroke-width: .4px;
      }

      .cls-1, .cls-2 {
        fill: none;
        stroke-miterlimit: 10;
      }

      .cls-3 {
        fill: #0494d0;
      }

      .cls-2 {
        stroke: rgba(4, 148, 208, .4);
        stroke-width: .81px;
      }

      .cls-4 {
        fill: #3a413e;
      }
    </style>
  </defs>
  <path class="cls-1" d="M60.36,23.56v124.27"/>
  <path class="cls-1" d="M81.01,23.56v124.27"/>
  <path class="cls-1" d="M129.58,23.56v124.27"/>
  <path class="cls-1" d="M150.63,23.56v124.27"/>
  <path class="cls-1" d="M198.8,23.56v124.27"/>
  <path class="cls-1" d="M219.85,23.56v124.27"/>
  <path class="cls-1" d="M28.79,143.78h215.75"/>
  <path class="cls-1" d="M28.79,131.23h215.75"/>
  <path class="cls-1" d="M28.79,102.08h215.75"/>
  <path class="cls-1" d="M28.79,89.54h215.75"/>
  <path class="cls-1" d="M28.79,60.39h215.75"/>
  <path class="cls-1" d="M28.79,48.25h215.75"/>
  <path class="cls-2" d="M83.64,139.18s1.08-14.35,1.62-19.03c.54-4.68,1.08-6.55,1.62-9.06.54-2.51,1.08-4.26,1.62-6.01s1.08-3.15,1.62-4.5c.54-1.35,1.08-2.5,1.62-3.6s1.08-2.07,1.62-3,1.08-1.77,1.62-2.57,1.08-1.54,1.62-2.25,1.08-1.37,1.62-2,1.08-1.23,1.62-1.8c.54-.57,1.08-1.11,1.62-1.64.54-.52,1.08-1.02,1.62-1.5.54-.48,1.08-.94,1.62-1.39s1.08-.87,1.62-1.29c.54-.41,1.08-.81,1.62-1.2s1.08-.76,1.62-1.13,1.08-.72,1.62-1.06,1.08-.68,1.62-1c.54-.33,1.08-.64,1.62-.95.54-.31,1.08-.61,1.62-.9s1.08-.58,1.62-.86c.54-.28,1.08-.55,1.62-.82.54-.27,1.08-.53,1.62-.78.54-.26,1.08-.51,1.62-.75.54-.25,1.08-.49,1.62-.72.54-.24,1.08-.47,1.62-.69.54-.23,1.08-.45,1.62-.67.54-.22,1.08-.43,1.62-.64s1.08-.42,1.62-.62,1.08-.4,1.62-.6c.54-.2,1.08-.39,1.62-.58.54-.19,1.08-.38,1.62-.56.54-.19,1.08-.37,1.62-.55s1.08-.36,1.62-.53c.54-.17,1.08-.35,1.62-.52s1.08-.34,1.62-.5c.54-.16,1.08-.33,1.62-.49.54-.16,1.08-.32,1.62-.47.54-.16,1.08-.31,1.62-.46s1.08-.3,1.62-.45c.54-.15,1.08-.3,1.62-.44s1.08-.29,1.62-.43c.54-.14,1.08-.28,1.62-.42.54-.14,1.08-.27,1.62-.41s1.08-.27,1.62-.4,1.08-.26,1.62-.39,1.08-.26,1.62-.38,1.08-.25,1.62-.38c.54-.12,1.08-.25,1.62-.37.54-.12,1.08-.24,1.62-.36s1.08-.24,1.62-.35,1.08-.23,1.62-.35c.54-.11,1.08-.23,1.62-.34s1.08-.22,1.62-.33,1.08-.22,1.62-.33c.54-.11,1.08-.22,1.62-.32s1.08-.21,1.62-.32c.54-.1,1.08-.21,1.62-.31.54-.1,1.08-.2,1.62-.31s1.08-.2,1.62-.3,1.08-.2,1.62-.3,1.08-.19,1.62-.29c.54-.1,1.08-.19,1.62-.29.54-.09,1.08-.19,1.62-.28s1.08-.19,1.62-.28c.54-.09,1.08-.18,1.62-.27.54-.09,1.08-.18,1.62-.27.54-.09,1.08-.18,1.62-.27.54-.09,1.08-.18,1.62-.26s1.08-.17,1.62-.26c.54-.09,1.08-.17,1.62-.25.54-.08,1.08-.17,1.62-.25.54-.08,1.08-.17,1.62-.25.54-.08,1.08-.16,1.62-.24.54-.08,1.08-.16,1.62-.24.54-.08,1.08-.16,1.62-.24s1.08-.16,1.62-.23c.54-.08,1.08-.15,1.62-.23.54-.08,1.08-.15,1.62-.23s1.08-.15,1.62-.23c.54-.07,1.08-.15,1.62-.22.54-.07,1.08-.15,1.62-.22.54-.07,1.08-.15,1.62-.22s1.08-.14,1.62-.21,1.08-.14,1.62-.21c.54-.07,1.08-.14,1.62-.21.54-.07,1.08-.14,1.62-.21s1.08-.14,1.62-.21,1.08-.14,1.62-.2,1.08-.13,1.62-.2,1.08-.13,1.62-.2,1.08-.13,1.62-.2c.54-.07,1.08-.13,1.62-.19.54-.06,1.08-.13,1.62-.19s1.08-.13,1.62-.19c.54-.06,1.08-.13,1.62-.19.54-.06,1.08-.12,1.62-.19.54-.06,1.08-.12,1.62-.18.54-.06,1.62-.18,1.62-.18"/>
  <path class="cls-3" d="M56.48,113.31c0,1.01-.82,1.82-1.82,1.82s-1.82-.82-1.82-1.82.82-1.82,1.82-1.82,1.82.82,1.82,1.82Z"/>
  <path class="cls-3" d="M147.68,79.04c0,1.01-.82,1.82-1.82,1.82s-1.82-.82-1.82-1.82.82-1.82,1.82-1.82,1.82.82,1.82,1.82Z"/>
  <path class="cls-3" d="M133.53,65.08c0,1.01-.82,1.82-1.82,1.82s-1.82-.82-1.82-1.82.82-1.82,1.82-1.82,1.82.82,1.82,1.82Z"/>
  <path class="cls-3" d="M198.72,59.88c0,1.01-.82,1.82-1.82,1.82s-1.82-.82-1.82-1.82.82-1.82,1.82-1.82,1.82.82,1.82,1.82Z"/>
  <path class="cls-3" d="M108.21,100.13c0,1.01-.82,1.82-1.82,1.82s-1.82-.82-1.82-1.82.82-1.82,1.82-1.82,1.82.82,1.82,1.82Z"/>
  <path class="cls-3" d="M175.3,54.77c0,1.01-.82,1.82-1.82,1.82s-1.82-.82-1.82-1.82.82-1.82,1.82-1.82,1.82.82,1.82,1.82Z"/>
  <path class="cls-3" d="M162.82,63.31c0,1.01-.82,1.82-1.82,1.82s-1.82-.82-1.82-1.82.82-1.82,1.82-1.82,1.82.82,1.82,1.82Z"/>
  <path class="cls-3" d="M146.06,72.4c0,1.01-.82,1.82-1.82,1.82s-1.82-.82-1.82-1.82.82-1.82,1.82-1.82,1.82.82,1.82,1.82Z"/>
  <path class="cls-3" d="M189.08,52.1c0,1.01-.82,1.82-1.82,1.82s-1.82-.82-1.82-1.82.82-1.82,1.82-1.82,1.82.82,1.82,1.82Z"/>
  <path class="cls-3" d="M208.52,41.36c0,1.01-.82,1.82-1.82,1.82s-1.82-.82-1.82-1.82.82-1.82,1.82-1.82,1.82.82,1.82,1.82Z"/>
  <path class="cls-3" d="M204.13,56.13c0,1.01-.82,1.82-1.82,1.82s-1.82-.82-1.82-1.82.82-1.82,1.82-1.82,1.82.82,1.82,1.82Z"/>
  <path class="cls-3" d="M142.11,63.31c0,1.01-.82,1.82-1.82,1.82s-1.82-.82-1.82-1.82.82-1.82,1.82-1.82,1.82.82,1.82,1.82Z"/>
  <path class="cls-3" d="M192.63,56.41c0,1.01-.82,1.82-1.82,1.82s-1.82-.82-1.82-1.82.82-1.82,1.82-1.82,1.82.82,1.82,1.82Z"/>
  <path class="cls-3" d="M184.62,32.79c0,1.01-.82,1.82-1.82,1.82s-1.82-.82-1.82-1.82.82-1.82,1.82-1.82,1.82.82,1.82,1.82Z"/>
  <path class="cls-3" d="M111.18,97.17c0,1.01-.82,1.82-1.82,1.82s-1.82-.82-1.82-1.82.82-1.82,1.82-1.82,1.82.82,1.82,1.82Z"/>
  <path class="cls-3" d="M178.37,63.74c0,1.01-.82,1.82-1.82,1.82s-1.82-.82-1.82-1.82.82-1.82,1.82-1.82,1.82.82,1.82,1.82Z"/>
  <path class="cls-3" d="M145.2,56.7c0,1.01-.82,1.82-1.82,1.82s-1.82-.82-1.82-1.82.82-1.82,1.82-1.82,1.82.82,1.82,1.82Z"/>
  <path class="cls-3" d="M203.4,54.25c0,1.01-.82,1.82-1.82,1.82s-1.82-.82-1.82-1.82.82-1.82,1.82-1.82,1.82.82,1.82,1.82Z"/>
  <path class="cls-3" d="M143.47,81.17c0,1.01-.82,1.82-1.82,1.82s-1.82-.82-1.82-1.82.82-1.82,1.82-1.82,1.82.82,1.82,1.82Z"/>
  <path class="cls-3" d="M92.93,106.21c0,1.01-.82,1.82-1.82,1.82s-1.82-.82-1.82-1.82.82-1.82,1.82-1.82,1.82.82,1.82,1.82Z"/>
  <path class="cls-3" d="M230.04,51.87c0,1.01-.82,1.82-1.82,1.82s-1.82-.82-1.82-1.82.82-1.82,1.82-1.82,1.82.82,1.82,1.82Z"/>
  <path class="cls-3" d="M123.5,75.42c0,1.01-.82,1.82-1.82,1.82s-1.82-.82-1.82-1.82.82-1.82,1.82-1.82,1.82.82,1.82,1.82Z"/>
  <path class="cls-3" d="M122.3,78.07c0,1.01-.82,1.82-1.82,1.82s-1.82-.82-1.82-1.82.82-1.82,1.82-1.82,1.82.82,1.82,1.82Z"/>
  <path class="cls-3" d="M147.96,56.41c0,1.01-.82,1.82-1.82,1.82s-1.82-.82-1.82-1.82.82-1.82,1.82-1.82,1.82.82,1.82,1.82Z"/>
  <path class="cls-3" d="M144.93,71.72c0,1.01-.82,1.82-1.82,1.82s-1.82-.82-1.82-1.82.82-1.82,1.82-1.82,1.82.82,1.82,1.82Z"/>
  <path class="cls-3" d="M153.41,74.62c0,1.01-.82,1.82-1.82,1.82s-1.82-.82-1.82-1.82.82-1.82,1.82-1.82,1.82.82,1.82,1.82Z"/>
  <path class="cls-3" d="M188.1,31.09c0,1.01-.82,1.82-1.82,1.82s-1.82-.82-1.82-1.82.82-1.82,1.82-1.82,1.82.82,1.82,1.82Z"/>
  <path class="cls-3" d="M166.2,59.54c0,1.01-.82,1.82-1.82,1.82s-1.82-.82-1.82-1.82.82-1.82,1.82-1.82,1.82.82,1.82,1.82Z"/>
  <path class="cls-3" d="M79.27,113.31c0,1.01-.82,1.82-1.82,1.82s-1.82-.82-1.82-1.82.82-1.82,1.82-1.82,1.82.82,1.82,1.82Z"/>
  <path class="cls-3" d="M33.39,143.77c0,1.01-.82,1.82-1.82,1.82s-1.82-.82-1.82-1.82.82-1.82,1.82-1.82,1.82.82,1.82,1.82Z"/>
  <path class="cls-3" d="M130.58,89.66c0,1.01-.82,1.82-1.82,1.82s-1.82-.82-1.82-1.82.82-1.82,1.82-1.82,1.82.82,1.82,1.82Z"/>
  <path class="cls-3" d="M109.73,86.37c0,1.01-.82,1.82-1.82,1.82s-1.82-.82-1.82-1.82.82-1.82,1.82-1.82,1.82.82,1.82,1.82Z"/>
  <path class="cls-3" d="M99.69,108.62c0,1.01-.82,1.82-1.82,1.82s-1.82-.82-1.82-1.82.82-1.82,1.82-1.82,1.82.82,1.82,1.82Z"/>
  <path class="cls-3" d="M203.14,41.99c0,1.01-.82,1.82-1.82,1.82s-1.82-.82-1.82-1.82.82-1.82,1.82-1.82,1.82.82,1.82,1.82Z"/>
  <path class="cls-3" d="M61.93,140.48c0,1.01-.82,1.82-1.82,1.82s-1.82-.82-1.82-1.82.82-1.82,1.82-1.82,1.82.82,1.82,1.82Z"/>
  <path class="cls-3" d="M82.69,122.76c0,1.01-.82,1.82-1.82,1.82s-1.82-.82-1.82-1.82.82-1.82,1.82-1.82,1.82.82,1.82,1.82Z"/>
  <path class="cls-3" d="M168.38,65.08c0,1.01-.82,1.82-1.82,1.82s-1.82-.82-1.82-1.82.82-1.82,1.82-1.82,1.82.82,1.82,1.82Z"/>
  <path class="cls-3" d="M160.07,51.22c0,1.01-.82,1.82-1.82,1.82s-1.82-.82-1.82-1.82.82-1.82,1.82-1.82,1.82.82,1.82,1.82Z"/>
  <path class="cls-3" d="M141.56,77.14c0,1.01-.82,1.82-1.82,1.82s-1.82-.82-1.82-1.82.82-1.82,1.82-1.82,1.82.82,1.82,1.82Z"/>
  <path class="cls-3" d="M98.63,101.13c0,1.01-.82,1.82-1.82,1.82s-1.82-.82-1.82-1.82.82-1.82,1.82-1.82,1.82.82,1.82,1.82Z"/>
  <path class="cls-3" d="M69.29,147.8c0,1.01-.82,1.82-1.82,1.82s-1.82-.82-1.82-1.82.82-1.82,1.82-1.82,1.82.82,1.82,1.82Z"/>
  <path class="cls-3" d="M110.35,86.37c0,1.01-.82,1.82-1.82,1.82s-1.82-.82-1.82-1.82.82-1.82,1.82-1.82,1.82.82,1.82,1.82Z"/>
  <path class="cls-3" d="M168.15,81.17c0,1.01-.82,1.82-1.82,1.82s-1.82-.82-1.82-1.82.82-1.82,1.82-1.82,1.82.82,1.82,1.82Z"/>
  <path class="cls-3" d="M111.18,105.33c0,1.01-.82,1.82-1.82,1.82s-1.82-.82-1.82-1.82.82-1.82,1.82-1.82,1.82.82,1.82,1.82Z"/>
  <path class="cls-3" d="M175.83,62.49c0,1.01-.82,1.82-1.82,1.82s-1.82-.82-1.82-1.82.82-1.82,1.82-1.82,1.82.82,1.82,1.82Z"/>
  <path class="cls-3" d="M174.69,46.51c0,1.01-.82,1.82-1.82,1.82s-1.82-.82-1.82-1.82.82-1.82,1.82-1.82,1.82.82,1.82,1.82Z"/>
  <path class="cls-3" d="M191.28,59.54c0,1.01-.82,1.82-1.82,1.82s-1.82-.82-1.82-1.82.82-1.82,1.82-1.82,1.82.82,1.82,1.82Z"/>
  <path class="cls-3" d="M186.89,52.33c0,1.01-.82,1.82-1.82,1.82s-1.82-.82-1.82-1.82.82-1.82,1.82-1.82,1.82.82,1.82,1.82Z"/>
  <path class="cls-3" d="M210.15,62.09c0,1.01-.82,1.82-1.82,1.82s-1.82-.82-1.82-1.82.82-1.82,1.82-1.82,1.82.82,1.82,1.82Z"/>
  <path class="cls-3" d="M119.84,104.91c0,1.01-.82,1.82-1.82,1.82s-1.82-.82-1.82-1.82.82-1.82,1.82-1.82,1.82.82,1.82,1.82Z"/>
  <path class="cls-3" d="M152.02,73.11c0,1.01-.82,1.82-1.82,1.82s-1.82-.82-1.82-1.82.82-1.82,1.82-1.82,1.82.82,1.82,1.82Z"/>
  <path class="cls-3" d="M154.13,71.06c0,1.01-.82,1.82-1.82,1.82s-1.82-.82-1.82-1.82.82-1.82,1.82-1.82,1.82.82,1.82,1.82Z"/>
  <path class="cls-3" d="M140.42,73.85c0,1.01-.82,1.82-1.82,1.82s-1.82-.82-1.82-1.82.82-1.82,1.82-1.82,1.82.82,1.82,1.82Z"/>
  <path class="cls-3" d="M120.36,74.62c0,1.01-.82,1.82-1.82,1.82s-1.82-.82-1.82-1.82.82-1.82,1.82-1.82,1.82.82,1.82,1.82Z"/>
  <path class="cls-3" d="M133.59,84.92c0,1.01-.82,1.82-1.82,1.82s-1.82-.82-1.82-1.82.82-1.82,1.82-1.82,1.82.82,1.82,1.82Z"/>
  <path class="cls-3" d="M140.15,68.09c0,1.01-.82,1.82-1.82,1.82s-1.82-.82-1.82-1.82.82-1.82,1.82-1.82,1.82.82,1.82,1.82Z"/>
  <path class="cls-3" d="M185.47,53.75c0,1.01-.82,1.82-1.82,1.82s-1.82-.82-1.82-1.82.82-1.82,1.82-1.82,1.82.82,1.82,1.82Z"/>
  <path class="cls-3" d="M122.7,91.56c0,1.01-.82,1.82-1.82,1.82s-1.82-.82-1.82-1.82.82-1.82,1.82-1.82,1.82.82,1.82,1.82Z"/>
  <path class="cls-3" d="M211.58,41.23c0,1.01-.82,1.82-1.82,1.82s-1.82-.82-1.82-1.82.82-1.82,1.82-1.82,1.82.82,1.82,1.82Z"/>
  <path class="cls-3" d="M136.37,86.37c0,1.01-.82,1.82-1.82,1.82s-1.82-.82-1.82-1.82.82-1.82,1.82-1.82,1.82.82,1.82,1.82Z"/>
  <path class="cls-3" d="M202.35,58.54c0,1.01-.82,1.82-1.82,1.82s-1.82-.82-1.82-1.82.82-1.82,1.82-1.82,1.82.82,1.82,1.82Z"/>
  <path class="cls-3" d="M197.33,64.17c0,1.01-.82,1.82-1.82,1.82s-1.82-.82-1.82-1.82.82-1.82,1.82-1.82,1.82.82,1.82,1.82Z"/>
  <path class="cls-3" d="M177.04,68.09c0,1.01-.82,1.82-1.82,1.82s-1.82-.82-1.82-1.82.82-1.82,1.82-1.82,1.82.82,1.82,1.82Z"/>
  <path class="cls-3" d="M145.84,75.42c0,1.01-.82,1.82-1.82,1.82s-1.82-.82-1.82-1.82.82-1.82,1.82-1.82,1.82.82,1.82,1.82Z"/>
  <path class="cls-3" d="M79.46,113.99c0,1.01-.82,1.82-1.82,1.82s-1.82-.82-1.82-1.82.82-1.82,1.82-1.82,1.82.82,1.82,1.82Z"/>
  <path class="cls-3" d="M146.61,69.22c0,1.01-.82,1.82-1.82,1.82s-1.82-.82-1.82-1.82.82-1.82,1.82-1.82,1.82.82,1.82,1.82Z"/>
  <path class="cls-3" d="M202.99,54.25c0,1.01-.82,1.82-1.82,1.82s-1.82-.82-1.82-1.82.82-1.82,1.82-1.82,1.82.82,1.82,1.82Z"/>
  <path class="cls-3" d="M109.11,99.5c0,1.01-.82,1.82-1.82,1.82s-1.82-.82-1.82-1.82.82-1.82,1.82-1.82,1.82.82,1.82,1.82Z"/>
  <path class="cls-3" d="M177.86,59.2c0,1.01-.82,1.82-1.82,1.82s-1.82-.82-1.82-1.82.82-1.82,1.82-1.82,1.82.82,1.82,1.82Z"/>
  <path class="cls-3" d="M205.43,46.85c0,1.01-.82,1.82-1.82,1.82s-1.82-.82-1.82-1.82.82-1.82,1.82-1.82,1.82.82,1.82,1.82Z"/>
  <path class="cls-3" d="M155.99,70.43c0,1.01-.82,1.82-1.82,1.82s-1.82-.82-1.82-1.82.82-1.82,1.82-1.82,1.82.82,1.82,1.82Z"/>
  <path class="cls-3" d="M135.7,87.94c0,1.01-.82,1.82-1.82,1.82s-1.82-.82-1.82-1.82.82-1.82,1.82-1.82,1.82.82,1.82,1.82Z"/>
  <path class="cls-3" d="M96.4,112.65c0,1.01-.82,1.82-1.82,1.82s-1.82-.82-1.82-1.82.82-1.82,1.82-1.82,1.82.82,1.82,1.82Z"/>
  <path class="cls-3" d="M81.95,125.18c0,1.01-.82,1.82-1.82,1.82s-1.82-.82-1.82-1.82.82-1.82,1.82-1.82,1.82.82,1.82,1.82Z"/>
  <path class="cls-3" d="M173.84,63.31c0,1.01-.82,1.82-1.82,1.82s-1.82-.82-1.82-1.82.82-1.82,1.82-1.82,1.82.82,1.82,1.82Z"/>
  <path class="cls-3" d="M99.16,111.41c0,1.01-.82,1.82-1.82,1.82s-1.82-.82-1.82-1.82.82-1.82,1.82-1.82,1.82.82,1.82,1.82Z"/>
  <path class="cls-3" d="M118.29,89.66c0,1.01-.82,1.82-1.82,1.82s-1.82-.82-1.82-1.82.82-1.82,1.82-1.82,1.82.82,1.82,1.82Z"/>
  <path class="cls-3" d="M201.04,62.09c0,1.01-.82,1.82-1.82,1.82s-1.82-.82-1.82-1.82.82-1.82,1.82-1.82,1.82.82,1.82,1.82Z"/>
  <path class="cls-3" d="M176.43,64.17c0,1.01-.82,1.82-1.82,1.82s-1.82-.82-1.82-1.82.82-1.82,1.82-1.82,1.82.82,1.82,1.82Z"/>
  <path class="cls-3" d="M214.83,48.62c0,1.01-.82,1.82-1.82,1.82s-1.82-.82-1.82-1.82.82-1.82,1.82-1.82,1.82.82,1.82,1.82Z"/>
  <path class="cls-3" d="M110.95,76.26c0,1.01-.82,1.82-1.82,1.82s-1.82-.82-1.82-1.82.82-1.82,1.82-1.82,1.82.82,1.82,1.82Z"/>
  <path class="cls-3" d="M130.71,72.4c0,1.01-.82,1.82-1.82,1.82s-1.82-.82-1.82-1.82.82-1.82,1.82-1.82,1.82.82,1.82,1.82Z"/>
  <path class="cls-3" d="M128.07,49.97c0,1.01-.82,1.82-1.82,1.82s-1.82-.82-1.82-1.82.82-1.82,1.82-1.82,1.82.82,1.82,1.82Z"/>
  <path class="cls-3" d="M136.77,65.08c0,1.01-.82,1.82-1.82,1.82s-1.82-.82-1.82-1.82.82-1.82,1.82-1.82,1.82.82,1.82,1.82Z"/>
  <path class="cls-3" d="M222.7,55.57c0,1.01-.82,1.82-1.82,1.82s-1.82-.82-1.82-1.82.82-1.82,1.82-1.82,1.82.82,1.82,1.82Z"/>
  <path class="cls-3" d="M201.88,56.13c0,1.01-.82,1.82-1.82,1.82s-1.82-.82-1.82-1.82.82-1.82,1.82-1.82,1.82.82,1.82,1.82Z"/>
  <path class="cls-3" d="M193.28,59.54c0,1.01-.82,1.82-1.82,1.82s-1.82-.82-1.82-1.82.82-1.82,1.82-1.82,1.82.82,1.82,1.82Z"/>
  <path class="cls-3" d="M140.86,71.72c0,1.01-.82,1.82-1.82,1.82s-1.82-.82-1.82-1.82.82-1.82,1.82-1.82,1.82.82,1.82,1.82Z"/>
  <path class="cls-3" d="M188.96,52.1c0,1.01-.82,1.82-1.82,1.82s-1.82-.82-1.82-1.82.82-1.82,1.82-1.82,1.82.82,1.82,1.82Z"/>
  <path class="cls-3" d="M128.07,78.07c0,1.01-.82,1.82-1.82,1.82s-1.82-.82-1.82-1.82.82-1.82,1.82-1.82,1.82.82,1.82,1.82Z"/>
  <path class="cls-3" d="M159.9,43.89c0,1.01-.82,1.82-1.82,1.82s-1.82-.82-1.82-1.82.82-1.82,1.82-1.82,1.82.82,1.82,1.82Z"/>
  <path class="cls-3" d="M103.11,106.67c0,1.01-.82,1.82-1.82,1.82s-1.82-.82-1.82-1.82.82-1.82,1.82-1.82,1.82.82,1.82,1.82Z"/>
  <path class="cls-3" d="M106.47,101.47c0,1.01-.82,1.82-1.82,1.82s-1.82-.82-1.82-1.82.82-1.82,1.82-1.82,1.82.82,1.82,1.82Z"/>
  <path class="cls-3" d="M188.31,46.02c0,1.01-.82,1.82-1.82,1.82s-1.82-.82-1.82-1.82.82-1.82,1.82-1.82,1.82.82,1.82,1.82Z"/>
  <path class="cls-3" d="M138.01,60.95c0,1.01-.82,1.82-1.82,1.82s-1.82-.82-1.82-1.82.82-1.82,1.82-1.82,1.82.82,1.82,1.82Z"/>
  <path class="cls-3" d="M189.17,35.1c0,1.01-.82,1.82-1.82,1.82s-1.82-.82-1.82-1.82.82-1.82,1.82-1.82,1.82.82,1.82,1.82Z"/>
  <path class="cls-3" d="M105.91,83.58c0,1.01-.82,1.82-1.82,1.82s-1.82-.82-1.82-1.82.82-1.82,1.82-1.82,1.82.82,1.82,1.82Z"/>
  <path class="cls-3" d="M104.91,68.65c0,1.01-.82,1.82-1.82,1.82s-1.82-.82-1.82-1.82.82-1.82,1.82-1.82,1.82.82,1.82,1.82Z"/>
  <path class="cls-3" d="M176.92,67.03c0,1.01-.82,1.82-1.82,1.82s-1.82-.82-1.82-1.82.82-1.82,1.82-1.82,1.82.82,1.82,1.82Z"/>
  <path class="cls-3" d="M120.54,67.55c0,1.01-.82,1.82-1.82,1.82s-1.82-.82-1.82-1.82.82-1.82,1.82-1.82,1.82.82,1.82,1.82Z"/>
  <path class="cls-3" d="M80.4,80.08c0,1.01-.82,1.82-1.82,1.82s-1.82-.82-1.82-1.82.82-1.82,1.82-1.82,1.82.82,1.82,1.82Z"/>
  <path class="cls-3" d="M76.28,125.18c0,1.01-.82,1.82-1.82,1.82s-1.82-.82-1.82-1.82.82-1.82,1.82-1.82,1.82.82,1.82,1.82Z"/>
  <path class="cls-3" d="M137.76,51.43c0,1.01-.82,1.82-1.82,1.82s-1.82-.82-1.82-1.82.82-1.82,1.82-1.82,1.82.82,1.82,1.82Z"/>
  <path class="cls-3" d="M243.58,64.62c0,1.01-.82,1.82-1.82,1.82s-1.82-.82-1.82-1.82.82-1.82,1.82-1.82,1.82.82,1.82,1.82Z"/>
  <path class="cls-3" d="M183.04,62.9c0,1.01-.82,1.82-1.82,1.82s-1.82-.82-1.82-1.82.82-1.82,1.82-1.82,1.82.82,1.82,1.82Z"/>
  <path class="cls-3" d="M229.77,47.19c0,1.01-.82,1.82-1.82,1.82s-1.82-.82-1.82-1.82.82-1.82,1.82-1.82,1.82.82,1.82,1.82Z"/>
  <path class="cls-3" d="M209.72,82.34c0,1.01-.82,1.82-1.82,1.82s-1.82-.82-1.82-1.82.82-1.82,1.82-1.82,1.82.82,1.82,1.82Z"/>
  <path class="cls-3" d="M62.69,125.18c0,1.01-.82,1.82-1.82,1.82s-1.82-.82-1.82-1.82.82-1.82,1.82-1.82,1.82.82,1.82,1.82Z"/>
  <path class="cls-3" d="M67.78,135.28c0,1.01-.82,1.82-1.82,1.82s-1.82-.82-1.82-1.82.82-1.82,1.82-1.82,1.82.82,1.82,1.82Z"/>
  <path class="cls-3" d="M156.18,51.65c0,1.01-.82,1.82-1.82,1.82s-1.82-.82-1.82-1.82.82-1.82,1.82-1.82,1.82.82,1.82,1.82Z"/>
  <path class="cls-3" d="M159.07,65.08c0,1.01-.82,1.82-1.82,1.82s-1.82-.82-1.82-1.82.82-1.82,1.82-1.82,1.82.82,1.82,1.82Z"/>
  <path class="cls-3" d="M84.2,112.65c0,1.01-.82,1.82-1.82,1.82s-1.82-.82-1.82-1.82.82-1.82,1.82-1.82,1.82.82,1.82,1.82Z"/>
  <path class="cls-3" d="M194.13,67.55c0,1.01-.82,1.82-1.82,1.82s-1.82-.82-1.82-1.82.82-1.82,1.82-1.82,1.82.82,1.82,1.82Z"/>
  <path class="cls-3" d="M140.15,65.08c0,1.01-.82,1.82-1.82,1.82s-1.82-.82-1.82-1.82.82-1.82,1.82-1.82,1.82.82,1.82,1.82Z"/>
  <path class="cls-3" d="M105.63,91.97c0,1.01-.82,1.82-1.82,1.82s-1.82-.82-1.82-1.82.82-1.82,1.82-1.82,1.82.82,1.82,1.82Z"/>
  <path class="cls-3" d="M155.64,68.09c0,1.01-.82,1.82-1.82,1.82s-1.82-.82-1.82-1.82.82-1.82,1.82-1.82,1.82.82,1.82,1.82Z"/>
  <path class="cls-3" d="M162.04,66.03c0,1.01-.82,1.82-1.82,1.82s-1.82-.82-1.82-1.82.82-1.82,1.82-1.82,1.82.82,1.82,1.82Z"/>
  <path class="cls-3" d="M140.69,78.07c0,1.01-.82,1.82-1.82,1.82s-1.82-.82-1.82-1.82.82-1.82,1.82-1.82,1.82.82,1.82,1.82Z"/>
  <path class="cls-3" d="M136.11,42.38c0,1.01-.82,1.82-1.82,1.82s-1.82-.82-1.82-1.82.82-1.82,1.82-1.82,1.82.82,1.82,1.82Z"/>
  <path class="cls-3" d="M157.97,66.03c0,1.01-.82,1.82-1.82,1.82s-1.82-.82-1.82-1.82.82-1.82,1.82-1.82,1.82.82,1.82,1.82Z"/>
  <path class="cls-3" d="M122.95,79.04c0,1.01-.82,1.82-1.82,1.82s-1.82-.82-1.82-1.82.82-1.82,1.82-1.82,1.82.82,1.82,1.82Z"/>
  <path class="cls-3" d="M68.79,115.44c0,1.01-.82,1.82-1.82,1.82s-1.82-.82-1.82-1.82.82-1.82,1.82-1.82,1.82.82,1.82,1.82Z"/>
  <path class="cls-3" d="M89.25,100.13c0,1.01-.82,1.82-1.82,1.82s-1.82-.82-1.82-1.82.82-1.82,1.82-1.82,1.82.82,1.82,1.82Z"/>
  <path class="cls-3" d="M126.12,83.58c0,1.01-.82,1.82-1.82,1.82s-1.82-.82-1.82-1.82.82-1.82,1.82-1.82,1.82.82,1.82,1.82Z"/>
  <path class="cls-3" d="M159.6,61.33c0,1.01-.82,1.82-1.82,1.82s-1.82-.82-1.82-1.82.82-1.82,1.82-1.82,1.82.82,1.82,1.82Z"/>
  <path class="cls-3" d="M92.71,100.13c0,1.01-.82,1.82-1.82,1.82s-1.82-.82-1.82-1.82.82-1.82,1.82-1.82,1.82.82,1.82,1.82Z"/>
  <path class="cls-3" d="M208.4,55.57c0,1.01-.82,1.82-1.82,1.82s-1.82-.82-1.82-1.82.82-1.82,1.82-1.82,1.82.82,1.82,1.82Z"/>
  <path class="cls-3" d="M199.88,57.91c0,1.01-.82,1.82-1.82,1.82s-1.82-.82-1.82-1.82.82-1.82,1.82-1.82,1.82.82,1.82,1.82Z"/>
  <path class="cls-3" d="M111.88,93.25c0,1.01-.82,1.82-1.82,1.82s-1.82-.82-1.82-1.82.82-1.82,1.82-1.82,1.82.82,1.82,1.82Z"/>
  <path class="cls-3" d="M69.52,131.25c0,1.01-.82,1.82-1.82,1.82s-1.82-.82-1.82-1.82.82-1.82,1.82-1.82,1.82.82,1.82,1.82Z"/>
  <path class="cls-3" d="M97.16,100.13c0,1.01-.82,1.82-1.82,1.82s-1.82-.82-1.82-1.82.82-1.82,1.82-1.82,1.82.82,1.82,1.82Z"/>
  <path class="cls-3" d="M147.82,64.17c0,1.01-.82,1.82-1.82,1.82s-1.82-.82-1.82-1.82.82-1.82,1.82-1.82,1.82.82,1.82,1.82Z"/>
  <path class="cls-3" d="M217.54,54.51c0,1.01-.82,1.82-1.82,1.82s-1.82-.82-1.82-1.82.82-1.82,1.82-1.82,1.82.82,1.82,1.82Z"/>
  <path class="cls-3" d="M174.57,40.15c0,1.01-.82,1.82-1.82,1.82s-1.82-.82-1.82-1.82.82-1.82,1.82-1.82,1.82.82,1.82,1.82Z"/>
  <path class="cls-3" d="M92.5,93.47c0,1.01-.82,1.82-1.82,1.82s-1.82-.82-1.82-1.82.82-1.82,1.82-1.82,1.82.82,1.82,1.82Z"/>
  <path class="cls-3" d="M166.24,44.04c0,1.01-.82,1.82-1.82,1.82s-1.82-.82-1.82-1.82.82-1.82,1.82-1.82,1.82.82,1.82,1.82Z"/>
  <path class="cls-3" d="M171.1,69.22c0,1.01-.82,1.82-1.82,1.82s-1.82-.82-1.82-1.82.82-1.82,1.82-1.82,1.82.82,1.82,1.82Z"/>
  <path class="cls-3" d="M115.77,93.69c0,1.01-.82,1.82-1.82,1.82s-1.82-.82-1.82-1.82.82-1.82,1.82-1.82,1.82.82,1.82,1.82Z"/>
  <path class="cls-3" d="M138.39,86.37c0,1.01-.82,1.82-1.82,1.82s-1.82-.82-1.82-1.82.82-1.82,1.82-1.82,1.82.82,1.82,1.82Z"/>
  <path class="cls-3" d="M145.16,80.08c0,1.01-.82,1.82-1.82,1.82s-1.82-.82-1.82-1.82.82-1.82,1.82-1.82,1.82.82,1.82,1.82Z"/>
  <path class="cls-3" d="M123.18,84.92c0,1.01-.82,1.82-1.82,1.82s-1.82-.82-1.82-1.82.82-1.82,1.82-1.82,1.82.82,1.82,1.82Z"/>
  <path class="cls-3" d="M176.21,53.26c0,1.01-.82,1.82-1.82,1.82s-1.82-.82-1.82-1.82.82-1.82,1.82-1.82,1.82.82,1.82,1.82Z"/>
  <path class="cls-3" d="M182.6,66.52c0,1.01-.82,1.82-1.82,1.82s-1.82-.82-1.82-1.82.82-1.82,1.82-1.82,1.82.82,1.82,1.82Z"/>
  <path class="cls-3" d="M214.92,23.58c0,1.01-.82,1.82-1.82,1.82s-1.82-.82-1.82-1.82.82-1.82,1.82-1.82,1.82.82,1.82,1.82Z"/>
  <path class="cls-3" d="M170.63,66.52c0,1.01-.82,1.82-1.82,1.82s-1.82-.82-1.82-1.82.82-1.82,1.82-1.82,1.82.82,1.82,1.82Z"/>
  <path class="cls-3" d="M162.75,44.04c0,1.01-.82,1.82-1.82,1.82s-1.82-.82-1.82-1.82.82-1.82,1.82-1.82,1.82.82,1.82,1.82Z"/>
  <path class="cls-3" d="M83.91,129.53c0,1.01-.82,1.82-1.82,1.82s-1.82-.82-1.82-1.82.82-1.82,1.82-1.82,1.82.82,1.82,1.82Z"/>
  <path class="cls-3" d="M127.11,86.37c0,1.01-.82,1.82-1.82,1.82s-1.82-.82-1.82-1.82.82-1.82,1.82-1.82,1.82.82,1.82,1.82Z"/>
  <path class="cls-3" d="M115.46,95.59c0,1.01-.82,1.82-1.82,1.82s-1.82-.82-1.82-1.82.82-1.82,1.82-1.82,1.82.82,1.82,1.82Z"/>
  <path class="cls-3" d="M190.96,33.74c0,1.01-.82,1.82-1.82,1.82s-1.82-.82-1.82-1.82.82-1.82,1.82-1.82,1.82.82,1.82,1.82Z"/>
  <path class="cls-3" d="M98.99,97.17c0,1.01-.82,1.82-1.82,1.82s-1.82-.82-1.82-1.82.82-1.82,1.82-1.82,1.82.82,1.82,1.82Z"/>
  <path class="cls-3" d="M158.47,56.41c0,1.01-.82,1.82-1.82,1.82s-1.82-.82-1.82-1.82.82-1.82,1.82-1.82,1.82.82,1.82,1.82Z"/>
  <path class="cls-3" d="M170.4,63.31c0,1.01-.82,1.82-1.82,1.82s-1.82-.82-1.82-1.82.82-1.82,1.82-1.82,1.82.82,1.82,1.82Z"/>
  <path class="cls-3" d="M74.68,123.93c0,1.01-.82,1.82-1.82,1.82s-1.82-.82-1.82-1.82.82-1.82,1.82-1.82,1.82.82,1.82,1.82Z"/>
  <path class="cls-3" d="M216.81,51c0,1.01-.82,1.82-1.82,1.82s-1.82-.82-1.82-1.82.82-1.82,1.82-1.82,1.82.82,1.82,1.82Z"/>
  <path class="cls-3" d="M192.51,39.35c0,1.01-.82,1.82-1.82,1.82s-1.82-.82-1.82-1.82.82-1.82,1.82-1.82,1.82.82,1.82,1.82Z"/>
  <path class="cls-3" d="M179.45,58.54c0,1.01-.82,1.82-1.82,1.82s-1.82-.82-1.82-1.82.82-1.82,1.82-1.82,1.82.82,1.82,1.82Z"/>
  <path class="cls-3" d="M187.85,59.54c0,1.01-.82,1.82-1.82,1.82s-1.82-.82-1.82-1.82.82-1.82,1.82-1.82,1.82.82,1.82,1.82Z"/>
  <path class="cls-3" d="M105.06,107.14c0,1.01-.82,1.82-1.82,1.82s-1.82-.82-1.82-1.82.82-1.82,1.82-1.82,1.82.82,1.82,1.82Z"/>
  <path class="cls-3" d="M137.02,56.13c0,1.01-.82,1.82-1.82,1.82s-1.82-.82-1.82-1.82.82-1.82,1.82-1.82,1.82.82,1.82,1.82Z"/>
  <path class="cls-3" d="M188.67,62.09c0,1.01-.82,1.82-1.82,1.82s-1.82-.82-1.82-1.82.82-1.82,1.82-1.82,1.82.82,1.82,1.82Z"/>
  <path class="cls-3" d="M123.18,91.97c0,1.01-.82,1.82-1.82,1.82s-1.82-.82-1.82-1.82.82-1.82,1.82-1.82,1.82.82,1.82,1.82Z"/>
  <path class="cls-3" d="M176.82,60.59c0,1.01-.82,1.82-1.82,1.82s-1.82-.82-1.82-1.82.82-1.82,1.82-1.82,1.82.82,1.82,1.82Z"/>
  <path class="cls-3" d="M161.43,70.43c0,1.01-.82,1.82-1.82,1.82s-1.82-.82-1.82-1.82.82-1.82,1.82-1.82,1.82.82,1.82,1.82Z"/>
  <path class="cls-3" d="M153.99,74.62c0,1.01-.82,1.82-1.82,1.82s-1.82-.82-1.82-1.82.82-1.82,1.82-1.82,1.82.82,1.82,1.82Z"/>
  <path class="cls-3" d="M76.21,106.21c0,1.01-.82,1.82-1.82,1.82s-1.82-.82-1.82-1.82.82-1.82,1.82-1.82,1.82.82,1.82,1.82Z"/>
  <path class="cls-3" d="M134.25,63.74c0,1.01-.82,1.82-1.82,1.82s-1.82-.82-1.82-1.82.82-1.82,1.82-1.82,1.82.82,1.82,1.82Z"/>
  <path class="cls-3" d="M203.88,67.03c0,1.01-.82,1.82-1.82,1.82s-1.82-.82-1.82-1.82.82-1.82,1.82-1.82,1.82.82,1.82,1.82Z"/>
  <path class="cls-3" d="M221.74,66.03c0,1.01-.82,1.82-1.82,1.82s-1.82-.82-1.82-1.82.82-1.82,1.82-1.82,1.82.82,1.82,1.82Z"/>
  <path class="cls-3" d="M78.04,87.94c0,1.01-.82,1.82-1.82,1.82s-1.82-.82-1.82-1.82.82-1.82,1.82-1.82,1.82.82,1.82,1.82Z"/>
  <path class="cls-3" d="M88,92.18c0,1.01-.82,1.82-1.82,1.82s-1.82-.82-1.82-1.82.82-1.82,1.82-1.82,1.82.82,1.82,1.82Z"/>
  <path class="cls-3" d="M89.01,113.31c0,1.01-.82,1.82-1.82,1.82s-1.82-.82-1.82-1.82.82-1.82,1.82-1.82,1.82.82,1.82,1.82Z"/>
  <path class="cls-3" d="M142.41,66.03c0,1.01-.82,1.82-1.82,1.82s-1.82-.82-1.82-1.82.82-1.82,1.82-1.82,1.82.82,1.82,1.82Z"/>
  <path class="cls-3" d="M95.22,103.69c0,1.01-.82,1.82-1.82,1.82s-1.82-.82-1.82-1.82.82-1.82,1.82-1.82,1.82.82,1.82,1.82Z"/>
  <path class="cls-3" d="M82.59,112.65c0,1.01-.82,1.82-1.82,1.82s-1.82-.82-1.82-1.82.82-1.82,1.82-1.82,1.82.82,1.82,1.82Z"/>
  <path class="cls-3" d="M130.58,78.07c0,1.01-.82,1.82-1.82,1.82s-1.82-.82-1.82-1.82.82-1.82,1.82-1.82,1.82.82,1.82,1.82Z"/>
  <path class="cls-3" d="M171.02,33.18c0,1.01-.82,1.82-1.82,1.82s-1.82-.82-1.82-1.82.82-1.82,1.82-1.82,1.82.82,1.82,1.82Z"/>
  <path class="cls-3" d="M124.35,71.72c0,1.01-.82,1.82-1.82,1.82s-1.82-.82-1.82-1.82.82-1.82,1.82-1.82,1.82.82,1.82,1.82Z"/>
  <path class="cls-3" d="M160.44,60.59c0,1.01-.82,1.82-1.82,1.82s-1.82-.82-1.82-1.82.82-1.82,1.82-1.82,1.82.82,1.82,1.82Z"/>
  <path class="cls-3" d="M146.43,50.79c0,1.01-.82,1.82-1.82,1.82s-1.82-.82-1.82-1.82.82-1.82,1.82-1.82,1.82.82,1.82,1.82Z"/>
  <path class="cls-3" d="M190.38,52.1c0,1.01-.82,1.82-1.82,1.82s-1.82-.82-1.82-1.82.82-1.82,1.82-1.82,1.82.82,1.82,1.82Z"/>
  <path class="cls-3" d="M138.58,86.37c0,1.01-.82,1.82-1.82,1.82s-1.82-.82-1.82-1.82.82-1.82,1.82-1.82,1.82.82,1.82,1.82Z"/>
  <path class="cls-3" d="M83.03,127.96c0,1.01-.82,1.82-1.82,1.82s-1.82-.82-1.82-1.82.82-1.82,1.82-1.82,1.82.82,1.82,1.82Z"/>
  <path class="cls-3" d="M132.27,66.52c0,1.01-.82,1.82-1.82,1.82s-1.82-.82-1.82-1.82.82-1.82,1.82-1.82,1.82.82,1.82,1.82Z"/>
  <path class="cls-3" d="M200.12,34.16c0,1.01-.82,1.82-1.82,1.82s-1.82-.82-1.82-1.82.82-1.82,1.82-1.82,1.82.82,1.82,1.82Z"/>
  <path class="cls-3" d="M200.22,62.9c0,1.01-.82,1.82-1.82,1.82s-1.82-.82-1.82-1.82.82-1.82,1.82-1.82,1.82.82,1.82,1.82Z"/>
  <path class="cls-3" d="M215.69,41.61c0,1.01-.82,1.82-1.82,1.82s-1.82-.82-1.82-1.82.82-1.82,1.82-1.82,1.82.82,1.82,1.82Z"/>
  <path class="cls-3" d="M177.37,74.62c0,1.01-.82,1.82-1.82,1.82s-1.82-.82-1.82-1.82.82-1.82,1.82-1.82,1.82.82,1.82,1.82Z"/>
  <path class="cls-3" d="M114.84,67.03c0,1.01-.82,1.82-1.82,1.82s-1.82-.82-1.82-1.82.82-1.82,1.82-1.82,1.82.82,1.82,1.82Z"/>
  <path class="cls-3" d="M120.88,95.85c0,1.01-.82,1.82-1.82,1.82s-1.82-.82-1.82-1.82.82-1.82,1.82-1.82,1.82.82,1.82,1.82Z"/>
  <path class="cls-3" d="M127.04,68.09c0,1.01-.82,1.82-1.82,1.82s-1.82-.82-1.82-1.82.82-1.82,1.82-1.82,1.82.82,1.82,1.82Z"/>
  <path class="cls-3" d="M120.36,97.44c0,1.01-.82,1.82-1.82,1.82s-1.82-.82-1.82-1.82.82-1.82,1.82-1.82,1.82.82,1.82,1.82Z"/>
  <path class="cls-3" d="M91.6,107.62c0,1.01-.82,1.82-1.82,1.82s-1.82-.82-1.82-1.82.82-1.82,1.82-1.82,1.82.82,1.82,1.82Z"/>
  <path class="cls-3" d="M106.19,96.63c0,1.01-.82,1.82-1.82,1.82s-1.82-.82-1.82-1.82.82-1.82,1.82-1.82,1.82.82,1.82,1.82Z"/>
  <path class="cls-4" d="M23.75,61.3l.45-.04c.03.22.11.38.23.49.12.11.27.16.44.16.2,0,.38-.08.52-.23.14-.16.22-.36.22-.61s-.07-.44-.21-.58c-.13-.14-.31-.22-.54-.22-.13,0-.26.03-.37.09-.11.06-.2.14-.26.24l-.4-.05.34-1.78h1.73v.4h-1.39l-.18.94c.21-.15.42-.22.65-.22.3,0,.56.11.77.32.21.21.32.48.32.82,0,.31-.09.58-.27.82-.22.28-.53.42-.91.42-.32,0-.58-.09-.78-.27-.2-.18-.31-.41-.34-.7Z"/>
  <path class="cls-4" d="M22.53,49.69h-.42v-2.72c-.11.1-.24.2-.41.3-.16.1-.31.17-.44.22v-.41c.24-.11.44-.25.62-.4.18-.16.31-.32.39-.47h.27v3.49ZM23.75,47.97c0-.41.04-.74.13-.99.08-.25.21-.45.37-.58.17-.13.38-.2.63-.2.19,0,.35.04.49.11.14.08.26.19.35.33.09.14.16.31.22.51s.08.48.08.82c0,.41-.04.74-.13.99-.08.25-.2.44-.37.58-.16.13-.38.2-.63.2-.33,0-.6-.12-.79-.36-.23-.29-.34-.76-.34-1.41ZM24.19,47.97c0,.57.07.95.2,1.14.13.19.3.28.49.28.2,0,.36-.09.49-.28.13-.19.2-.57.2-1.14s-.07-.95-.2-1.14c-.13-.19-.3-.28-.5-.28s-.35.08-.47.25c-.15.21-.22.6-.22,1.18Z"/>
  <g>
    <path class="cls-4" d="M55.76,153.83h.54c.08.3.34.53.71.53.44,0,.77-.3.77-.77,0-.42-.3-.77-.76-.77-.32,0-.55.16-.67.38h-.53l.26-1.96h1.97v.46h-1.51l-.12.97c.12-.17.38-.3.71-.3.65,0,1.21.49,1.21,1.22s-.57,1.23-1.31,1.23c-.63,0-1.13-.38-1.24-.98Z"/>
    <path class="cls-4" d="M58.83,152.98c0-1.02.48-1.82,1.4-1.82s1.4.81,1.4,1.82-.48,1.82-1.4,1.82-1.4-.81-1.4-1.82ZM61.09,152.98c0-.68-.24-1.35-.86-1.35s-.86.67-.86,1.35.23,1.35.86,1.35.86-.67.86-1.35Z"/>
    <path class="cls-4" d="M62.17,152.98c0-1.02.48-1.82,1.4-1.82s1.4.81,1.4,1.82-.48,1.82-1.4,1.82-1.4-.81-1.4-1.82ZM64.43,152.98c0-.68-.24-1.35-.86-1.35s-.86.67-.86,1.35.23,1.35.86,1.35.86-.67.86-1.35Z"/>
  </g>
  <g>
    <path class="cls-4" d="M16.25,143.89c0-1.02.48-1.82,1.4-1.82s1.4.81,1.4,1.82-.48,1.82-1.4,1.82-1.4-.81-1.4-1.82ZM18.51,143.89c0-.68-.24-1.35-.86-1.35s-.86.67-.86,1.35.23,1.35.86,1.35.86-.67.86-1.35Z"/>
    <path class="cls-4" d="M19.7,145h.6v.65h-.6v-.65Z"/>
    <path class="cls-4" d="M20.95,143.89c0-1.02.48-1.82,1.4-1.82s1.4.81,1.4,1.82-.48,1.82-1.4,1.82-1.4-.81-1.4-1.82ZM23.2,143.89c0-.68-.23-1.35-.86-1.35s-.86.67-.86,1.35.23,1.35.86,1.35.86-.67.86-1.35Z"/>
    <path class="cls-4" d="M24.29,144.73h.54c.08.3.34.53.71.53.44,0,.77-.3.77-.77,0-.42-.3-.77-.76-.77-.32,0-.55.16-.67.38h-.53l.26-1.96h1.97v.46h-1.51l-.12.97c.12-.17.38-.3.71-.3.65,0,1.21.49,1.21,1.22s-.57,1.23-1.31,1.23c-.63,0-1.13-.38-1.24-.98Z"/>
  </g>
  <g>
    <path class="cls-4" d="M18.49,131.33c0-1.02.48-1.82,1.4-1.82s1.4.81,1.4,1.82-.48,1.82-1.4,1.82-1.4-.81-1.4-1.82ZM20.75,131.33c0-.68-.23-1.35-.86-1.35s-.86.67-.86,1.35.23,1.35.86,1.35.86-.67.86-1.35Z"/>
    <path class="cls-4" d="M21.94,132.44h.6v.65h-.6v-.65Z"/>
    <path class="cls-4" d="M23.87,130.2l-.84.52v-.54l.94-.61h.45v3.5h-.55v-2.88Z"/>
  </g>
  <g>
    <path class="cls-4" d="M18.01,102.1c0-1.02.48-1.82,1.4-1.82s1.4.81,1.4,1.82-.48,1.82-1.4,1.82-1.4-.81-1.4-1.82ZM20.26,102.1c0-.68-.23-1.35-.86-1.35s-.86.67-.86,1.35.23,1.35.86,1.35.86-.67.86-1.35Z"/>
    <path class="cls-4" d="M21.45,103.21h.6v.65h-.6v-.65Z"/>
    <path class="cls-4" d="M22.7,102.94h.54c.08.3.33.53.71.53.44,0,.77-.3.77-.77,0-.42-.3-.77-.76-.77-.31,0-.55.16-.67.38h-.53l.26-1.96h1.97v.46h-1.51l-.12.97c.12-.17.38-.3.71-.3.65,0,1.21.49,1.21,1.22s-.57,1.23-1.31,1.23c-.63,0-1.13-.38-1.24-.98Z"/>
  </g>
  <path class="cls-4" d="M21.64,88.44l-.84.52v-.54l.94-.61h.45v3.5h-.55v-2.88Z"/>
  <g>
    <path class="cls-4" d="M76.02,151.85l-.84.52v-.54l.94-.61h.45v3.5h-.55v-2.88Z"/>
    <path class="cls-4" d="M77.27,152.98c0-1.02.48-1.82,1.4-1.82s1.4.81,1.4,1.82-.48,1.82-1.4,1.82-1.4-.81-1.4-1.82ZM79.53,152.98c0-.68-.24-1.35-.86-1.35s-.86.67-.86,1.35.23,1.35.86,1.35.86-.67.86-1.35Z"/>
    <path class="cls-4" d="M80.61,152.98c0-1.02.48-1.82,1.4-1.82s1.4.81,1.4,1.82-.48,1.82-1.4,1.82-1.4-.81-1.4-1.82ZM82.87,152.98c0-.68-.24-1.35-.86-1.35s-.86.67-.86,1.35.23,1.35.86,1.35.86-.67.86-1.35Z"/>
    <path class="cls-4" d="M83.96,152.98c0-1.02.48-1.82,1.4-1.82s1.4.81,1.4,1.82-.48,1.82-1.4,1.82-1.4-.81-1.4-1.82ZM86.22,152.98c0-.68-.24-1.35-.86-1.35s-.86.67-.86,1.35.23,1.35.86,1.35.86-.67.86-1.35Z"/>
  </g>
  <g>
    <path class="cls-4" d="M58.15.93c-.92,0-1.46.83-1.46,1.69,0,.91.51,1.72,1.46,1.72.79,0,1.19-.46,1.3-1.04h-1.53v-.83h2.54v.39c0,1.34-.86,2.32-2.3,2.32-1.57,0-2.44-1.2-2.44-2.55s.95-2.55,2.42-2.55c1.19,0,1.99.62,2.24,1.61h-1c-.19-.45-.59-.75-1.23-.75Z"/>
    <path class="cls-4" d="M61.31.17h1.9c1.48,0,2.52,1.08,2.52,2.45s-1.04,2.45-2.52,2.45h-1.9V.17ZM63.08,4.23c1.01,0,1.67-.69,1.67-1.61s-.67-1.61-1.67-1.61h-.79v3.22h.79Z"/>
    <path class="cls-4" d="M66.54.17h2.21c1.13,0,1.8.65,1.8,1.53s-.71,1.54-1.8,1.54h-1.23v1.83h-.98V.17ZM68.66,2.41c.6,0,.92-.3.92-.73s-.32-.71-.92-.71h-1.13v1.44h1.13Z"/>
    <path class="cls-4" d="M72.79.17h2.21c1.13,0,1.8.65,1.8,1.53s-.71,1.54-1.8,1.54h-1.23v1.83h-.98V.17ZM74.9,2.41c.6,0,.92-.3.92-.73s-.32-.71-.92-.71h-1.13v1.44h1.13Z"/>
    <path class="cls-4" d="M79.03,1.34c1.16,0,1.76.83,1.76,1.88v.23h-2.65c.04.55.36.96.92.96.45,0,.69-.21.81-.48h.87c-.17.72-.82,1.22-1.67,1.22-1.17,0-1.85-.83-1.85-1.91s.74-1.9,1.81-1.9ZM79.87,2.79c-.06-.46-.36-.77-.84-.77s-.78.33-.86.77h1.7Z"/>
    <path class="cls-4" d="M81.49,1.43h.92v.82c.11-.51.43-.86,1.01-.86.11,0,.21,0,.28.03v.91c-.07,0-.14,0-.23,0-.64,0-1.02.4-1.02,1.13v1.62h-.96V1.43Z"/>
    <path class="cls-4" d="M85.66,2.62c0-1.35.9-2.55,2.4-2.55,1.25,0,2.02.75,2.23,1.74h-1c-.17-.47-.54-.88-1.23-.88-.9,0-1.43.8-1.43,1.69s.53,1.69,1.43,1.69c.69,0,1.06-.41,1.23-.88h1c-.21.99-.99,1.74-2.23,1.74-1.51,0-2.4-1.2-2.4-2.55Z"/>
    <path class="cls-4" d="M92.4,2.86l.88-.07v-.13c0-.36-.2-.6-.62-.6-.38,0-.62.22-.67.5h-.91c.11-.72.71-1.21,1.58-1.21,1.03,0,1.58.55,1.58,1.37v2.35h-.92v-.5c-.14.32-.54.58-1.08.58-.77,0-1.27-.45-1.27-1.14s.5-1.09,1.44-1.16ZM92.48,4.5c.49,0,.8-.31.8-.83v-.25l-.69.06c-.43.04-.71.16-.71.5,0,.31.22.52.6.52Z"/>
    <path class="cls-4" d="M96.04,1.43v.57c.18-.38.57-.66,1.13-.66.97,0,1.67.84,1.67,1.9s-.69,1.91-1.66,1.91c-.55,0-.94-.28-1.11-.66v1.86h-.96V1.43h.93ZM96.98,4.35c.56,0,.91-.53.91-1.11s-.35-1.11-.91-1.11-.91.48-.91,1.11.36,1.11.91,1.11Z"/>
    <path class="cls-4" d="M99.56,0h.97v.92h-.97V0ZM99.57,1.43h.96v3.64h-.96V1.43Z"/>
    <path class="cls-4" d="M101.72,3.84v-1.64h-.58v-.77h.58V.47h.96v.96h.88v.77h-.88v1.61c0,.32.16.5.48.5.17,0,.31-.03.4-.06v.78c-.15.06-.41.09-.67.09-.77,0-1.17-.43-1.17-1.28Z"/>
    <path class="cls-4" d="M105.57,2.86l.88-.07v-.13c0-.36-.2-.6-.62-.6-.39,0-.62.22-.67.5h-.91c.11-.72.71-1.21,1.58-1.21,1.03,0,1.58.55,1.58,1.37v2.35h-.92v-.5c-.14.32-.54.58-1.09.58-.77,0-1.27-.45-1.27-1.14s.5-1.09,1.44-1.16ZM105.66,4.5c.49,0,.8-.31.8-.83v-.25l-.69.06c-.43.04-.71.16-.71.5,0,.31.22.52.6.52Z"/>
    <path class="cls-4" d="M109.39,1.43h.97l.87,2.56.87-2.56h.96l-1.34,3.64h-.98l-1.34-3.64Z"/>
    <path class="cls-4" d="M113.34,3.89h.88c.07.35.33.6.79.6.42,0,.68-.19.68-.47,0-.21-.14-.34-.48-.4l-.78-.13c-.68-.11-1.02-.42-1.02-1,0-.68.61-1.14,1.51-1.14s1.47.44,1.53,1.17h-.88c-.05-.29-.25-.5-.66-.5-.38,0-.64.14-.64.39,0,.2.12.27.42.32l.79.13c.73.11,1.08.46,1.08,1.06,0,.76-.68,1.23-1.55,1.23-.93,0-1.56-.47-1.67-1.26Z"/>
    <path class="cls-4" d="M118.58,2.62c0-1.35.9-2.55,2.4-2.55,1.25,0,2.02.75,2.23,1.74h-1c-.17-.47-.54-.88-1.23-.88-.9,0-1.43.8-1.43,1.69s.53,1.69,1.43,1.69c.69,0,1.06-.41,1.23-.88h1c-.21.99-.99,1.74-2.23,1.74-1.51,0-2.4-1.2-2.4-2.55Z"/>
    <path class="cls-4" d="M123.86,2.62c0-1.37.99-2.55,2.44-2.55s2.44,1.18,2.44,2.55-.99,2.55-2.44,2.55-2.44-1.18-2.44-2.55ZM127.77,2.62c0-.82-.52-1.69-1.46-1.69s-1.46.87-1.46,1.69.53,1.69,1.46,1.69,1.46-.87,1.46-1.69Z"/>
    <path class="cls-4" d="M129.44,4.3l1.95-1.91c.25-.25.43-.48.43-.82,0-.38-.28-.66-.7-.66-.5,0-.74.32-.76.8h-.95c.06-1.02.75-1.64,1.72-1.64s1.66.6,1.66,1.49c0,.57-.32,1.04-.68,1.36l-1.42,1.32h2.09v.84h-3.35v-.77Z"/>
    <path class="cls-4" d="M135.16.17h3.61v.85h-2.63v1.12h2.54v.85h-2.54v1.22h2.69v.85h-3.67V.17Z"/>
    <path class="cls-4" d="M139.66,1.43h.92v.57c.16-.39.48-.66,1.04-.66s.91.25,1.09.64c.21-.38.56-.64,1.15-.64.85,0,1.28.57,1.28,1.45v2.28h-.96v-2.13c0-.46-.21-.76-.64-.76s-.67.28-.67.78v2.11h-.96v-2.13c0-.46-.2-.76-.64-.76s-.67.28-.67.78v2.11h-.96V1.43Z"/>
    <path class="cls-4" d="M146.04,0h.97v.92h-.97V0ZM146.05,1.43h.96v3.64h-.96V1.43Z"/>
    <path class="cls-4" d="M147.71,3.89h.88c.07.35.33.6.79.6.42,0,.68-.19.68-.47,0-.21-.14-.34-.48-.4l-.78-.13c-.68-.11-1.02-.42-1.02-1,0-.68.61-1.14,1.51-1.14s1.47.44,1.53,1.17h-.88c-.05-.29-.25-.5-.66-.5-.38,0-.64.14-.64.39,0,.2.12.27.42.32l.79.13c.73.11,1.08.46,1.08,1.06,0,.76-.68,1.23-1.55,1.23-.93,0-1.56-.47-1.67-1.26Z"/>
    <path class="cls-4" d="M151.36,3.89h.88c.07.35.33.6.79.6.42,0,.68-.19.68-.47,0-.21-.14-.34-.48-.4l-.78-.13c-.68-.11-1.02-.42-1.02-1,0-.68.61-1.14,1.51-1.14s1.47.44,1.53,1.17h-.88c-.05-.29-.25-.5-.66-.5-.38,0-.64.14-.64.39,0,.2.12.27.42.32l.79.13c.73.11,1.08.46,1.08,1.06,0,.76-.68,1.23-1.55,1.23-.93,0-1.56-.47-1.67-1.26Z"/>
    <path class="cls-4" d="M155.27,0h.97v.92h-.97V0ZM155.28,1.43h.96v3.64h-.96V1.43Z"/>
    <path class="cls-4" d="M156.97,3.25c0-1.06.77-1.9,1.87-1.9s1.87.85,1.87,1.9-.77,1.91-1.87,1.91-1.87-.85-1.87-1.91ZM159.76,3.25c0-.55-.34-1.11-.92-1.11s-.92.55-.92,1.11.34,1.11.92,1.11.92-.56.92-1.11Z"/>
    <path class="cls-4" d="M161.4,1.43h.92v.56c.17-.39.5-.64,1.05-.64.86,0,1.3.6,1.3,1.5v2.23h-.96v-2.1c0-.46-.2-.8-.65-.8s-.71.3-.71.8v2.1h-.96V1.43Z"/>
    <path class="cls-4" d="M165.31,3.89h.88c.07.35.33.6.79.6.42,0,.68-.19.68-.47,0-.21-.14-.34-.48-.4l-.78-.13c-.68-.11-1.02-.42-1.02-1,0-.68.61-1.14,1.51-1.14s1.47.44,1.53,1.17h-.88c-.05-.29-.25-.5-.66-.5-.38,0-.64.14-.64.39,0,.2.12.27.42.32l.79.13c.73.11,1.08.46,1.08,1.06,0,.76-.68,1.23-1.55,1.23-.93,0-1.56-.47-1.67-1.26Z"/>
    <path class="cls-4" d="M170.75.17h2.21c1.13,0,1.8.65,1.8,1.53s-.71,1.54-1.8,1.54h-1.23v1.83h-.98V.17ZM172.87,2.41c.59,0,.92-.3.92-.73s-.32-.71-.92-.71h-1.13v1.44h1.13Z"/>
    <path class="cls-4" d="M176.99,1.34c1.16,0,1.76.83,1.76,1.88v.23h-2.65c.04.55.36.96.92.96.45,0,.69-.21.81-.48h.87c-.17.72-.82,1.22-1.67,1.22-1.17,0-1.85-.83-1.85-1.91s.74-1.9,1.81-1.9ZM177.83,2.79c-.06-.46-.36-.77-.84-.77s-.78.33-.86.77h1.7Z"/>
    <path class="cls-4" d="M179.46,1.43h.92v.82c.1-.51.43-.86,1.01-.86.11,0,.21,0,.28.03v.91c-.07,0-.14,0-.23,0-.64,0-1.02.4-1.02,1.13v1.62h-.96V1.43Z"/>
    <path class="cls-4" d="M183.62,2.62c0-1.35.9-2.55,2.4-2.55,1.25,0,2.02.75,2.23,1.74h-1c-.17-.47-.54-.88-1.23-.88-.9,0-1.43.8-1.43,1.69s.53,1.69,1.43,1.69c.69,0,1.06-.41,1.23-.88h1c-.21.99-.99,1.74-2.23,1.74-1.51,0-2.4-1.2-2.4-2.55Z"/>
    <path class="cls-4" d="M190.36,2.86l.88-.07v-.13c0-.36-.2-.6-.62-.6-.39,0-.62.22-.67.5h-.91c.11-.72.71-1.21,1.58-1.21,1.03,0,1.58.55,1.58,1.37v2.35h-.92v-.5c-.14.32-.54.58-1.09.58-.77,0-1.27-.45-1.27-1.14s.5-1.09,1.44-1.16ZM190.45,4.5c.49,0,.8-.31.8-.83v-.25l-.69.06c-.43.04-.71.16-.71.5,0,.31.22.52.6.52Z"/>
    <path class="cls-4" d="M194,1.43v.57c.18-.38.57-.66,1.13-.66.97,0,1.67.84,1.67,1.9s-.69,1.91-1.66,1.91c-.55,0-.94-.28-1.11-.66v1.86h-.96V1.43h.93ZM194.94,4.35c.56,0,.91-.53.91-1.11s-.35-1.11-.91-1.11-.91.48-.91,1.11.36,1.11.91,1.11Z"/>
    <path class="cls-4" d="M197.52,0h.97v.92h-.97V0ZM197.53,1.43h.96v3.64h-.96V1.43Z"/>
    <path class="cls-4" d="M199.68,3.84v-1.64h-.58v-.77h.58V.47h.96v.96h.88v.77h-.88v1.61c0,.32.16.5.48.5.17,0,.31-.03.4-.06v.78c-.15.06-.41.09-.67.09-.77,0-1.17-.43-1.17-1.28Z"/>
    <path class="cls-4" d="M203.54,2.86l.88-.07v-.13c0-.36-.2-.6-.62-.6-.39,0-.62.22-.67.5h-.91c.11-.72.71-1.21,1.58-1.21,1.03,0,1.58.55,1.58,1.37v2.35h-.92v-.5c-.14.32-.54.58-1.09.58-.77,0-1.27-.45-1.27-1.14s.5-1.09,1.44-1.16ZM203.62,4.5c.49,0,.8-.31.8-.83v-.25l-.69.06c-.43.04-.71.16-.71.5,0,.31.22.52.6.52Z"/>
  </g>
  <g>
    <path class="cls-4" d="M110.69,164.92c-.86,0-1.39.79-1.39,1.6s.5,1.61,1.39,1.61c.77,0,1.17-.5,1.26-1.12h-1.49v-.57h2.17v.27c0,1.11-.71,1.99-1.94,1.99s-2.05-1.03-2.05-2.18.82-2.18,2.03-2.18c.99,0,1.64.52,1.86,1.31h-.67c-.19-.44-.57-.73-1.17-.73Z"/>
    <path class="cls-4" d="M113.45,164.42h1.52c1.28,0,2.16.94,2.16,2.1s-.88,2.1-2.16,2.1h-1.52v-4.2ZM114.87,168.04c.97,0,1.6-.67,1.6-1.52s-.62-1.52-1.6-1.52h-.77v3.05h.77Z"/>
    <path class="cls-4" d="M117.9,164.42h1.86c.9,0,1.45.54,1.45,1.26s-.58,1.27-1.45,1.27h-1.2v1.67h-.66v-4.2ZM119.69,166.39c.55,0,.86-.31.86-.72s-.31-.7-.86-.7h-1.13v1.42h1.13Z"/>
    <path class="cls-4" d="M123.23,164.42h1.86c.9,0,1.45.54,1.45,1.26s-.58,1.27-1.45,1.27h-1.2v1.67h-.66v-4.2ZM125.02,166.39c.55,0,.86-.31.86-.72s-.31-.7-.86-.7h-1.13v1.42h1.13Z"/>
    <path class="cls-4" d="M128.46,165.45c.96,0,1.45.7,1.45,1.56v.2h-2.31c.03.54.34.97.9.97.42,0,.65-.21.77-.49h.6c-.16.59-.68.99-1.37.99-.97,0-1.52-.72-1.52-1.62s.62-1.62,1.49-1.62ZM129.3,166.74c-.05-.47-.35-.82-.85-.82s-.77.36-.85.82h1.69Z"/>
    <path class="cls-4" d="M130.61,165.52h.61v.72c.1-.46.4-.75.92-.75.1,0,.19,0,.25.02v.59c-.07-.01-.12-.01-.2-.01-.57,0-.94.4-.94,1.1v1.43h-.64v-3.09Z"/>
    <path class="cls-4" d="M134.13,166.52c0-1.14.76-2.18,2.02-2.18,1,0,1.64.58,1.83,1.38h-.67c-.18-.44-.52-.8-1.16-.8-.88,0-1.37.79-1.37,1.6s.49,1.6,1.37,1.6c.64,0,.98-.35,1.16-.8h.67c-.2.8-.84,1.38-1.83,1.38-1.26,0-2.02-1.04-2.02-2.18Z"/>
    <path class="cls-4" d="M139.79,166.75l.87-.06v-.11c0-.39-.21-.63-.63-.63-.38,0-.62.22-.67.5h-.62c.1-.59.58-.99,1.28-.99.83,0,1.28.46,1.28,1.15v2.02h-.62v-.46c-.12.29-.47.53-.96.53-.67,0-1.09-.39-1.09-.97s.41-.92,1.16-.97ZM139.86,168.23c.47,0,.8-.31.8-.85v-.26l-.7.05c-.45.03-.71.19-.71.53s.21.53.61.53Z"/>
    <path class="cls-4" d="M142.8,165.52v.55c.15-.35.53-.62,1.03-.62.82,0,1.42.72,1.42,1.62s-.59,1.62-1.42,1.62c-.49,0-.87-.27-1.01-.62v1.65h-.64v-4.2h.62ZM143.72,168.14c.53,0,.88-.5.88-1.07s-.34-1.07-.88-1.07-.91.49-.91,1.07.37,1.07.91,1.07Z"/>
    <path class="cls-4" d="M145.95,164.32h.67v.71h-.67v-.71ZM145.96,165.52h.64v3.09h-.64v-3.09Z"/>
    <path class="cls-4" d="M147.73,167.63v-1.58h-.54v-.53h.54v-.82h.64v.82h.83v.53h-.83v1.58c0,.31.15.48.46.48.15,0,.28-.03.37-.05v.53c-.11.05-.32.07-.53.07-.63,0-.95-.35-.95-1.03Z"/>
    <path class="cls-4" d="M150.91,166.75l.87-.06v-.11c0-.39-.21-.63-.63-.63-.38,0-.62.22-.67.5h-.62c.1-.59.58-.99,1.28-.99.83,0,1.28.46,1.28,1.15v2.02h-.62v-.46c-.12.29-.47.53-.96.53-.67,0-1.09-.39-1.09-.97s.41-.92,1.16-.97ZM150.98,168.23c.47,0,.8-.31.8-.85v-.26l-.7.05c-.45.03-.71.19-.71.53s.21.53.61.53Z"/>
  </g>
  <g>
    <path class="cls-4" d="M2.2,125.09c-1.14,0-2.18-.76-2.18-2.02,0-1,.58-1.64,1.38-1.83v.67c-.44.18-.8.52-.8,1.16,0,.88.79,1.37,1.6,1.37s1.6-.49,1.6-1.37c0-.64-.35-.98-.8-1.16v-.67c.8.2,1.38.84,1.38,1.83,0,1.26-1.04,2.02-2.18,2.02Z"/>
    <path class="cls-4" d="M2.2,120.62c-1.13,0-2.18-.82-2.18-2.06s1.05-2.06,2.18-2.06,2.18.82,2.18,2.06-1.06,2.06-2.18,2.06ZM2.2,117.16c-.79,0-1.6.52-1.6,1.39s.82,1.4,1.6,1.4,1.6-.52,1.6-1.4-.82-1.39-1.6-1.39Z"/>
    <path class="cls-4" d="M3.8,115.85l-1.75-1.71c-.25-.24-.46-.4-.79-.4-.4,0-.68.28-.68.72,0,.49.32.76.82.79v.64c-.85-.04-1.38-.61-1.38-1.43s.51-1.36,1.23-1.36c.5,0,.89.28,1.16.56l1.33,1.37v-1.94h.56v2.78h-.5Z"/>
    <path class="cls-4" d="M.1,110.94v-3h.58v2.34h1.18v-2.27h.58v2.27h1.28v-2.39h.58v3.05H.1Z"/>
    <path class="cls-4" d="M1.21,107.11v-.62h.51c-.35-.14-.58-.44-.58-.9,0-.48.22-.79.56-.96-.34-.19-.56-.52-.56-1,0-.74.49-1.11,1.24-1.11h1.92v.64h-1.82c-.47,0-.78.2-.78.64s.29.69.8.69h1.8v.64h-1.82c-.47,0-.78.2-.78.64s.29.7.8.7h1.8v.64H1.21Z"/>
    <path class="cls-4" d="M0,101.63v-.67h.71v.67H0ZM1.21,101.62v-.64h3.09v.64H1.21Z"/>
    <path class="cls-4" d="M3.31,100.28v-.6c.35-.07.59-.32.59-.79,0-.42-.2-.67-.5-.67-.22,0-.36.15-.42.5l-.11.64c-.1.56-.35.85-.81.85-.56,0-.94-.5-.94-1.22s.37-1.21.97-1.26v.6c-.28.05-.5.25-.5.66,0,.38.15.64.41.64.2,0,.28-.12.34-.44l.11-.65c.1-.61.38-.91.89-.91.62,0,1.02.56,1.02,1.27,0,.77-.4,1.28-1.06,1.39Z"/>
    <path class="cls-4" d="M3.31,97.19v-.6c.35-.07.59-.32.59-.79,0-.42-.2-.67-.5-.67-.22,0-.36.15-.42.5l-.11.64c-.1.56-.35.85-.81.85-.56,0-.94-.5-.94-1.22s.37-1.21.97-1.26v.6c-.28.05-.5.25-.5.66,0,.38.15.64.41.64.2,0,.28-.12.34-.44l.11-.65c.1-.61.38-.91.89-.91.62,0,1.02.56,1.02,1.27,0,.77-.4,1.28-1.06,1.39Z"/>
    <path class="cls-4" d="M0,93.85v-.67h.71v.67H0ZM1.21,93.84v-.64h3.09v.64H1.21Z"/>
    <path class="cls-4" d="M2.75,92.48c-.89,0-1.62-.64-1.62-1.54s.73-1.54,1.62-1.54,1.62.64,1.62,1.54-.73,1.54-1.62,1.54ZM2.75,90.04c-.55,0-1.08.34-1.08.9s.53.9,1.08.9,1.07-.34,1.07-.9-.53-.9-1.07-.9Z"/>
    <path class="cls-4" d="M1.21,88.71v-.62h.5c-.35-.14-.57-.46-.57-.93,0-.73.51-1.12,1.28-1.12h1.89v.64h-1.8c-.47,0-.8.2-.8.65s.3.74.81.74h1.79v.64H1.21Z"/>
    <path class="cls-4" d="M3.31,85.4v-.6c.35-.07.59-.32.59-.79,0-.42-.2-.67-.5-.67-.22,0-.36.15-.42.5l-.11.64c-.1.56-.35.85-.81.85-.56,0-.94-.5-.94-1.22s.37-1.21.97-1.26v.6c-.28.05-.5.25-.5.66,0,.38.15.64.41.64.2,0,.28-.12.34-.44l.11-.65c.1-.61.38-.91.89-.91.62,0,1.02.56,1.02,1.27,0,.77-.4,1.28-1.06,1.39Z"/>
    <path class="cls-4" d="M.1,80.75v-1.86c0-.9.54-1.45,1.26-1.45s1.27.58,1.27,1.45v1.2h1.67v.66H.1ZM2.08,78.95c0-.55-.31-.86-.72-.86s-.7.31-.7.86v1.13h1.42v-1.13Z"/>
    <path class="cls-4" d="M1.13,75.51c0-.96.7-1.44,1.56-1.44h.2v2.31c.54-.03.97-.34.97-.9,0-.42-.21-.65-.49-.77v-.6c.59.16.99.68.99,1.37,0,.97-.72,1.52-1.62,1.52s-1.62-.62-1.62-1.49ZM2.42,74.67c-.47.05-.82.35-.82.85s.36.77.82.85v-1.69Z"/>
    <path class="cls-4" d="M1.21,73.36v-.61h.72c-.46-.1-.75-.4-.75-.92,0-.1,0-.19.02-.25h.59c-.01.07-.01.12-.01.2,0,.57.4.94,1.1.94h1.43v.64H1.21Z"/>
    <path class="cls-4" d="M2.2,69.84c-1.14,0-2.18-.76-2.18-2.02,0-1,.58-1.64,1.38-1.83v.67c-.44.18-.8.52-.8,1.16,0,.88.79,1.37,1.6,1.37s1.6-.49,1.6-1.37c0-.63-.35-.98-.8-1.16v-.67c.8.2,1.38.84,1.38,1.83,0,1.26-1.04,2.02-2.18,2.02Z"/>
    <path class="cls-4" d="M2.43,64.18l-.06-.87h-.11c-.39,0-.63.21-.63.63,0,.38.22.62.5.67v.62c-.59-.1-.99-.58-.99-1.28,0-.83.46-1.28,1.15-1.28h2.02v.62h-.46c.29.12.53.47.53.96,0,.67-.39,1.09-.97,1.09s-.92-.41-.97-1.16ZM3.92,64.11c0-.47-.31-.8-.85-.8h-.26l.05.7c.03.45.19.71.53.71s.53-.21.53-.61Z"/>
    <path class="cls-4" d="M1.21,61.17h.55c-.35-.15-.62-.53-.62-1.03,0-.82.72-1.42,1.62-1.42s1.62.59,1.62,1.42c0,.49-.27.87-.62,1.01h1.65v.64H1.21v-.62ZM3.83,60.25c0-.53-.5-.88-1.07-.88s-1.07.34-1.07.88.49.91,1.07.91,1.07-.37,1.07-.91Z"/>
    <path class="cls-4" d="M0,58.02v-.67h.71v.67H0ZM1.21,58.01v-.64h3.09v.64H1.21Z"/>
    <path class="cls-4" d="M3.31,56.24h-1.58v.54h-.53v-.54H.38v-.64h.82v-.83h.53v.83h1.58c.31,0,.48-.15.48-.46,0-.15-.03-.28-.05-.37h.53c.05.11.07.32.07.53,0,.63-.35.95-1.03.95Z"/>
    <path class="cls-4" d="M2.43,53.06l-.06-.87h-.11c-.39,0-.63.21-.63.63,0,.38.22.62.5.67v.62c-.59-.1-.99-.58-.99-1.28,0-.83.46-1.28,1.15-1.28h2.02v.62h-.46c.29.12.53.47.53.96,0,.67-.39,1.09-.97,1.09s-.92-.41-.97-1.16ZM3.92,52.99c0-.47-.31-.8-.85-.8h-.26l.05.7c.03.45.19.71.53.71s.53-.21.53-.61Z"/>
  </g>
  <g>
    <path class="cls-4" d="M123.31,153.83h.54c.08.3.33.53.71.53.44,0,.77-.3.77-.77,0-.42-.3-.77-.76-.77-.32,0-.55.16-.67.38h-.53l.26-1.96h1.97v.46h-1.51l-.12.97c.12-.17.38-.3.71-.3.65,0,1.21.49,1.21,1.22s-.57,1.23-1.31,1.23c-.63,0-1.13-.38-1.24-.98Z"/>
    <path class="cls-4" d="M126.37,152.98c0-1.02.48-1.82,1.4-1.82s1.4.81,1.4,1.82-.48,1.82-1.4,1.82-1.4-.81-1.4-1.82ZM128.63,152.98c0-.68-.23-1.35-.86-1.35s-.86.67-.86,1.35.23,1.35.86,1.35.86-.67.86-1.35Z"/>
    <path class="cls-4" d="M129.72,152.98c0-1.02.48-1.82,1.4-1.82s1.4.81,1.4,1.82-.48,1.82-1.4,1.82-1.4-.81-1.4-1.82ZM131.98,152.98c0-.68-.23-1.35-.86-1.35s-.86.67-.86,1.35.23,1.35.86,1.35.86-.67.86-1.35Z"/>
    <path class="cls-4" d="M133.06,152.98c0-1.02.48-1.82,1.4-1.82s1.4.81,1.4,1.82-.48,1.82-1.4,1.82-1.4-.81-1.4-1.82ZM135.32,152.98c0-.68-.23-1.35-.86-1.35s-.86.67-.86,1.35.23,1.35.86,1.35.86-.67.86-1.35Z"/>
  </g>
  <g>
    <path class="cls-4" d="M143.97,151.85l-.84.52v-.54l.94-.61h.45v3.5h-.55v-2.88Z"/>
    <path class="cls-4" d="M145.22,152.98c0-1.02.48-1.82,1.4-1.82s1.4.81,1.4,1.82-.48,1.82-1.4,1.82-1.4-.81-1.4-1.82ZM147.48,152.98c0-.68-.23-1.35-.86-1.35s-.86.67-.86,1.35.23,1.35.86,1.35.86-.67.86-1.35Z"/>
    <path class="cls-4" d="M148.56,152.98c0-1.02.48-1.82,1.4-1.82s1.4.81,1.4,1.82-.48,1.82-1.4,1.82-1.4-.81-1.4-1.82ZM150.82,152.98c0-.68-.23-1.35-.86-1.35s-.86.67-.86,1.35.23,1.35.86,1.35.86-.67.86-1.35Z"/>
    <path class="cls-4" d="M151.91,152.98c0-1.02.48-1.82,1.4-1.82s1.4.81,1.4,1.82-.48,1.82-1.4,1.82-1.4-.81-1.4-1.82ZM154.16,152.98c0-.68-.23-1.35-.86-1.35s-.86.67-.86,1.35.23,1.35.86,1.35.86-.67.86-1.35Z"/>
    <path class="cls-4" d="M155.25,152.98c0-1.02.48-1.82,1.4-1.82s1.4.81,1.4,1.82-.48,1.82-1.4,1.82-1.4-.81-1.4-1.82ZM157.51,152.98c0-.68-.23-1.35-.86-1.35s-.86.67-.86,1.35.23,1.35.86,1.35.86-.67.86-1.35Z"/>
  </g>
  <g>
    <path class="cls-4" d="M190.85,153.82h.54c.08.3.33.53.71.53.44,0,.77-.3.77-.77,0-.42-.3-.77-.76-.77-.32,0-.55.16-.67.38h-.53l.26-1.96h1.97v.46h-1.51l-.12.97c.12-.17.38-.3.71-.3.65,0,1.21.49,1.21,1.22s-.57,1.23-1.31,1.23c-.63,0-1.13-.38-1.24-.98Z"/>
    <path class="cls-4" d="M193.92,152.98c0-1.02.48-1.82,1.4-1.82s1.4.81,1.4,1.82-.48,1.82-1.4,1.82-1.4-.81-1.4-1.82ZM196.18,152.98c0-.68-.23-1.35-.86-1.35s-.86.67-.86,1.35.23,1.35.86,1.35.86-.67.86-1.35Z"/>
    <path class="cls-4" d="M197.26,152.98c0-1.02.48-1.82,1.4-1.82s1.4.81,1.4,1.82-.48,1.82-1.4,1.82-1.4-.81-1.4-1.82ZM199.52,152.98c0-.68-.23-1.35-.86-1.35s-.86.67-.86,1.35.23,1.35.86,1.35.86-.67.86-1.35Z"/>
    <path class="cls-4" d="M200.61,152.98c0-1.02.48-1.82,1.4-1.82s1.4.81,1.4,1.82-.48,1.82-1.4,1.82-1.4-.81-1.4-1.82ZM202.87,152.98c0-.68-.23-1.35-.86-1.35s-.86.67-.86,1.35.23,1.35.86,1.35.86-.67.86-1.35Z"/>
    <path class="cls-4" d="M203.95,152.98c0-1.02.48-1.82,1.4-1.82s1.4.81,1.4,1.82-.48,1.82-1.4,1.82-1.4-.81-1.4-1.82ZM206.21,152.98c0-.68-.23-1.35-.86-1.35s-.86.67-.86,1.35.23,1.35.86,1.35.86-.67.86-1.35Z"/>
  </g>
  <g>
    <path class="cls-4" d="M211.51,151.85l-.84.52v-.54l.94-.61h.45v3.5h-.55v-2.88Z"/>
    <path class="cls-4" d="M212.76,152.98c0-1.02.48-1.82,1.4-1.82s1.4.81,1.4,1.82-.48,1.82-1.4,1.82-1.4-.81-1.4-1.82ZM215.02,152.98c0-.68-.24-1.35-.86-1.35s-.86.67-.86,1.35.23,1.35.86,1.35.86-.67.86-1.35Z"/>
    <path class="cls-4" d="M216.11,152.98c0-1.02.48-1.82,1.4-1.82s1.4.81,1.4,1.82-.48,1.82-1.4,1.82-1.4-.81-1.4-1.82ZM218.37,152.98c0-.68-.24-1.35-.86-1.35s-.86.67-.86,1.35.23,1.35.86,1.35.86-.67.86-1.35Z"/>
    <path class="cls-4" d="M219.45,152.98c0-1.02.48-1.82,1.4-1.82s1.4.81,1.4,1.82-.48,1.82-1.4,1.82-1.4-.81-1.4-1.82ZM221.71,152.98c0-.68-.24-1.35-.86-1.35s-.86.67-.86,1.35.23,1.35.86,1.35.86-.67.86-1.35Z"/>
    <path class="cls-4" d="M222.8,152.98c0-1.02.48-1.82,1.4-1.82s1.4.81,1.4,1.82-.48,1.82-1.4,1.82-1.4-.81-1.4-1.82ZM225.06,152.98c0-.68-.24-1.35-.86-1.35s-.86.67-.86,1.35.23,1.35.86,1.35.86-.67.86-1.35Z"/>
    <path class="cls-4" d="M226.14,152.98c0-1.02.48-1.82,1.4-1.82s1.4.81,1.4,1.82-.48,1.82-1.4,1.82-1.4-.81-1.4-1.82ZM228.4,152.98c0-.68-.24-1.35-.86-1.35s-.86.67-.86,1.35.23,1.35.86,1.35.86-.67.86-1.35Z"/>
  </g>
</svg>